<?xml version="1.0" standalone="no"?>
<!DOCTYPE svg PUBLIC "-//W3C//DTD SVG 1.1//EN" "http://www.w3.org/Graphics/SVG/1.1/DTD/svg11.dtd" >
<svg>
<metadata>
Created by FontForge 20090914 at Thu Mar 28 00:15:36 2013
 By www-data

</metadata>
<defs>
<font id="Pragmatica" horiz-adv-x="612" >
  <font-face
    font-family="Pragmatica"
    font-weight="400"
    font-stretch="normal"
    units-per-em="1000"
    panose-1="0 0 0 0 0 0 0 0 0 0"
    ascent="800"
    descent="-200"
    x-height="538.999"
    cap-height="742"
    bbox="-28 -204 1320 917"
    underline-thickness="50"
    underline-position="-55"
    unicode-range="U+0020-U+2219"
  />
<missing-glyph
d="M442 66v473h94v-539h-185v-196h-91v196h-184v539h93v-473h273v0z" />
    <glyph glyph-name=".notdef"
d="M442 66v473h94v-539h-185v-196h-91v196h-184v539h93v-473h273v0z" />
    <glyph glyph-name="space" unicode=" " horiz-adv-x="351"
 />
    <glyph glyph-name="exclam" unicode="!" horiz-adv-x="329"
d="M112 0v116h105v-116h-105v0zM112 742h105v-285l-26 -244h-52l-27 244v285v0z" />
    <glyph glyph-name="quotedbl" unicode="&#x22;" horiz-adv-x="526"
d="M235 742l-42 -203h-56l-42 203h140v0zM431 742l-42 -203h-56l-42 203h140v0z" />
    <glyph glyph-name="numbersign" unicode="#" horiz-adv-x="1053"
d="M641 -59h-90l35 178h-191l-34 -178h-90l35 178h-178l17 90h178l37 190h-178l18 90h177l35 177h90l-35 -177h190l35 177h90l-35 -177h178l-18 -90h-177l-37 -190h177l-17 -90h-178l-34 -178v0zM603 209l37 190h-190l-37 -190h190v0z" />
    <glyph glyph-name="dollar" unicode="$" horiz-adv-x="648"
d="M56 221l95.0049 0.00195312c2 -45.333 12.333 -79.166 31 -101.499s38.667 -37.833 60 -46.5c10.667 -4.66699 21.167 -7.83398 31.5 -9.50098s19.5 -2.83398 27.5 -3.50098v282c-70.667 16.667 -126 39 -166 67s-60 76.333 -60 145c0 65.333 18.167 113 54.5 143
s76.166 48.333 119.499 55l22 2c7.33301 0.666992 14.666 1 21.999 1h2h2h2h2v69h56v-69c69.333 -0.666992 121.666 -19.334 156.999 -56.001s53 -79.667 53 -129v-2v-2v-2v-2h-91c-0.666992 33.333 -11.834 61.833 -33.501 85.5s-50.5 36.167 -86.5 37.5v-262
c76 -14 134.333 -37.833 175 -71.5s61 -83.167 61 -148.5c0 -62 -15.833 -108.5 -47.5 -139.5s-66.5 -52.167 -104.5 -63.5c-14.667 -3.33301 -29 -6 -43 -8s-27.333 -3.33301 -40 -4v-87h-56v86c-82.667 3.33301 -143.334 25.333 -182.001 66s-59.667 96.667 -63 168v0z
M356.005 333.002v-272.998c46 0 80 13 102 39s34.667 54.667 38 86c0.666992 3.33301 1 6.5 1 9.5v8.5v7.5c0 2.33301 -0.333008 4.5 -1 6.5c-2 25.333 -12.833 49.166 -32.5 71.499s-55.5 37.166 -107.5 44.499v0zM301.005 432.004l0.000976562 253.001
c-7.33301 0 -16 -0.666992 -26 -2s-20.667 -4 -32 -8c-18.667 -6.66699 -35.834 -18.834 -51.501 -36.501s-23.5 -44.5 -23.5 -80.5c0 -30.667 9 -56.5 27 -77.5s53.333 -37.167 106 -48.5v0z" />
    <glyph glyph-name="percent" unicode="%" horiz-adv-x="966"
d="M562 204c0 11.333 0.833008 23.6689 2.5 37.002s4.16699 27 7.5 41c9.33301 33.333 26.5 63.833 51.5 91.5s62.5 41.5 112.5 41.5c57.333 0 100.666 -20.333 129.999 -61s44 -90.667 44 -150c0 -56.667 -10 -99.834 -30 -129.501s-42 -50.5 -66 -62.5
c-14.667 -8 -29 -13.167 -43 -15.5s-25.667 -3.5 -35 -3.5s-20.166 1.16699 -32.499 3.5s-24.833 6.16602 -37.5 11.499c-26 12 -49.833 33.167 -71.5 63.5s-32.5 74.5 -32.5 132.5v0zM630 204.003c0 -54.667 10.668 -94.335 32.001 -119.002s46 -37 74 -37
c27.333 0 51.833 12.333 73.5 37s32.5 64.334 32.5 119.001v8.5c0 3 -0.333008 6.16699 -1 9.5c-2 34 -10.833 65.333 -26.5 94s-41.834 43 -78.501 43c-28 0 -49.333 -8.33301 -64 -25s-25 -35 -31 -55c-5.33301 -16 -8.5 -31.167 -9.5 -45.5s-1.5 -24.166 -1.5 -29.499v0z
M208.001 0.00195312l481 742h75l-481 -742h-75v0zM56.001 538.002c0 62 12.502 108.667 37.502 140s52.5 52.333 82.5 63c9.33301 3.33301 18.666 5.66602 27.999 6.99902s18.333 2 27 2c9.33301 0 20.166 -1.16699 32.499 -3.5s24.833 -6.5 37.5 -12.5
c26 -12 49.833 -33.167 71.5 -63.5s32.5 -74.5 32.5 -132.5c0 -11.333 -0.833008 -23.666 -2.5 -36.999s-4.16699 -27 -7.5 -41c-9.33301 -33.333 -26.5 -63.833 -51.5 -91.5s-62.5 -41.5 -112.5 -41.5c-54.667 0 -95.167 16.667 -121.5 50s-42.833 70.333 -49.5 111
c-1.33301 8 -2.33301 16.333 -3 25s-1 17 -1 25v0zM124.003 538.002c0 -8.66699 0.5 -18.499 1.5 -29.499s3.16699 -22.167 6.5 -33.5c6 -22.667 16.5 -43.667 31.5 -63s37.5 -29 67.5 -29c28 0 49.333 8.33301 64 25s25 35 31 55c5.33301 16 8.5 31.167 9.5 45.5
s1.5 24.166 1.5 29.499c0 54 -10.667 93.5 -32 118.5s-46 37.5 -74 37.5c-26.667 0 -51.167 -12.5 -73.5 -37.5s-33.5 -64.5 -33.5 -118.5v0z" />
    <glyph glyph-name="ampersand" unicode="&#x26;" horiz-adv-x="724"
d="M574 324l83.999 0.000976562c-5.33301 -38.667 -13.166 -71.667 -23.499 -99s-22.833 -52 -37.5 -74l127 -151h-111l-73 87c-25.333 -34.667 -57.5 -60.667 -96.5 -78s-83.833 -26 -134.5 -26c-76.667 0 -133.167 19.667 -169.5 59s-57.166 83 -62.499 131
c0 4 -0.166992 8.16699 -0.5 12.5s-0.5 8.5 -0.5 12.5c0 60.667 17 108.167 51 142.5s78 63.833 132 88.5c-22.667 27.333 -39.334 51 -50.001 71s-17.334 39 -20.001 57c-1.33301 5.33301 -2.16602 10.666 -2.49902 15.999s-0.5 10.666 -0.5 15.999
c0 45.333 15.333 82.166 46 110.499s72.667 42.5 126 42.5c1.33301 0 10.333 -0.833008 27 -2.5s34.667 -7.16699 54 -16.5c20 -9.33301 38.5 -24 55.5 -44s25.5 -48.667 25.5 -86s-9.66699 -69 -29 -95s-40.666 -47 -63.999 -63c-8 -6 -15.833 -11.167 -23.5 -15.5
s-14.834 -8.16602 -21.501 -11.499l162 -193c2 3.33301 3.83301 6.83301 5.5 10.5s3.16699 7.83398 4.5 12.501c4 9.33301 7.66699 21 11 35s6.33301 31 9 51v0zM490.999 147.001l-184 222c-41.333 -18 -74 -40.5 -98 -67.5s-36 -61.167 -36 -102.5
c0 -42.667 14.667 -76.167 44 -100.5s64.333 -36.5 105 -36.5c4.66699 0 9.16699 0.166992 13.5 0.5s8.83301 0.833008 13.5 1.5c27.333 2.66699 53.833 10.667 79.5 24s46.5 33 62.5 59v0zM335.999 464.001c2.66699 0.666992 5.16699 1.66406 7.5 2.99707
s4.5 2.33301 6.5 3c22 10.667 41.833 26.334 59.5 47.001s26.5 46.667 26.5 78c0 21.333 -7.5 39.5 -22.5 54.5s-33.833 22.5 -56.5 22.5c-22 0 -41.667 -6.66699 -59 -20s-26 -33.666 -26 -60.999c0 -13.333 2.33301 -26.166 7 -38.499s11 -24.166 19 -35.499
c5.33301 -8.66699 11.333 -17.334 18 -26.001l20 -27v0z" />
    <glyph glyph-name="quotesingle" unicode="'" horiz-adv-x="330"
d="M235 742l-42 -203h-56l-42 203h140v0z" />
    <glyph glyph-name="parenleft" unicode="(" horiz-adv-x="387"
d="M229 742l69.999 -0.00195312c-40.667 -80.667 -71.167 -155.167 -91.5 -223.5s-32.5 -135.5 -36.5 -201.5c0 -7.33301 -0.166992 -14.666 -0.5 -21.999s-0.5 -14.666 -0.5 -21.999c0 -42 7.33301 -102.5 22 -181.5s50.334 -174.5 107.001 -286.5l-70 -1
c-56 97.333 -94.333 175.833 -115 235.5s-33 115.5 -37 167.5c-0.666992 10.667 -1.16699 21.5 -1.5 32.5s-0.5 22.167 -0.5 33.5s0.166992 22.5 0.5 33.5s0.833008 21.833 1.5 32.5c4 52 16.333 108 37 168s59 138.333 115 235v0z" />
    <glyph glyph-name="parenright" unicode=")" horiz-adv-x="387"
d="M158 -196l-69.998 0.00390625c61.333 123.333 98.166 222.166 110.499 296.499s18.5 131.833 18.5 172.5v0.5v0.5c0 31.333 -5.33301 85.166 -16 161.499s-48.334 178.5 -113.001 306.5h70c72 -116.667 115.667 -211.834 131 -285.501s23 -134.834 23 -183.501
s-7.66699 -109.667 -23 -183s-59 -168.333 -131 -285v-1z" />
    <glyph glyph-name="asterisk" unicode="*" horiz-adv-x="493"
d="M247 542l-85 -115l-42 32l82 114l-132 43l17 50l134 -43v140h52v-140l133 43l17 -50l-132 -43l83 -114l-43 -32l-84 115v0z" />
    <glyph glyph-name="plus" unicode="+" horiz-adv-x="742"
d="M56 399h287v287h56v-287h287v-56h-287v-287h-56v287h-287v56v0z" />
    <glyph glyph-name="comma" unicode="," horiz-adv-x="329"
d="M112 0l-0.000976562 116h105v-152c0 -6 -0.666992 -12.833 -2 -20.5s-3.66602 -15.5 -6.99902 -23.5c-6 -16 -16.5 -31 -31.5 -45s-36.5 -24.333 -64.5 -31v57c15.333 3.33301 28 11.5 38 24.5s15 27.167 15 42.5v32h-53v0z" />
    <glyph glyph-name="hyphen" unicode="-" horiz-adv-x="448"
d="M84 238v91h280v-91h-280v0z" />
    <glyph glyph-name="period" unicode="." horiz-adv-x="329"
d="M112 0v116h105v-116h-105v0z" />
    <glyph glyph-name="slash" unicode="/" horiz-adv-x="455"
d="M0 -196l378 938h77l-378 -938h-77v0z" />
    <glyph glyph-name="zero" unicode="0" horiz-adv-x="617"
d="M308 -16c-92.667 0.666992 -157.334 35.3359 -194.001 104.003s-57.667 144.334 -63 227.001c-0.666992 9.33301 -1.16699 18.666 -1.5 27.999s-0.5 18.666 -0.5 27.999s0.166992 18.666 0.5 27.999s0.833008 18.666 1.5 27.999c5.33301 82.667 26.333 158.5 63 227.5
s101.334 103.5 194.001 103.5c92 0 156.667 -34.167 194 -102.5s58.666 -143.5 63.999 -225.5c0.666992 -10 1.16699 -19.833 1.5 -29.5s0.5 -19.5 0.5 -29.5s-0.166992 -19.833 -0.5 -29.5s-0.833008 -19.5 -1.5 -29.5c-5.33301 -82 -26.666 -157 -63.999 -225
s-102 -102 -194 -102v-1zM308 64.002c50.667 0 87.334 19.335 110.001 58.002s37.334 81 44.001 127c3.33301 22 5.5 43.5 6.5 64.5s1.5 40.167 1.5 57.5s-0.5 36.5 -1.5 57.5s-3.16699 42.5 -6.5 64.5c-6.66699 46 -21.334 88.333 -44.001 127s-59.334 58 -110.001 58
c-52 0 -89 -19.667 -111 -59s-36.333 -82.333 -43 -129c-2.66699 -21.333 -4.5 -42.333 -5.5 -63s-1.5 -39.334 -1.5 -56.001s0.5 -35.334 1.5 -56.001s2.83301 -41.667 5.5 -63c6.66699 -46.667 21 -89.667 43 -129s59 -59 111 -59v0z" />
    <glyph glyph-name="one" unicode="1" horiz-adv-x="613"
d="M137 558v51.999h22c48.667 0 89.167 12.833 121.5 38.5s50.833 56.834 55.5 93.501h70v-742h-100v558h-169v0z" />
    <glyph glyph-name="two" unicode="2" horiz-adv-x="617"
d="M565 84l-0.00292969 -84.0029h-502c-0.666992 62 10.333 112.167 33 150.5s56.334 74.5 101.001 108.5c16.667 12.667 34.667 25.5 54 38.5l63 40.5c1.33301 0.666992 2.5 1.33398 3.5 2.00098s2.16699 1.66699 3.5 3c36.667 22.667 69.834 48 99.501 76
s44.5 68 44.5 120c0 36.667 -7.83301 64.5 -23.5 83.5s-32.834 32.167 -51.501 39.5c-16 7.33301 -31.167 11.5 -45.5 12.5s-23.5 1.5 -27.5 1.5h-0.5h-0.5c-43.333 0 -76.666 -9.66699 -99.999 -29s-39.333 -40.666 -48 -63.999
c-3.33301 -8.66699 -5.66602 -17.334 -6.99902 -26.001s-2 -16.667 -2 -24v-27h-94v22c0 12.667 1.16699 26.334 3.5 41.001s6.16602 29.667 11.499 45c13.333 35.333 38.333 67.833 75 97.5s91.334 44.5 164.001 44.5c64 0 112.667 -11.333 146 -34s57.333 -48 72 -76
c12 -23.333 19.333 -45.333 22 -66s4 -34 4 -40c0 -38 -6 -71.5 -18 -100.5s-32.333 -56.833 -61 -83.5c-14.667 -14 -32 -28.167 -52 -42.5s-42.667 -29.166 -68 -44.499c-49.333 -30 -87.5 -56.167 -114.5 -78.5s-46.833 -43.833 -59.5 -64.5
c-4 -6.66699 -7.5 -13.5 -10.5 -20.5s-5.16699 -14.167 -6.5 -21.5h392v0z" />
    <glyph glyph-name="three" unicode="3" horiz-adv-x="616"
d="M43 226h95.999c4 -50 16.5 -86.333 37.5 -109s43.5 -37.334 67.5 -44.001c9.33301 -2.66699 18.5 -4.5 27.5 -5.5s17.5 -1.5 25.5 -1.5c8.66699 0 19.834 0.5 33.501 1.5s27.834 4.16699 42.501 9.5c22.667 7.33301 43.667 21.166 63 41.499s29 52.166 29 95.499
c0 5.33301 -0.5 14.166 -1.5 26.499s-4.5 25.166 -10.5 38.499c-7.33301 17.333 -20.333 33.333 -39 48s-46.667 22 -84 22h-14.5h-15.5c-9.33301 0 -18 -0.166992 -26 -0.5s-14.667 -0.5 -20 -0.5l-1 80h30c8.66699 0 19.167 0.5 31.5 1.5s24.833 3.16699 37.5 6.5
c23.333 6.66699 44.666 18.834 63.999 36.501s29 45.5 29 83.5c0 36.667 -9.33301 63.5 -28 80.5s-39.334 28.5 -62.001 34.5c-10 2 -19.833 3.5 -29.5 4.5s-18.5 1.5 -26.5 1.5c-54.667 0 -91.834 -14.833 -111.501 -44.5s-30.5 -62.5 -32.5 -98.5v-9.5v-8.5h-92v4.5v3.5
c0 12 0.833008 25 2.5 39s4.5 28 8.5 42c10.667 38 32.834 72.667 66.501 104s87.5 47 161.5 47c83.333 0 143.333 -20.167 180 -60.5s55 -85.166 55 -134.499c0 -39.333 -8.66699 -70.666 -26 -93.999s-36.333 -41.333 -57 -54c-6.66699 -4 -13.167 -7.33301 -19.5 -10
s-12.5 -5 -18.5 -7v-5c41.333 -5.33301 75.5 -24.666 102.5 -57.999s40.5 -75.333 40.5 -126c0 -78 -26 -134.167 -78 -168.5s-111.333 -51.5 -178 -51.5c-90 0 -153.167 20.833 -189.5 62.5s-58.5 87.834 -66.5 138.501c-1.33301 6.66699 -2.16602 13.167 -2.49902 19.5
s-0.833008 12.5 -1.5 18.5v0z" />
    <glyph glyph-name="four" unicode="4" horiz-adv-x="622"
d="M377 171h-349v86l348 485h101v-487h117v-84h-117v-171h-100v171v0zM123 255h254v357l-254 -357v0z" />
    <glyph glyph-name="five" unicode="5" horiz-adv-x="616"
d="M50 190h96.998c8 -37.333 21.167 -64.5 39.5 -81.5s37.833 -28.167 58.5 -33.5c9.33301 -2.66699 18.666 -4.5 27.999 -5.5s18.333 -1.5 27 -1.5c9.33301 0 20.833 0.666992 34.5 2s27.834 4.66602 42.501 9.99902c24 8.66699 46 24.834 66 48.501s30 61.167 30 112.5
c0 5.33301 -0.666992 16.166 -2 32.499s-6 34.166 -14 53.499c-10 22 -26.167 42.167 -48.5 60.5s-55.166 27.5 -98.499 27.5c-6 0 -17.167 -0.833008 -33.5 -2.5s-33.833 -6.5 -52.5 -14.5c-10.667 -5.33301 -21.334 -11.666 -32.001 -18.999s-20 -16.666 -28 -27.999h-93
l52 391h401v-84h-328l-30 -219c9.33301 8 18.833 14.833 28.5 20.5s19.5 10.5 29.5 14.5c19.333 8 38.5 13.333 57.5 16s36.5 4 52.5 4c74.667 0 132 -24 172 -72s60 -108 60 -180c0 -12.667 -0.666992 -26 -2 -40s-4 -28.333 -8 -43
c-11.333 -42 -35.833 -80.667 -73.5 -116s-98.5 -53 -182.5 -53c-65.333 0 -115.166 11.5 -149.499 34.5s-59.166 48.167 -74.499 75.5c-8.66699 17.333 -15 34 -19 50s-6.33301 29.333 -7 40v0z" />
    <glyph glyph-name="six" unicode="6" horiz-adv-x="616"
d="M558 579l-90.001 -0.00195312c-9.33301 32.667 -23.666 55.334 -42.999 68.001s-39.333 20.667 -60 24c-6.66699 0.666992 -13.167 1.16699 -19.5 1.5s-12.5 0.5 -18.5 0.5c-10 0 -21 -0.833008 -33 -2.5s-24 -4.83398 -36 -9.50098
c-27.333 -11.333 -52.5 -35.166 -75.5 -71.499s-35.833 -96.166 -38.5 -179.499h4c11.333 14.667 24.166 27 38.499 37s28.5 18 42.5 24c19.333 7.33301 38 12.166 56 14.499s33 3.5 45 3.5c74 0 132.167 -23.833 174.5 -71.5s63.5 -106.834 63.5 -177.501
c0 -69.333 -20.5 -128.666 -61.5 -177.999s-105.167 -74 -192.5 -74c-74.667 0 -137.667 23.667 -189 71s-77 148 -77 302c0 121.333 17.5 209.166 52.5 263.499s73.167 90.5 114.5 108.5c20.667 8 40.834 13.333 60.501 16s37.167 4 52.5 4c13.333 0 28 -0.833008 44 -2.5
s32.333 -5.16699 49 -10.5c28 -9.33301 54.833 -26.166 80.5 -50.499s44.5 -61.166 56.5 -110.499v0zM152.999 236.998c0 -9.33301 1.00293 -20.332 3.00293 -32.999s5.33301 -25.334 10 -38.001c9.33301 -24.667 25.666 -47.334 48.999 -68.001s57.666 -31 102.999 -31
c50 0 88.333 16.333 115 49s40 74.334 40 125.001c0 50 -14.167 90.5 -42.5 121.5s-66.5 46.5 -114.5 46.5c-50.667 0 -87.834 -12.667 -111.501 -38s-39.167 -53.333 -46.5 -84c-1.33301 -8.66699 -2.5 -17.167 -3.5 -25.5s-1.5 -16.5 -1.5 -24.5v0z" />
    <glyph glyph-name="seven" unicode="7" horiz-adv-x="616"
d="M37 658l-0.000976562 83.998h542v-68c-41.333 -45.333 -79.333 -95.333 -114 -150s-65.334 -115.667 -92.001 -183c-11.333 -28.667 -21.166 -55.5 -29.499 -80.5s-15.5 -49.5 -21.5 -73.5c-7.33301 -29.333 -13.333 -59 -18 -89s-8.66699 -62.667 -12 -98h-106
c4.66699 36.667 10.5 72.334 17.5 107.001s15.833 69 26.5 103c6 20 12.833 40.333 20.5 61s15.834 41.334 24.501 62.001c17.333 40 41 87 71 141s69.333 109 118 165c2.66699 3.33301 5.5 6.5 8.5 9.5s5.83301 6.16699 8.5 9.5h-444v0z" />
    <glyph glyph-name="eight" unicode="8" horiz-adv-x="617"
d="M309 -11c-89.333 0.666992 -152.833 22.998 -190.5 66.998s-57.5 92.333 -59.5 145v5v4c0 49.333 12.833 90.833 38.5 124.5s57.834 56.167 96.501 67.5c-31.333 11.333 -55.5 29.5 -72.5 54.5s-27.833 51.5 -32.5 79.5c-0.666992 4.66699 -1.16699 9.5 -1.5 14.5
s-0.5 9.83301 -0.5 14.5c0 6 0.333008 12.333 1 19s1.66699 13.334 3 20.001c7.33301 37.333 28 71.5 62 102.5s86 46.5 156 46.5c70.667 0 125.167 -17.667 163.5 -53s57.5 -80.333 57.5 -135v-4.5v-5.5c-1.33301 -31.333 -10.333 -61.166 -27 -89.499s-43 -49.5 -79 -63.5
c39.333 -11.333 71.5 -34 96.5 -68s37.5 -75.333 37.5 -124v-1.5v-1.5c-0.666992 -54.667 -19.334 -104.5 -56.001 -149.5s-101 -67.5 -193 -67.5v-1zM309 67.998c8 0 18.1689 0.832031 30.502 2.49902s24.833 5.16699 37.5 10.5c21.333 8.66699 40.833 23.167 58.5 43.5
s26.5 50.5 26.5 90.5c0 40.667 -12.333 75 -37 103s-63.334 42 -116.001 42s-91.5 -14.167 -116.5 -42.5s-37.5 -62.5 -37.5 -102.5c0 -39.333 8.83301 -69.166 26.5 -89.499s37.167 -34.833 58.5 -43.5c13.333 -5.33301 26.166 -9 38.499 -11s22.5 -3 30.5 -3v0z
M309.002 436.997c40 0 71.667 11.167 95 33.5s35 52.833 35 91.5c0 30.667 -7 53.667 -21 69s-29.333 26 -46 32c-13.333 4.66699 -25.833 7.5 -37.5 8.5s-20.167 1.5 -25.5 1.5c-4.66699 0 -13 -0.5 -25 -1.5s-25 -3.83301 -39 -8.5c-16.667 -6.66699 -32 -17.667 -46 -33
s-21 -38 -21 -68c0 -37.333 11.167 -67.5 33.5 -90.5s54.833 -34.5 97.5 -34.5v0z" />
    <glyph glyph-name="nine" unicode="9" horiz-adv-x="616"
d="M58 161l89.998 -0.000976562c6.66699 -27.333 22 -49.833 46 -67.5s55.333 -26.5 94 -26.5c44 0 84.5 17.5 121.5 52.5s57.833 105.5 62.5 211.5h-5c-14 -20 -31.667 -35.833 -53 -47.5s-43 -19.834 -65 -24.501c-11.333 -2.66699 -22.333 -4.5 -33 -5.5
s-21 -1.5 -31 -1.5c-73.333 0 -131.166 23.667 -173.499 71s-63.5 106.333 -63.5 177c0 67.333 13.5 118.333 40.5 153s56.5 59.334 88.5 74.001c26.667 12.667 52 20.167 76 22.5s40 3.5 48 3.5c12 0 24.333 -0.333008 37 -1s25.334 -2.33398 38.001 -5.00098
c48 -10 92 -39.5 132 -88.5s60 -142.167 60 -279.5c0 -123.333 -18 -212.166 -54 -266.499s-75.667 -89.833 -119 -106.5c-19.333 -7.33301 -38.333 -12.166 -57 -14.499s-35.667 -3.5 -51 -3.5h-6.5h-6.5c-46 2 -89.5 14.667 -130.5 38s-69.5 68.333 -85.5 135v0z
M461.998 502.999c0 50 -14.332 90.832 -42.999 122.499s-69 47.5 -121 47.5c-50.667 0 -89.167 -16 -115.5 -48s-39.5 -74 -39.5 -126c0 -48.667 14.167 -88.667 42.5 -120s66.5 -47 114.5 -47c55.333 0 96.166 16.833 122.499 50.5s39.5 73.834 39.5 120.501v0z" />
    <glyph glyph-name="colon" unicode=":" horiz-adv-x="329"
d="M112 0v116h105v-116h-105v0zM112 423v116h105v-116h-105v0z" />
    <glyph glyph-name="semicolon" unicode=";" horiz-adv-x="329"
d="M112 0l-0.000976562 116h105v-152c0 -6 -0.666992 -12.833 -2 -20.5s-3.66602 -15.5 -6.99902 -23.5c-6 -16 -16.5 -31 -31.5 -45s-36.5 -24.333 -64.5 -31v57c15.333 3.33301 28 11.5 38 24.5s15 27.167 15 42.5v32h-53v0zM111.999 423v116h105v-116h-105v0z" />
    <glyph glyph-name="less" unicode="&#x3c;" horiz-adv-x="700"
d="M64 396l509 294l38 -66l-452 -261l452 -261l-38 -66l-509 294v66v0z" />
    <glyph glyph-name="equal" unicode="=" horiz-adv-x="742"
d="M56 293h630v-56h-630v56v0zM56 505h630v-56h-630v56v0z" />
    <glyph glyph-name="greater" unicode="&#x3e;" horiz-adv-x="700"
d="M636 330l-509 -294l-38 66l452 261l-452 261l38 66l509 -294v-66v0z" />
    <glyph glyph-name="question" unicode="?" horiz-adv-x="581"
d="M233 0v116h105v-116h-105v0zM148 518l-91.998 0.000976562v7.5v7.5c0 6.66699 0.166992 13.667 0.5 21s1.16602 14.333 2.49902 21c5.33301 46.667 24.833 89.167 58.5 127.5s92.834 57.5 177.501 57.5c74 0 130.833 -17.833 170.5 -53.5s59.5 -81.834 59.5 -138.501
c0 -34 -6.33301 -63 -19 -87s-30.334 -47 -53.001 -69c-5.33301 -5.33301 -11.333 -10.833 -18 -16.5l-20 -17.5l-12.5 -10.5c-4.33301 -3.66699 -8.5 -7.5 -12.5 -11.5c-16.667 -14 -31.667 -30.5 -45 -49.5s-20 -42.167 -20 -69.5v-22h-77
c-0.666992 5.33301 -1 10.5 -1 15.5v14.5c0 40 7.16699 71.333 21.5 94s30.166 41.667 47.499 57c1.33301 1.33301 2.66602 2.5 3.99902 3.5s2.66602 2.16699 3.99902 3.5l12 10.5c4 3.66699 8.33301 7.16699 13 10.5c20.667 18 39.667 38 57 60s26 48.667 26 80
c0 4 -0.166992 7.83301 -0.5 11.5s-0.833008 7.16699 -1.5 10.5c-4.66699 24.667 -17.667 47.167 -39 67.5s-53.666 30.5 -96.999 30.5c-52.667 0 -89.167 -13.5 -109.5 -40.5s-32.166 -56.5 -35.499 -88.5c0 -4.66699 -0.166992 -9.16699 -0.5 -13.5s-0.5 -8.5 -0.5 -12.5
v-5v-6v0z" />
    <glyph glyph-name="at" unicode="@" horiz-adv-x="1052"
d="M721 -27l36.001 -65.002c-6.66699 -3.33301 -13 -6.66602 -19 -9.99902s-12.333 -6.66602 -19 -9.99902c-28.667 -14 -58.167 -24.333 -88.5 -31s-65.166 -10 -104.499 -10c-140.667 0 -252.834 42.667 -336.501 128s-125.5 196.333 -125.5 333
c0 123.333 41.667 231.166 125 323.499s195.666 138.5 336.999 138.5c146.667 0 255.667 -39.667 327 -119s114.333 -166.333 129 -261c2 -14 3.5 -27.833 4.5 -41.5s1.5 -27.167 1.5 -40.5c0 -68.667 -20.833 -128 -62.5 -178s-96.167 -75 -163.5 -75h-0.5h-0.5
c-5.33301 0 -12.666 0.333008 -21.999 1s-19 2.66699 -29 6c-10.667 4 -20.834 10 -30.501 18s-17.167 19.667 -22.5 35h-6c-8.66699 -16.667 -20.167 -29.667 -34.5 -39s-28.833 -16 -43.5 -20c-14 -4 -27.5 -6.33301 -40.5 -7s-24.167 -1 -33.5 -1
c-72.667 0 -126.667 23.5 -162 70.5s-53 105.167 -53 174.5s18.833 127.333 56.5 174s87.834 70 150.501 70c33.333 0 62.333 -5 87 -15s44.334 -28 59.001 -54h6l-6 23v29h99v-313c0 -28.667 3.83301 -47.5 11.5 -56.5s16.167 -14.167 25.5 -15.5h4.5h5.5
c43.333 0 75.166 17.667 95.499 53s30.5 75.333 30.5 120c0 126.667 -38 223.667 -114 291s-165.667 101 -269 101c-108.667 0 -199.834 -37.167 -273.501 -111.5s-110.5 -167.833 -110.5 -280.5c0 -124.667 38 -221 114 -289s166 -102 270 -102
c43.333 0 81 5.83301 113 17.5s59.333 24.834 82 39.501v-1zM633.001 290.998c0 43.333 -6.33496 76.335 -19.002 99.002s-26.667 39 -42 49c-13.333 8.66699 -25.666 13.667 -36.999 15s-18.666 2 -21.999 2c-34 0 -59.5 -8.83301 -76.5 -26.5
s-29.167 -36.834 -36.5 -57.501c-6 -17.333 -9.5 -33.833 -10.5 -49.5s-1.5 -26.167 -1.5 -31.5c0 -9.33301 0.5 -19.5 1.5 -30.5s3.16699 -22.167 6.5 -33.5c6 -24.667 17.833 -47.334 35.5 -68.001s44.5 -31 80.5 -31c40.667 0 71 15.333 91 46s30 69.667 30 117v0z" />
    <glyph glyph-name="A" unicode="A" horiz-adv-x="661"
d="M173 192l-70 -192h-107l281 742h107l281 -742h-107l-71 192h-314v0zM200 276h260l-130 365l-130 -365v0z" />
    <glyph glyph-name="B" unicode="B" horiz-adv-x="733"
d="M90 742l326 0.00195312c71.333 0 122.5 -13.167 153.5 -39.5s50.833 -55.5 59.5 -87.5c3.33301 -10.667 5.5 -21.334 6.5 -32.001s1.5 -20.667 1.5 -30c0 -44.667 -12.667 -80.5 -38 -107.5s-54 -44.167 -86 -51.5v-3l12 -2c4 -0.666992 8 -1.66699 12 -3
c33.333 -8.66699 64 -27 92 -55s42 -69.333 42 -124c0 -66.667 -17.667 -114.334 -53 -143.001s-74.333 -47 -117 -55c-17.333 -4 -34.333 -6.5 -51 -7.5s-32 -1.5 -46 -1.5h-314v742v0zM190 343.002l-0.000976562 -259.001h206h8.5h9.5c38 1.33301 73 10.333 105 27
s48 51.334 48 104.001c0 45.333 -14.167 78 -42.5 98s-71.166 30 -128.499 30h-206v0zM189.999 658.001l0.00195312 -231h200c52.667 0 89.167 10.5 109.5 31.5s31.833 44.167 34.5 69.5c0.666992 2.66699 1 5.16699 1 7.5v7.5c0 6.66699 -0.5 14.167 -1.5 22.5
s-3.5 17.166 -7.5 26.499c-6.66699 16.667 -19.834 31.834 -39.501 45.501s-50.834 20.5 -93.501 20.5h-203v0z" />
    <glyph glyph-name="C" unicode="C" horiz-adv-x="758"
d="M615 246l103.002 0.000976562c-1.33301 -14.667 -4.33301 -31.334 -9 -50.001s-11.667 -37.667 -21 -57c-18.667 -40 -50 -76.5 -94 -109.5s-108.333 -49.5 -193 -49.5c-10.667 0 -32.834 1.66699 -66.501 5s-69.167 14 -106.5 32
c-45.333 21.333 -86.666 58 -123.999 110s-56 129 -56 231c0 13.333 1.33301 39 4 77s12 78.333 28 121c20 52 54 99.5 102 142.5s120 64.5 216 64.5c91.333 0 158.833 -17.167 202.5 -51.5s73.167 -72.5 88.5 -114.5c5.33301 -14.667 9.33301 -29.167 12 -43.5
s4.66699 -27.833 6 -40.5h-102c-0.666992 8 -1.83398 16.333 -3.50098 25s-4.16699 17.334 -7.5 26.001c-10.667 28.667 -31 55 -61 79s-75 36 -135 36c-86.667 0 -149 -30 -187 -90s-57 -135.667 -57 -227c0 -76 20.667 -144.833 62 -206.5s104.333 -92.5 189 -92.5
c65.333 0 115.666 18.667 150.999 56s55 79.666 59 126.999v0z" />
    <glyph glyph-name="D" unicode="D" horiz-adv-x="762"
d="M90 742h273.001c131.333 0 221.5 -34.833 270.5 -104.5s75.833 -146.5 80.5 -230.5c0.666992 -5.33301 1 -10.833 1 -16.5v-17.5c0 -120.667 -24 -206.5 -72 -257.5s-101 -84.167 -159 -99.5c-28.667 -7.33301 -56.834 -11.833 -84.501 -13.5s-52.5 -2.5 -74.5 -2.5h-235
v742v0zM190.001 658v-573.999h139c102 0 174.167 25.167 216.5 75.5s63.5 120.833 63.5 211.5c0 98 -20 167.167 -60 207.5s-84 65.166 -132 74.499c-10 2 -20 3.33301 -30 4s-20 1 -30 1h-167v0z" />
    <glyph glyph-name="E" unicode="E" horiz-adv-x="649"
d="M190 425h389v-84h-389v-257h441v-84h-541v742h529v-84h-429v-233v0z" />
    <glyph glyph-name="F" unicode="F" horiz-adv-x="602"
d="M190 417h348v-84h-348v-333h-100v742h498v-84h-398v-241v0z" />
    <glyph glyph-name="G" unicode="G" horiz-adv-x="785"
d="M420 387l303 -0.000976562v-387h-77v120h-3c-22 -47.333 -55.333 -82.5 -100 -105.5s-93.667 -34.5 -147 -34.5c-98.667 0 -181.334 32.5 -248.001 97.5s-100 165.167 -100 300.5c0 117.333 30.167 211.333 90.5 282s150.833 106 271.5 106
c91.333 0 159.5 -20.167 204.5 -60.5s74.833 -84.5 89.5 -132.5c2.66699 -8.66699 4.83398 -17.167 6.50098 -25.5s2.83398 -16.5 3.50098 -24.5h-101c-0.666992 8.66699 -2.5 18.5 -5.5 29.5s-7.16699 22.5 -12.5 34.5c-12 24 -32.333 46 -61 66s-70.667 30 -126 30
c-70.667 0 -123.5 -16.833 -158.5 -50.5s-59.5 -70.5 -73.5 -110.5c-10 -30 -16.167 -58.667 -18.5 -86s-3.5 -47.666 -3.5 -60.999c0 -16.667 1.5 -37.167 4.5 -61.5s8.5 -49.5 16.5 -75.5c14.667 -43.333 39.667 -83.333 75 -120s87.666 -55 156.999 -55
c72 0 124.833 19.667 158.5 59s54.5 82.666 62.5 129.999c1.33301 8.66699 2.33301 17.334 3 26.001s1 17 1 25h-212v84v0z" />
    <glyph glyph-name="H" unicode="H" horiz-adv-x="753"
d="M190 349v-349h-100v742h100v-309h373v309h100v-742h-100v349h-373v0z" />
    <glyph glyph-name="I" unicode="I" horiz-adv-x="280"
d="M90 742h100v-742h-100v742v0z" />
    <glyph glyph-name="J" unicode="J" horiz-adv-x="551"
d="M24 246h100c0.666992 -62.667 10.5 -108.5 29.5 -137.5s51.833 -43.5 98.5 -43.5c44 0 75.5 13.333 94.5 40s28.5 74 28.5 142v495h100v-486c0 -116 -21.833 -190.667 -65.5 -224s-96.5 -50 -158.5 -50c-12 0 -27.167 0.833008 -45.5 2.5s-37.5 6.16699 -57.5 13.5
c-30.667 10.667 -59 31.667 -85 63s-39 80.333 -39 147v38v0z" />
    <glyph glyph-name="K" unicode="K" horiz-adv-x="707"
d="M190 374l367 368h134l-309 -305l329 -437h-132l-271 370l-118 -116v-254h-100v742h100v-368v0z" />
    <glyph glyph-name="L" unicode="L" horiz-adv-x="561"
d="M567 84v-84h-477v742h100v-658h377v0z" />
    <glyph glyph-name="M" unicode="M" horiz-adv-x="942"
d="M431 0l-241 623h-2l2 -28v-595h-100v742h149l232 -611l232 611h149v-742h-100v595l3 28h-3l-241 -623h-80v0z" />
    <glyph glyph-name="N" unicode="N" horiz-adv-x="785"
d="M190 588v-588h-100v742h110l395 -588v588h100v-742h-110l-395 588v0z" />
    <glyph glyph-name="O" unicode="O" horiz-adv-x="804"
d="M402 -22c-114.667 0.666992 -202.333 36.167 -263 106.5s-91 165.833 -91 286.5c0 119.333 30.833 214.666 92.5 285.999s148.834 107 261.501 107c113.333 0 200.666 -35.667 261.999 -107s92 -166.666 92 -285.999c0 -120.667 -30.5 -216.167 -91.5 -286.5
s-148.5 -105.5 -262.5 -105.5v-1zM402.001 62c84.667 0 147.166 28.832 187.499 86.499s60.5 131.834 60.5 222.501c0 97.333 -17.5 168 -52.5 212s-73.833 72.667 -116.5 86c-13.333 4 -26.833 6.83301 -40.5 8.5s-26.5 2.5 -38.5 2.5c-12.667 0 -29.167 -1.5 -49.5 -4.5
s-41.5 -9.83301 -63.5 -20.5c-34 -16 -65 -45.5 -93 -88.5s-42 -108.167 -42 -195.5c0 -8.66699 0.166992 -17.5 0.5 -26.5s0.833008 -17.833 1.5 -26.5c6 -64 26.833 -122.667 62.5 -176s96.834 -80 183.501 -80v0z" />
    <glyph glyph-name="P" unicode="P" horiz-adv-x="678"
d="M90 742l302.001 -0.000976562c83.333 0 146.166 -17.667 188.499 -53s63.5 -88.666 63.5 -159.999c0 -62.667 -18 -117.167 -54 -163.5s-105 -69.5 -207 -69.5h-193v-296h-100v742v0zM190.001 657.999v-277.999h182c66.667 0 111.667 14.167 135 42.5
s35 63.166 35 104.499c0 49.333 -15.333 83.5 -46 102.5s-72 28.5 -124 28.5h-182v0z" />
    <glyph glyph-name="Q" unicode="Q" horiz-adv-x="805"
d="M650 66l84.002 -93l-56 -51l-88 98c-30.667 -16 -61.334 -26.833 -92.001 -32.5s-62.334 -8.5 -95.001 -8.5c-97.333 0 -170.333 21 -219 63s-83 88.667 -103 140c-15.333 39.333 -24.666 76.666 -27.999 111.999s-5 61 -5 77c0 18.667 1 38.334 3 59.001
s5.33301 41.334 10 62.001c16 68 49.667 130.333 101 187s131.666 85 240.999 85c113.333 0 200.666 -35.5 261.999 -106.5s92 -166.5 92 -286.5c0 -26 -1.66699 -53.833 -5 -83.5s-10.666 -59.834 -21.999 -90.501c-8 -22.667 -18.5 -45 -31.5 -67
s-29.167 -43.333 -48.5 -64v0zM500.002 233l84.002 -93.999c4 4.66699 8.16699 10.167 12.5 16.5s9.16602 14.166 14.499 23.499c10 18.667 19.167 43.5 27.5 74.5s12.5 70.167 12.5 117.5c0 86 -13.833 150.5 -41.5 193.5s-58.167 72.833 -91.5 89.5
c-22.667 11.333 -44.5 18.5 -65.5 21.5s-37.5 4.5 -49.5 4.5s-24.5 -0.833008 -37.5 -2.5s-26.167 -4.5 -39.5 -8.5c-42.667 -12.667 -81.834 -41 -117.501 -85s-53.5 -115 -53.5 -213c0 -90 19.833 -164 59.5 -222s102.5 -87 188.5 -87c8 0 16.333 0.333008 25 1
s17.334 1.66699 26.001 3c13.333 2 26.166 5 38.499 9s23.5 9.33301 33.5 16l-83 92l57 50v0z" />
    <glyph glyph-name="R" unicode="R" horiz-adv-x="722"
d="M90 0v742.002h329c12.667 0 28.834 -0.666992 48.501 -2s40.167 -5 61.5 -11c33.333 -9.33301 64 -27.833 92 -55.5s42 -71.167 42 -130.5c0 -48 -12 -88.333 -36 -121s-54 -53.667 -90 -63v-3c51.333 -15.333 81.833 -41 91.5 -77s15.167 -76.667 16.5 -122
c0 -5.33301 0.166992 -10.333 0.5 -15s0.5 -9.33398 0.5 -14.001c0.666992 -32 2.16699 -55.833 4.5 -71.5s6.83301 -29.834 13.5 -42.501l4.5 -6.5l5.5 -7.5h-105c-1.33301 1.33301 -2.5 2.83301 -3.5 4.5s-1.83301 3.16699 -2.5 4.5c-8.66699 13.333 -14 28.333 -16 45
s-3.66699 41 -5 73v8.5v9.5c-1.33301 47.333 -8.33301 87.5 -21 120.5s-52.334 49.5 -119.001 49.5h-212v-315h-100v0zM190 658.002l0.000976562 -260h222c42.667 0 74.5 8.33301 95.5 25s35.5 35.334 43.5 56.001c3.33301 9.33301 5.66602 18.666 6.99902 27.999
s2 17.666 2 24.999c0 46.667 -14 79.334 -42 98.001s-68.333 28 -121 28h-207v0z" />
    <glyph glyph-name="S" unicode="S" horiz-adv-x="696"
d="M48 235l101.997 0.00390625c0 -43.333 16.333 -82.5 49 -117.5s86 -52.5 160 -52.5c53.333 0 92.833 8.16699 118.5 24.5s43.167 34.5 52.5 54.5c4.66699 10 7.83398 19.833 9.50098 29.5s2.5 18.167 2.5 25.5c0 35.333 -10.333 61.666 -31 78.999s-43.667 30.333 -69 39
c-8.66699 2.66699 -17.167 5 -25.5 7l-24.5 6l-20 4l-20 4c-2.66699 0.666992 -5.16699 1.33398 -7.5 2.00098s-4.83301 1 -7.5 1c-66.667 13.333 -127.167 32.166 -181.5 56.499s-81.5 75.5 -81.5 153.5c0 53.333 20.333 102.333 61 147s113.667 67 219 67
c89.333 0 154.333 -19.833 195 -59.5s65 -83.5 73 -131.5l2 -12.5c0.666992 -4.33301 1 -8.5 1 -12.5h-96c-0.666992 6 -1.5 12 -2.5 18s-2.83301 12.333 -5.5 19c-8 23.333 -24.667 45 -50 65s-65.333 30 -120 30c-57.333 0 -100.833 -12.167 -130.5 -36.5
s-44.5 -53.833 -44.5 -88.5c0 -42.667 17.5 -71.334 52.5 -86.001s73.833 -26 116.5 -34c0.666992 -0.666992 1.5 -1 2.5 -1h2.5c2 -0.666992 4.16699 -1.16699 6.5 -1.5s4.5 -0.833008 6.5 -1.5c14.667 -2.66699 30 -5.66699 46 -9s32 -7 48 -11
c48 -12.667 91.833 -33.834 131.5 -63.501s59.5 -78.834 59.5 -147.501c0 -12 -1.16699 -25.667 -3.5 -41s-6.83301 -31 -13.5 -47c-14.667 -33.333 -42.5 -63.5 -83.5 -90.5s-105.5 -40.5 -193.5 -40.5c-16 0 -36.167 1 -60.5 3s-49.5 7 -75.5 15
c-41.333 12 -79.166 35.5 -113.499 70.5s-53.166 89.833 -56.499 164.5v0z" />
    <glyph glyph-name="T" unicode="T" horiz-adv-x="610"
d="M255 658h-241v84h582v-84h-241v-658h-100v658v0z" />
    <glyph glyph-name="U" unicode="U" horiz-adv-x="738"
d="M76 742l99.999 -0.000976562v-442v-1.5v-0.5c0 -12.667 0.333008 -27.167 1 -43.5s2.66699 -33.166 6 -50.499c7.33301 -34 24 -65.167 50 -93.5s71.333 -42.5 136 -42.5c77.333 0 128.833 21.5 154.5 64.5s38.5 98.833 38.5 167.5v442h100v-455
c0 -122.667 -29.833 -203.667 -89.5 -243s-127.5 -59 -203.5 -59c-95.333 0 -163 18.833 -203 56.5s-66 79.167 -78 124.5c-5.33301 22 -8.66602 43.5 -9.99902 64.5s-2 39.833 -2 56.5v455v0z" />
    <glyph glyph-name="V" unicode="V" horiz-adv-x="630"
d="M315 103l210 639h109l-259 -742h-120l-259 742h109l210 -639v0z" />
    <glyph glyph-name="W" unicode="W" horiz-adv-x="947"
d="M474 624l-154 -624h-127l-197 742h112l155 -623l154 623h114l154 -623l154 623h112l-196 -742h-127l-154 624v0z" />
    <glyph glyph-name="X" unicode="X" horiz-adv-x="643"
d="M323 308l-195 -308h-128l260 380l-246 362h124l186 -291l189 291h115l-244 -360l259 -382h-126l-194 308v0z" />
    <glyph glyph-name="Y" unicode="Y" horiz-adv-x="642"
d="M321 399l206 343h119l-275 -433v-309h-100v309l-275 433h119l206 -343v0z" />
    <glyph glyph-name="Z" unicode="Z" horiz-adv-x="629"
d="M458 658h-407v84h529v-80l-436 -578h457v-84h-573v91l430 567v0z" />
    <glyph glyph-name="bracketleft" unicode="[" horiz-adv-x="392"
d="M112 742h224v-66h-130v-806h130v-66h-224v938v0z" />
    <glyph glyph-name="backslash" unicode="\" horiz-adv-x="701"
d="M99 761l63 32l440 -821l-63 -32l-440 821v0z" />
    <glyph glyph-name="bracketright" unicode="]" horiz-adv-x="392"
d="M56 742h224v-938h-224v66h130v806h-130v66v0z" />
    <glyph glyph-name="asciicircum" unicode="^" horiz-adv-x="527"
d="M165 742h196l107 -146h-78l-127 109l-126 -109h-78l106 146v0z" />
    <glyph glyph-name="underscore" unicode="_" horiz-adv-x="527"
d="M0 -196v84h527v-84h-527v0z" />
    <glyph glyph-name="grave" unicode="`" horiz-adv-x="331"
d="M156 742l75 -140h-84l-103 140h112v0z" />
    <glyph glyph-name="a" unicode="a" horiz-adv-x="586"
d="M147 380l-89.002 -0.000976562c0 9.33301 1 20 3 32s5.66699 24 11 36c10.667 26.667 32 50.834 64 72.501s82.333 32.5 151 32.5c67.333 0 116 -11 146 -33s49.333 -46 58 -72c4.66699 -12.667 7.5 -25 8.5 -37s1.5 -23 1.5 -33l-5 -249v-6v-6
c0 -12.667 2.33301 -24.167 7 -34.5s16 -15.166 34 -14.499h7c2.66699 0 5.33398 0.333008 8.00098 1v-69c-8.66699 -0.666992 -16.5 -1.33398 -23.5 -2.00098s-13.167 -1 -18.5 -1c-28 0 -50 5 -66 15s-26.333 30.667 -31 62c-18.667 -30.667 -44.5 -53 -77.5 -67
s-68.5 -21 -106.5 -21c-61.333 0 -108.333 13.167 -141 39.5s-49 64.833 -49 115.5c0 61.333 23.667 103.166 71 125.499s111.666 37.5 192.999 45.5c5.33301 0.666992 10.5 1.16699 15.5 1.5s9.83301 0.833008 14.5 1.5c24.667 1.33301 43.334 5.5 56.001 12.5
s19 26.5 19 58.5c0 35.333 -11 61.166 -33 77.499s-51.333 24.5 -88 24.5c-40 0 -69.667 -6 -89 -18s-32.666 -25 -39.999 -39c-4.66699 -9.33301 -7.66699 -18.166 -9 -26.499s-2 -15.166 -2 -20.499v-2v-2v0zM405.998 229.999l2.00195 46.001
c-5.33301 -5.33301 -11.833 -9.33301 -19.5 -12s-20.167 -5 -37.5 -7c-2 -0.666992 -4.16699 -1.16699 -6.5 -1.5s-4.83301 -0.5 -7.5 -0.5c-4 -0.666992 -8 -1.16699 -12 -1.5s-7.66699 -0.833008 -11 -1.5c-53.333 -5.33301 -96.833 -14 -130.5 -26
s-50.5 -39.333 -50.5 -82c0 -4.66699 0.5 -10 1.5 -16s2.5 -12 4.5 -18c5.33301 -14.667 15.666 -28.167 30.999 -40.5s38.666 -18.5 69.999 -18.5c8.66699 0 17.667 0.666992 27 2s19 3.33301 29 6c26 8 50.167 24.667 72.5 50s34.833 65.666 37.5 120.999v0z" />
    <glyph glyph-name="b" unicode="b" horiz-adv-x="634"
d="M76 742l93.998 0.000976562v-273c19.333 32 44 54.833 74 68.5s64.333 20.5 103 20.5c64.667 0 113.5 -15.333 146.5 -46s56.5 -64.334 70.5 -101.001c12 -30.667 19 -59.5 21 -86.5s3 -45.167 3 -54.5c0 -103.333 -23.667 -176.833 -71 -220.5
s-99.666 -67.167 -156.999 -70.5h-8h-8c-34.667 0 -67.167 7.5 -97.5 22.5s-57.166 39.167 -80.499 72.5h-2l1 -74h-89v742v0zM162.998 272.001c0 -73.333 12.8311 -126.501 38.498 -159.501s53.834 -53.5 84.501 -61.5c6 -2 12.333 -3.33301 19 -4s13 -1 19 -1
c9.33301 0 19.833 0.833008 31.5 2.5s23.834 5.5 36.501 11.5c24.667 10.667 47.167 31.667 67.5 63s30.5 80.333 30.5 147c0 80.667 -15.5 137.167 -46.5 169.5s-65.167 49.833 -102.5 52.5h-5.5h-5.5h-6.5h-6.5c-38.667 -3.33301 -74 -21.166 -106 -53.499
s-48 -87.833 -48 -166.5v0z" />
    <glyph glyph-name="c" unicode="c" horiz-adv-x="582"
d="M454 192l90.0029 0.00195312c-1.33301 -10.667 -3.33301 -22 -6 -34s-6.33398 -24.333 -11.001 -37c-12.667 -34.667 -35.667 -66.5 -69 -95.5s-83.333 -43.5 -150 -43.5c-95.333 0 -161.833 27.333 -199.5 82s-58.167 115 -61.5 181c-0.666992 5.33301 -1 10.333 -1 15
v14c0 12.667 1.16699 31.5 3.5 56.5s8.5 51.167 18.5 78.5c14 37.333 38.833 71.5 74.5 102.5s89.167 46.5 160.5 46.5c76.667 0 133 -18.5 169 -55.5s57.333 -77.5 64 -121.5c0 -2 0.166992 -3.83301 0.5 -5.5s0.5 -3.5 0.5 -5.5h-88
c-0.666992 6.66699 -2.33398 14.834 -5.00098 24.501s-7 19.5 -13 29.5c-8.66699 17.333 -23 33.166 -43 47.499s-48 21.5 -84 21.5c-48.667 0 -84.167 -14 -106.5 -42s-37.166 -58.667 -44.499 -92c-4 -15.333 -6.5 -30.333 -7.5 -45s-1.5 -28 -1.5 -40
c0 -66.667 14.167 -121.167 42.5 -163.5s69.833 -63.5 124.5 -63.5c34.667 0 61.667 7.66699 81 23s33.666 32.333 42.999 51c7.33301 15.333 12.166 29.666 14.499 42.999s3.83301 22.666 4.5 27.999v0z" />
    <glyph glyph-name="d" unicode="d" horiz-adv-x="633"
d="M464 742l92.998 -0.000976562v-742h-88l1 74h-3c-1.33301 -3.33301 -3.16602 -6.83301 -5.49902 -10.5l-6.5 -10.5c-13.333 -18.667 -33 -35.667 -59 -51s-61.667 -23 -107 -23c-85.333 0 -147.166 28.833 -185.499 86.5s-57.5 125.834 -57.5 204.501
c0 84 19.5 153 58.5 207s99.833 81 182.5 81c38.667 0 73.167 -6.83301 103.5 -20.5s54.833 -36.5 73.5 -68.5v273v0zM143.998 269.999c0 -76 13.833 -130.167 41.5 -162.5s57.834 -51.833 90.501 -58.5c6 -1.33301 11.667 -2.16602 17 -2.49902s10.666 -0.5 15.999 -0.5
c46 0 84.333 18.5 115 55.5s46 93.833 46 170.5c0 81.333 -16.667 138 -50 170s-70 48.667 -110 50h-3.5h-2.5c-40.667 0 -77.5 -15.833 -110.5 -47.5s-49.5 -89.834 -49.5 -174.501v0z" />
    <glyph glyph-name="e" unicode="e" horiz-adv-x="609"
d="M463 156l93 0.000976562c0 -1.33301 -0.166992 -2.66602 -0.5 -3.99902s-0.833008 -2.66602 -1.5 -3.99902c-8.66699 -41.333 -31.5 -79 -68.5 -113s-92.5 -51 -166.5 -51c-10.667 0 -28.334 1.16699 -53.001 3.5s-51 9.16602 -79 20.499
c-35.333 15.333 -67.666 42.666 -96.999 81.999s-44 98.333 -44 177c0 84 15.5 146 46.5 186s65.167 67.667 102.5 83c21.333 8 42.166 13.333 62.499 16s37.5 4 51.5 4c79.333 0 137 -18.833 173 -56.5s59.333 -79.167 70 -124.5c4 -16.667 6.83301 -33.167 8.5 -49.5
s2.5 -31.833 2.5 -46.5v-16c0 -5.33301 -0.333008 -10.333 -1 -15h-417c0.666992 -10.667 1.83398 -22.834 3.50098 -36.501s4.5 -27.5 8.5 -41.5c9.33301 -30 26 -57.667 50 -83s60.333 -38 109 -38c39.333 0 72.5 10.167 99.5 30.5s42.833 45.833 47.5 76.5v0z
M146 314.001h316.998c0 10 -0.833008 21.167 -2.5 33.5s-4.5 24.833 -8.5 37.5c-7.33301 26.667 -21.5 51 -42.5 73s-53.5 33 -97.5 33c-52.667 0 -91.667 -14.667 -117 -44s-40.666 -61.333 -45.999 -96c-1.33301 -6.66699 -2.16602 -13 -2.49902 -19s-0.5 -12 -0.5 -18v0z
" />
    <glyph glyph-name="f" unicode="f" horiz-adv-x="338"
d="M324 539l-0.00292969 -66.0029h-118v-473h-93v473h-99v66h99v73c0 46 11.833 79.833 35.5 101.5s59.167 32.5 106.5 32.5c4 0 8.33301 -0.166992 13 -0.5s9.33398 -0.5 14.001 -0.5c3.33301 0 6.5 -0.166992 9.5 -0.5s5.83301 -0.5 8.5 -0.5
c5.33301 -0.666992 10 -1.16699 14 -1.5s7.33301 -0.5 10 -0.5v-69c-12.667 2 -23.167 3.16699 -31.5 3.5s-15.166 0.5 -20.499 0.5h-8h-5c-15.333 0 -26.666 -4.16699 -33.999 -12.5s-12.333 -17.166 -15 -26.499c-2 -7.33301 -3.16699 -14.166 -3.5 -20.499
s-0.5 -11.166 -0.5 -14.499v-64h118v0z" />
    <glyph glyph-name="g" unicode="g" horiz-adv-x="636"
d="M87 -60l91.999 -0.000976562c0.666992 -2.66699 2.5 -7.5 5.5 -14.5s8.16699 -14.5 15.5 -22.5c9.33301 -10 23.166 -19.333 41.499 -28s43.833 -13 76.5 -13c44 0 76.333 10 97 30s34.334 42 41.001 66c4.66699 13.333 7.5 26.333 8.5 39s1.5 23.667 1.5 33v58
c-2.66699 -3.33301 -5.33398 -7 -8.00098 -11s-5.66699 -8 -9 -12c-14.667 -15.333 -34.334 -29.666 -59.001 -42.999s-57 -20 -97 -20c-5.33301 0 -10.666 0.166992 -15.999 0.5s-10.666 0.833008 -15.999 1.5c-52.667 6 -101 29.333 -145 70s-66 107.334 -66 200.001
c0 77.333 17.667 144 53 200s95.333 84 180 84c53.333 0 94.5 -9.83301 123.5 -29.5s49.833 -41.167 62.5 -64.5h3l-2 75h90v-525c0 -10.667 -0.666992 -22 -2 -34s-4 -24.333 -8 -37c-10 -36.667 -32.167 -70.334 -66.5 -101.001s-89.5 -46 -165.5 -46
c-80 0 -136.667 14.833 -170 44.5s-53.666 63.167 -60.999 100.5v-1zM313.999 67.999c4.66699 0 9.50293 0.166992 14.5029 0.5s9.83301 0.833008 14.5 1.5c31.333 4.66699 60.166 21.5 86.499 50.5s39.5 80.833 39.5 155.5c0 83.333 -17 139.833 -51 169.5
s-71.667 44.5 -113 44.5c-46.667 0 -84.5 -17.667 -113.5 -53s-43.5 -88.666 -43.5 -159.999c0 -62.667 10.5 -108.667 31.5 -138s44.167 -49 69.5 -59c11.333 -4.66699 22.666 -7.83398 33.999 -9.50098s21.666 -2.5 30.999 -2.5v0z" />
    <glyph glyph-name="h" unicode="h" horiz-adv-x="607"
d="M76 742h93.999v-279c19.333 26 43.833 47.667 73.5 65s66.5 26 110.5 26c55.333 0 95.166 -12 119.499 -36s40.5 -50.667 48.5 -80c4 -14.667 6.5 -29 7.5 -43s1.5 -26.333 1.5 -37v-358h-94v330v0.5v0.5c0 8.66699 -0.166992 17.834 -0.5 27.501
s-1.16602 19.5 -2.49902 29.5c-3.33301 23.333 -12.666 44.666 -27.999 63.999s-42.666 29 -81.999 29c-8 0 -16.833 -0.666992 -26.5 -2s-19.167 -3.33301 -28.5 -6c-24.667 -8.66699 -47.334 -26 -68.001 -52s-31 -68.333 -31 -127v-294h-94v742v0z" />
    <glyph glyph-name="i" unicode="i" horiz-adv-x="242"
d="M74 539h94v-539h-94v539v0zM74 644v98h94v-98h-94v0z" />
    <glyph glyph-name="j" unicode="j" horiz-adv-x="248"
d="M77 539h94.002v-589c0 -50.667 -9.83301 -88.167 -29.5 -112.5s-52.5 -36.5 -98.5 -36.5c-1.33301 0 -6.83301 0.166992 -16.5 0.5s-23.834 1.5 -42.501 3.5l-1 68h11h9c28.667 0 47.667 6.66699 57 20s14.666 28.333 15.999 45c0.666992 4 1 8.16699 1 12.5v12.5v576v0z
M73.002 644v98h101v-98h-101v0z" />
    <glyph glyph-name="k" unicode="k" horiz-adv-x="555"
d="M170 282l256 257h111l-212 -208l234 -331h-109l-189 273l-91 -90v-183h-94v742h94v-460v0z" />
    <glyph glyph-name="l" unicode="l" horiz-adv-x="246"
d="M76 742h94v-742h-94v742v0z" />
    <glyph glyph-name="m" unicode="m" horiz-adv-x="924"
d="M76 539l88.998 0.00195312l-1 -82h3c16 27.333 38.333 49.833 67 67.5s62.334 26.5 101.001 26.5c36 0 64.333 -6.33301 85 -19s36.334 -26.667 47.001 -42c6 -8.66699 10.667 -17 14 -25s6 -15 8 -21c21.333 37.333 47.333 64.5 78 81.5s66.667 25.5 108 25.5
c50.667 0 88 -11.333 112 -34s40.333 -47.334 49 -74.001c6 -18.667 9.5 -36.834 10.5 -54.501s1.5 -31.167 1.5 -40.5v-348h-94v341c0 8 -0.333008 17 -1 27s-2 20.333 -4 31c-4.66699 20.667 -14.167 39.667 -28.5 57s-37.5 26 -69.5 26c-7.33301 0 -15.333 -0.5 -24 -1.5
s-17.334 -2.83301 -26.001 -5.5c-23.333 -7.33301 -44.5 -22.333 -63.5 -45s-28.5 -59 -28.5 -109v-321h-94v340c0 41.333 -7.33301 75.5 -22 102.5s-41.667 40.5 -81 40.5c-5.33301 0 -10.666 -0.333008 -15.999 -1s-11 -1.66699 -17 -3
c-27.333 -6.66699 -52.333 -22.667 -75 -48s-34 -62 -34 -110v-321h-94v539v0z" />
    <glyph glyph-name="n" unicode="n" horiz-adv-x="607"
d="M76 539h92.999l-2 -76h3c19.333 26 43.833 47.667 73.5 65s66.5 26 110.5 26c55.333 0 95.166 -12 119.499 -36s40.5 -50.667 48.5 -80c4 -14.667 6.5 -29 7.5 -43s1.5 -26.333 1.5 -37v-358h-94v330v0.5v0.5c0 8.66699 -0.166992 17.834 -0.5 27.501
s-1.16602 19.5 -2.49902 29.5c-3.33301 23.333 -12.666 44.666 -27.999 63.999s-42.666 29 -81.999 29c-8 0 -16.833 -0.666992 -26.5 -2s-19.167 -3.33301 -28.5 -6c-24.667 -8.66699 -47.334 -26 -68.001 -52s-31 -68.333 -31 -127v-294h-94v539v0z" />
    <glyph glyph-name="o" unicode="o" horiz-adv-x="620"
d="M46 270c0 91.333 23.333 162.666 70 213.999s111.334 77 194.001 77s147.334 -25.667 194.001 -77s70 -122.666 70 -213.999c0 -90.667 -23.333 -161.667 -70 -213s-111.334 -77 -194.001 -77s-147.334 25.667 -194.001 77s-70 122.333 -70 213v0zM144 270
c0 -7.33301 0.166992 -15 0.5 -23s0.833008 -16 1.5 -24c4.66699 -44 18.834 -84.5 42.501 -121.5s64.167 -55.5 121.5 -55.5c58 0 98.667 18.5 122 55.5s37.333 77.5 42 121.5c0.666992 8 1.16699 16 1.5 24s0.5 15.667 0.5 23s-0.166992 15 -0.5 23s-0.833008 16 -1.5 24
c-4.66699 44 -18.667 84.5 -42 121.5s-64 55.5 -122 55.5c-57.333 0 -97.833 -18.5 -121.5 -55.5s-37.834 -77.5 -42.501 -121.5c-0.666992 -8 -1.16699 -16 -1.5 -24s-0.5 -15.667 -0.5 -23v0z" />
    <glyph glyph-name="p" unicode="p" horiz-adv-x="633"
d="M76 539l88.999 0.000976562l-1 -74h2c23.333 33.333 50.166 57.666 80.499 72.999s62.833 23 97.5 23c74 0 133 -25.5 177 -76.5s66 -122.833 66 -215.5c0 -96 -22.667 -167.833 -68 -215.5s-102.666 -71.5 -171.999 -71.5c-43.333 0 -79.666 8.83301 -108.999 26.5
s-52 40.5 -68 68.5v-273h-94v735v0zM162.999 267.001c0 -63.333 11.166 -110.834 33.499 -142.501s46.833 -53.167 73.5 -64.5c10.667 -4.66699 21.167 -8 31.5 -10s19.833 -3 28.5 -3c7.33301 0 14.833 0.5 22.5 1.5s15.167 2.83301 22.5 5.5
c28.667 8.66699 54.834 28.834 78.501 60.501s35.5 83.167 35.5 154.5c0 74.667 -15.5 130.667 -46.5 168s-70.5 56 -118.5 56c-6 0 -12 -0.333008 -18 -1s-12 -1.66699 -18 -3c-31.333 -7.33301 -60 -27.5 -86 -60.5s-39 -86.833 -39 -161.5v0z" />
    <glyph glyph-name="q" unicode="q" horiz-adv-x="633"
d="M468 539h89v-735h-94v272c-13.333 -22.667 -28.5 -40.5 -45.5 -53.5s-34.167 -22.167 -51.5 -27.5c-14 -5.33301 -27.833 -8.83301 -41.5 -10.5s-26.5 -2.5 -38.5 -2.5c-82 0 -142.5 27.667 -181.5 83s-58.5 123.333 -58.5 204c0 92.667 22 164.5 66 215.5
s103 76.5 177 76.5c37.333 0 70.5 -7.5 99.5 -22.5s55.167 -39.5 78.5 -73.5h3l-2 74v0zM144 269c0 -72 12.001 -123.832 36.001 -155.499s50.667 -51.834 80 -60.501c7.33301 -2 14.666 -3.5 21.999 -4.5s14.666 -1.5 21.999 -1.5c8.66699 0 18 0.833008 28 2.5
s20 4.5 30 8.5c26.667 11.333 51.334 33 74.001 65s34 80 34 144c0 77.333 -15.5 134.333 -46.5 171s-69.167 55 -114.5 55c-48 0 -87.5 -18.5 -118.5 -55.5s-46.5 -93.167 -46.5 -168.5v0z" />
    <glyph glyph-name="r" unicode="r" horiz-adv-x="391"
d="M377 546l0.000976562 -80.001c-5.33301 1.33301 -11 2 -17 2h-19c-5.33301 0 -10.833 -0.166992 -16.5 -0.5s-11.167 -1.16602 -16.5 -2.49902c-34.667 -5.33301 -66.334 -23.333 -95.001 -54s-43 -85 -43 -163v-248h-94v539h89l-1 -104h3
c17.333 35.333 42.333 62.5 75 81.5s66.667 28.833 102 29.5h3.5h2.5h27v0z" />
    <glyph glyph-name="s" unicode="s" horiz-adv-x="536"
d="M38 160l92.9971 -0.00292969c2.66699 -30.667 15.667 -56.667 39 -78s59.333 -32 108 -32c43.333 0 74.833 9.33301 94.5 28s29.5 41.334 29.5 68.001c0 29.333 -11.167 50 -33.5 62s-49.166 21.333 -80.499 28c-5.33301 1.33301 -10.666 2.5 -15.999 3.5
s-10.666 2.16699 -15.999 3.5h-2c-0.666992 0 -1.33398 0.333008 -2.00098 1c-48.667 9.33301 -93 23.333 -133 42s-60 58.334 -60 119.001c0 46.667 15 80.834 45 102.501s63 35.834 99 42.501c10.667 2 21.334 3.33301 32.001 4s21 1 31 1c72 0 123 -13 153 -39
s49 -54.333 57 -85c1.33301 -6 2.33301 -11.833 3 -17.5l2 -16.5h-86c-0.666992 4.66699 -1.66699 10.667 -3 18s-4.33301 14.666 -9 21.999c-6.66699 13.333 -18.667 25.333 -36 36s-43.333 16 -78 16c-3.33301 0 -10.666 -0.333008 -21.999 -1s-23.333 -3 -36 -7
c-14.667 -4.66699 -28.167 -12.5 -40.5 -23.5s-18.5 -27.167 -18.5 -48.5c0 -33.333 11.833 -55.666 35.5 -66.999s52.5 -20.333 86.5 -27c4.66699 -0.666992 9.5 -1.5 14.5 -2.5s10.167 -2.16699 15.5 -3.5c60 -12.667 107.333 -28.834 142 -48.501s52 -55.5 52 -107.5
s-19.333 -92.833 -58 -122.5s-93 -44.5 -163 -44.5c-72.667 0 -130.334 16 -173.001 48s-64.667 74 -66 126v0z" />
    <glyph glyph-name="t" unicode="t" horiz-adv-x="339"
d="M14 539l94.998 -0.000976562v159h94v-159h115v-66h-115v-343c0 -20.667 2.5 -38.167 7.5 -52.5s21.5 -21.5 49.5 -21.5c9.33301 0 18.5 1.16699 27.5 3.5s17.167 4.83301 24.5 7.5c0.666992 0 1.66699 0.166992 3 0.5s2.33301 0.833008 3 1.5v-69
c-2 0 -5.16699 -0.666992 -9.5 -2s-9.5 -2.66602 -15.5 -3.99902c-9.33301 -2 -20.166 -3.83301 -32.499 -5.5s-25.5 -2.5 -39.5 -2.5c-39.333 0 -66.5 7.83301 -81.5 23.5s-24.167 33.167 -27.5 52.5c-1.33301 8 -2.16602 16 -2.49902 24s-0.5 15.333 -0.5 22v1.5v1.5v362
h-95v66v0z" />
    <glyph glyph-name="u" unicode="u" horiz-adv-x="607"
d="M531 0l-92 0.000976562l1 76h-3c-14.667 -21.333 -31.334 -38.333 -50.001 -51s-37.667 -21.667 -57 -27c-13.333 -4.66699 -26.5 -7.83398 -39.5 -9.50098s-25.5 -2.5 -37.5 -2.5c-55.333 0 -95.166 11.833 -119.499 35.5s-40.5 50.167 -48.5 79.5
c-4 14.667 -6.5 29 -7.5 43s-1.5 26.333 -1.5 37v358h94v-330c0 -49.333 7.83301 -86.833 23.5 -112.5s45.5 -38.5 89.5 -38.5c46.667 0 80.667 11 102 33s35.333 46 42 72c4.66699 15.333 7.5 30.333 8.5 45s1.5 27 1.5 37v294h94v-539v0z" />
    <glyph glyph-name="v" unicode="v" horiz-adv-x="500"
d="M252 93l152 446h100l-201 -539h-105l-202 539h100l156 -446v0z" />
    <glyph glyph-name="w" unicode="w" horiz-adv-x="764"
d="M383 431l-113 -431h-99l-175 539h96l132 -432l113 432h90l113 -432l131 432h97l-174 -539h-98l-113 431v0z" />
    <glyph glyph-name="x" unicode="x" horiz-adv-x="513"
d="M256 339l138 200h104l-189 -258l204 -281h-105l-152 222l-152 -222h-104l203 281l-191 258h108l136 -200v0z" />
    <glyph glyph-name="y" unicode="y" horiz-adv-x="527"
d="M96 -195l0.00195312 68.999c14.667 -1.33301 25.334 -2.33301 32.001 -3s11.667 -1 15 -1c27.333 0 46.166 8.66699 56.499 26s19.166 37 26.499 59l1.5 3c0.333008 0.666992 0.5 1.66699 0.5 3l13 39l-234 539h112l172 -436l144 436h92l-213 -603
c-1.33301 -2.66699 -2.5 -5.66699 -3.5 -9s-2.16699 -6.66602 -3.5 -9.99902c-15.333 -39.333 -32.333 -68.5 -51 -87.5s-46.334 -28.5 -83.001 -28.5c-14 0 -27.667 0.333008 -41 1s-25.333 2 -36 4v-1z" />
    <glyph glyph-name="z" unicode="z" horiz-adv-x="496"
d="M50 539h403v-69l-313 -404h328v-66h-440v66l322 407h-300v66v0z" />
    <glyph glyph-name="braceleft" unicode="{" horiz-adv-x="527"
d="M154 278l0.000976562 70c2 0 3.83301 0.166992 5.5 0.5s3.16699 0.5 4.5 0.5c21.333 4 40.666 16 57.999 36s26 55.333 26 106v14.5c0 5 -0.333008 9.83301 -1 14.5c0 4.66699 -0.166992 9.5 -0.5 14.5s-0.5 9.83301 -0.5 14.5s-0.166992 9.33398 -0.5 14.001
s-0.5 9.33398 -0.5 14.001c-0.666992 4.66699 -1 9.33398 -1 14.001v14c0 9.33301 0.666992 21.333 2 36s5 29.667 11 45c8.66699 23.333 24.5 44.833 47.5 64.5s57.833 30.5 104.5 32.5v-56c-19.333 -4.66699 -34.166 -12 -44.499 -22s-17.5 -20.667 -21.5 -32
c-4 -8.66699 -6.33301 -17.334 -7 -26.001s-1 -15.667 -1 -21c0 -4.66699 0.166992 -9.33398 0.5 -14.001s0.5 -9.33398 0.5 -14.001c0 -1.33301 0.166992 -2.83301 0.5 -4.5s0.5 -3.16699 0.5 -4.5c0 -3.33301 0.166992 -6.5 0.5 -9.5s0.5 -6.16699 0.5 -9.5
c0.666992 -4.66699 1.16699 -9.66699 1.5 -15s0.5 -10.333 0.5 -15c0.666992 -5.33301 1 -10.5 1 -15.5v-15.5c0 -44.667 -8.83301 -82.5 -26.5 -113.5s-49.5 -57.167 -95.5 -78.5v-8c46 -20.667 77.833 -46.5 95.5 -77.5s26.5 -69.167 26.5 -114.5v-15
c0 -5.33301 -0.333008 -10.333 -1 -15c0 -5.33301 -0.166992 -10.5 -0.5 -15.5s-0.833008 -10.167 -1.5 -15.5c0 -3.33301 -0.166992 -6.5 -0.5 -9.5s-0.5 -6.16699 -0.5 -9.5c0 -1.33301 -0.166992 -2.83301 -0.5 -4.5s-0.5 -3.16699 -0.5 -4.5
c0 -4.66699 -0.166992 -9.33398 -0.5 -14.001s-0.5 -9.33398 -0.5 -14.001s0.333008 -11.334 1 -20.001s3 -17.334 7 -26.001c4 -11.333 11.167 -22 21.5 -32s25.166 -17.333 44.499 -22v-57c-48 2.66699 -83.333 14 -106 34s-38.334 41.667 -47.001 65
c-5.33301 15.333 -8.66602 30 -9.99902 44s-2 25.667 -2 35v14c0 4.66699 0.333008 9.33398 1 14.001c0 4.66699 0.166992 9.33398 0.5 14.001s0.5 9.33398 0.5 14.001s0.166992 9.5 0.5 14.5s0.5 9.83301 0.5 14.5c0.666992 4.66699 1 9.5 1 14.5v14.5
c0 40 -5.83301 70 -17.5 90s-24.167 33.667 -37.5 41c-7.33301 4 -14.333 6.83301 -21 8.5s-12.667 2.83398 -18 3.50098v0z" />
    <glyph glyph-name="bar" unicode="|" horiz-adv-x="526"
d="M221 -196v1053h84v-1053h-84v0z" />
    <glyph glyph-name="braceright" unicode="}" horiz-adv-x="527"
d="M373 348l0.000976562 -69.998c-24.667 -2 -43.5 -10.333 -56.5 -25s-22.167 -30.334 -27.5 -47.001c-5.33301 -15.333 -8.33301 -29.666 -9 -42.999s-1 -22.333 -1 -27v-1v0v-14.5c0 -5 0.333008 -9.83301 1 -14.5c0 -4.66699 0.166992 -9.5 0.5 -14.5
s0.5 -9.83301 0.5 -14.5s0.166992 -9.33398 0.5 -14.001s0.5 -9.33398 0.5 -14.001c0.666992 -4.66699 1 -9.33398 1 -14.001v-14c0 -8 -0.666992 -19.667 -2 -35s-5.33301 -31.333 -12 -48c-9.33301 -22.667 -25.333 -43.5 -48 -62.5s-57 -29.5 -103 -31.5v55
c22 6 38.167 15 48.5 27s17.166 24.667 20.499 38c2 6.66699 3.33301 13.167 4 19.5s1 11.833 1 16.5v14c0 4.66699 -0.333008 9.33398 -1 14.001c0 4.66699 -0.166992 9.33398 -0.5 14.001s-0.833008 9.33398 -1.5 14.001c-0.666992 5.33301 -1.16699 10.5 -1.5 15.5
s-0.5 10.167 -0.5 15.5c-0.666992 4.66699 -1 9.66699 -1 15v15c0 45.333 8.83301 83.5 26.5 114.5s49.5 56.833 95.5 77.5v8c-46 21.333 -77.833 47.5 -95.5 78.5s-26.5 68.833 -26.5 113.5v15.5c0 5 0.333008 10.167 1 15.5c0 4.66699 0.166992 9.66699 0.5 15
s0.833008 10.333 1.5 15s1.16699 9.33398 1.5 14.001s0.5 9.33398 0.5 14.001c0.666992 4.66699 1 9.33398 1 14.001v14c0 5.33301 -0.333008 11.166 -1 17.499s-2 12.833 -4 19.5c-3.33301 13.333 -10.166 26 -20.499 38s-26.5 20.667 -48.5 26v56
c8.66699 -0.666992 18 -1.66699 28 -3s20 -3.66602 30 -6.99902c26.667 -8.66699 51.167 -25.5 73.5 -50.5s33.5 -64.167 33.5 -117.5v-14c0 -4.66699 -0.333008 -9.33398 -1 -14.001c0 -4.66699 -0.166992 -9.33398 -0.5 -14.001s-0.5 -9.33398 -0.5 -14.001
s-0.166992 -9.5 -0.5 -14.5s-0.5 -9.83301 -0.5 -14.5c-0.666992 -4.66699 -1 -9.5 -1 -14.5v-14.5c0 -39.333 5.66699 -68.833 17 -88.5s23.666 -33.5 36.999 -41.5c7.33301 -4.66699 14.5 -7.83398 21.5 -9.50098s13.167 -2.83398 18.5 -3.50098v0z" />
    <glyph glyph-name="asciitilde" unicode="~" horiz-adv-x="526"
d="M378 742l73.0049 0.00292969c-13.333 -40 -29 -69 -47 -87s-40.333 -27 -67 -27c-5.33301 0 -10.5 0.333008 -15.5 1l-15.5 2c-10 2 -20.167 5 -30.5 9l-34.5 13l-4 2c-1.33301 0.666992 -2.66602 1 -3.99902 1c-6.66699 2.66699 -13.334 4.83398 -20.001 6.50098
s-14.334 2.5 -23.001 2.5c-2 0 -5.33301 -0.333008 -10 -1s-9.33398 -2.33398 -14.001 -5.00098c-4 -2.66699 -7.66699 -5.83398 -11 -9.50098s-6.33301 -8.83398 -9 -15.501h-71c5.33301 28 14.166 49.833 26.499 65.5s25.166 26.834 38.499 33.501
c8 4 15.833 6.83301 23.5 8.5s14.5 2.5 20.5 2.5c14.667 0 29.667 -2.33301 45 -7s31.333 -10.334 48 -17.001c13.333 -4.66699 24.166 -8.33398 32.499 -11.001s15.5 -4 21.5 -4c8.66699 0 16 2 22 6s10.667 8.33301 14 13c3.33301 4 5.83301 7.66699 7.5 11l3.5 7v0z" />
    <glyph glyph-name="space"
 />
    <glyph glyph-name="F" horiz-adv-x="915"
d="M62 658l0.00488281 83.999h582v-84h-241v-238c6 0.666992 13.833 1.16699 23.5 1.5s20.167 0.833008 31.5 1.5c5.33301 0.666992 10.666 1 15.999 1s10.666 0.333008 15.999 1c14 0.666992 27.833 1.16699 41.5 1.5s25.167 0.5 34.5 0.5
c14.667 0 31.167 -0.666992 49.5 -2s37.166 -4.66602 56.499 -9.99902c38 -9.33301 73 -29 105 -59s48 -78.333 48 -145c0 -65.333 -13.667 -114 -41 -146s-57.333 -53.667 -90 -65c-20.667 -8 -40.5 -13 -59.5 -15s-34.833 -3 -47.5 -3c-4.66699 0 -9.66699 0.333008 -15 1
s-10.333 1.66699 -15 3c-4.66699 0.666992 -9.33398 1.5 -14.001 2.5s-9 2.16699 -13 3.5c-2.66699 0.666992 -5 1.33398 -7 2.00098l-6 2v83l6 -2c2 -0.666992 4.33301 -1.33398 7 -2.00098c4 -1.33301 8.33301 -2.5 13 -3.5s9.33398 -1.83301 14.001 -2.5
c5.33301 -1.33301 10.666 -2.33301 15.999 -3s10.333 -1 15 -1c41.333 0 74.5 12 99.5 36s37.5 58 37.5 102c0 35.333 -10 67.5 -30 96.5s-69.333 43.5 -148 43.5c-10.667 0 -22.5 -0.333008 -35.5 -1l-40.5 -2c-6.66699 0 -13.5 -0.166992 -20.5 -0.5
s-13.833 -0.833008 -20.5 -1.5c-4.66699 -0.666992 -9.33398 -1.16699 -14.001 -1.5s-9 -0.5 -13 -0.5v-336h-100v658h-241v0z" />
    <glyph glyph-name="F" unicode="&#x402;" horiz-adv-x="915"
d="M62 658l0.00488281 83.999h582v-84h-241v-238c6 0.666992 13.833 1.16699 23.5 1.5s20.167 0.833008 31.5 1.5c5.33301 0.666992 10.666 1 15.999 1s10.666 0.333008 15.999 1c14 0.666992 27.833 1.16699 41.5 1.5s25.167 0.5 34.5 0.5
c14.667 0 31.167 -0.666992 49.5 -2s37.166 -4.66602 56.499 -9.99902c38 -9.33301 73 -29 105 -59s48 -78.333 48 -145c0 -65.333 -13.667 -114 -41 -146s-57.333 -53.667 -90 -65c-20.667 -8 -40.5 -13 -59.5 -15s-34.833 -3 -47.5 -3c-4.66699 0 -9.66699 0.333008 -15 1
s-10.333 1.66699 -15 3c-4.66699 0.666992 -9.33398 1.5 -14.001 2.5s-9 2.16699 -13 3.5c-2.66699 0.666992 -5 1.33398 -7 2.00098l-6 2v83l6 -2c2 -0.666992 4.33301 -1.33398 7 -2.00098c4 -1.33301 8.33301 -2.5 13 -3.5s9.33398 -1.83301 14.001 -2.5
c5.33301 -1.33301 10.666 -2.33301 15.999 -3s10.333 -1 15 -1c41.333 0 74.5 12 99.5 36s37.5 58 37.5 102c0 35.333 -10 67.5 -30 96.5s-69.333 43.5 -148 43.5c-10.667 0 -22.5 -0.333008 -35.5 -1l-40.5 -2c-6.66699 0 -13.5 -0.166992 -20.5 -0.5
s-13.833 -0.833008 -20.5 -1.5c-4.66699 -0.666992 -9.33398 -1.16699 -14.001 -1.5s-9 -0.5 -13 -0.5v-336h-100v658h-241v0z" />
    <glyph glyph-name="asciitilde"
 />
    <glyph glyph-name="asciitilde" unicode="&#x403;"
 />
    <glyph glyph-name="D"
 />
    <glyph glyph-name="D" unicode="&#x40c;"
 />
    <glyph glyph-name="N" horiz-adv-x="915"
d="M825 0l-99.998 -0.000976562v217c0 54.667 -13.333 89.334 -40 104.001s-72.667 22 -138 22c-10 0 -21.167 -0.166992 -33.5 -0.5s-24.833 -0.833008 -37.5 -1.5c-8 -0.666992 -16 -1.16699 -24 -1.5s-15.667 -0.833008 -23 -1.5
c-4.66699 -0.666992 -9.16699 -1.16699 -13.5 -1.5s-8.5 -0.5 -12.5 -0.5v-336h-100v658h-241v84h582v-84h-241v-238c6 0.666992 13.833 1.16699 23.5 1.5s20.167 0.833008 31.5 1.5c5.33301 0.666992 10.666 1 15.999 1s10.666 0.333008 15.999 1
c14 0.666992 27.833 1.16699 41.5 1.5s25.167 0.5 34.5 0.5c85.333 0 149.833 -11.333 193.5 -34s65.5 -76 65.5 -160v-233v0z" />
    <glyph glyph-name="N" unicode="&#x40b;" horiz-adv-x="915"
d="M825 0l-99.998 -0.000976562v217c0 54.667 -13.333 89.334 -40 104.001s-72.667 22 -138 22c-10 0 -21.167 -0.166992 -33.5 -0.5s-24.833 -0.833008 -37.5 -1.5c-8 -0.666992 -16 -1.16699 -24 -1.5s-15.667 -0.833008 -23 -1.5
c-4.66699 -0.666992 -9.16699 -1.16699 -13.5 -1.5s-8.5 -0.5 -12.5 -0.5v-336h-100v658h-241v84h582v-84h-241v-238c6 0.666992 13.833 1.16699 23.5 1.5s20.167 0.833008 31.5 1.5c5.33301 0.666992 10.666 1 15.999 1s10.666 0.333008 15.999 1
c14 0.666992 27.833 1.16699 41.5 1.5s25.167 0.5 34.5 0.5c85.333 0 149.833 -11.333 193.5 -34s65.5 -76 65.5 -160v-233v0z" />
    <glyph glyph-name="bullet" horiz-adv-x="757"
d="M567 84v658h100v-742h-245v-168h-87v168h-245v742h100v-658h377v0z" />
    <glyph glyph-name="bullet" unicode="&#x40f;" horiz-adv-x="757"
d="M567 84v658h100v-742h-245v-168h-87v168h-245v742h100v-658h377v0z" />
    <glyph glyph-name="guilsinglleft" horiz-adv-x="619"
d="M84 742l93.999 0.000976562v-66h224v-66h-224v-147c21.333 31.333 47 54.333 77 69s63.333 22 100 22c91.333 0 147.166 -31.5 167.499 -94.5s30.5 -142.167 30.5 -237.5c0 -108.667 -12.5 -205.334 -37.5 -290.001s-93.833 -127 -206.5 -127v68h24
c46.667 0.666992 77.834 24.167 93.501 70.5s24.834 97.5 27.501 153.5c0.666992 17.333 1 34.666 1 51.999v50v10v10c0 78.667 -5.83301 142.334 -17.5 191.001s-47.167 73 -106.5 73c-45.333 0 -78.5 -10.833 -99.5 -32.5s-35.5 -45.5 -43.5 -71.5
c-4.66699 -16 -7.5 -31.667 -8.5 -47s-1.5 -28 -1.5 -38v-294h-94v610h-84v66h84v66v0z" />
    <glyph glyph-name="guilsinglleft" unicode="&#x452;" horiz-adv-x="619"
d="M84 742l93.999 0.000976562v-66h224v-66h-224v-147c21.333 31.333 47 54.333 77 69s63.333 22 100 22c91.333 0 147.166 -31.5 167.499 -94.5s30.5 -142.167 30.5 -237.5c0 -108.667 -12.5 -205.334 -37.5 -290.001s-93.833 -127 -206.5 -127v68h24
c46.667 0.666992 77.834 24.167 93.501 70.5s24.834 97.5 27.501 153.5c0.666992 17.333 1 34.666 1 51.999v50v10v10c0 78.667 -5.83301 142.334 -17.5 191.001s-47.167 73 -106.5 73c-45.333 0 -78.5 -10.833 -99.5 -32.5s-35.5 -45.5 -43.5 -71.5
c-4.66699 -16 -7.5 -31.667 -8.5 -47s-1.5 -28 -1.5 -38v-294h-94v610h-84v66h84v66v0z" />
    <glyph glyph-name="O"
 />
    <glyph glyph-name="O" unicode="&#x45c;"
 />
    <glyph glyph-name="tilde" horiz-adv-x="615"
d="M84 742h93.999v-66h224v-66h-224v-147c19.333 26 43.833 47.667 73.5 65s66.5 26 110.5 26c55.333 0 95.166 -12 119.499 -36s40.5 -50.667 48.5 -80c4 -14.667 6.5 -29 7.5 -43s1.5 -26.333 1.5 -37v-358h-94v330v0.5v0.5c0 8.66699 -0.166992 17.834 -0.5 27.501
s-1.16602 19.5 -2.49902 29.5c-3.33301 23.333 -12.666 44.666 -27.999 63.999s-42.666 29 -81.999 29c-8 0 -16.833 -0.666992 -26.5 -2s-19.167 -3.33301 -28.5 -6c-24.667 -8.66699 -47.334 -26 -68.001 -52s-31 -68.333 -31 -127v-294h-94v610h-84v66h84v66v0z" />
    <glyph glyph-name="tilde" unicode="&#x45b;" horiz-adv-x="615"
d="M84 742h93.999v-66h224v-66h-224v-147c19.333 26 43.833 47.667 73.5 65s66.5 26 110.5 26c55.333 0 95.166 -12 119.499 -36s40.5 -50.667 48.5 -80c4 -14.667 6.5 -29 7.5 -43s1.5 -26.333 1.5 -37v-358h-94v330v0.5v0.5c0 8.66699 -0.166992 17.834 -0.5 27.501
s-1.16602 19.5 -2.49902 29.5c-3.33301 23.333 -12.666 44.666 -27.999 63.999s-42.666 29 -81.999 29c-8 0 -16.833 -0.666992 -26.5 -2s-19.167 -3.33301 -28.5 -6c-24.667 -8.66699 -47.334 -26 -68.001 -52s-31 -68.333 -31 -127v-294h-94v610h-84v66h84v66v0z" />
    <glyph glyph-name="greater" unicode="&#xa0;"
 />
    <glyph glyph-name="Z" unicode="&#xa1;" horiz-adv-x="623"
d="M344 296l179.002 446h104l-251 -610c-26.667 -65.333 -56.167 -105.333 -88.5 -120s-65.5 -22 -99.5 -22c-11.333 0 -22 0.5 -32 1.5s-19.667 2.5 -29 4.5c-4 0.666992 -7.66699 1.5 -11 2.5s-7 1.5 -11 1.5v87c6.66699 -2 13.667 -3.83301 21 -5.5
s14.666 -3.16699 21.999 -4.5c4.66699 -0.666992 9.33398 -1.16699 14.001 -1.5s9 -0.5 13 -0.5h4h3c21.333 1.33301 41.666 8.83301 60.999 22.5s35.666 42.5 48.999 86.5l-282 558h121l213 -446v0zM149.002 910l79.0039 -0.000976562
c4.66699 -27.333 13.667 -46.833 27 -58.5s27.666 -19.167 42.999 -22.5c6 -1.33301 11.667 -2.16602 17 -2.49902s10.666 -0.5 15.999 -0.5c4.66699 0 9.66699 0.166992 15 0.5s10.333 0.833008 15 1.5c16.667 3.33301 32.167 10.833 46.5 22.5s23.833 31.5 28.5 59.5h78
c-0.666992 -2.66699 -1.33398 -5.16699 -2.00098 -7.5s-1.33398 -4.83301 -2.00098 -7.5c-8 -31.333 -25.333 -60 -52 -86s-69 -39 -127 -39c-54.667 0 -96.167 13 -124.5 39s-46.5 54.667 -54.5 86c-0.666992 2.66699 -1.16699 5.16699 -1.5 7.5
s-0.833008 4.83301 -1.5 7.5v0z" />
    <glyph glyph-name="Z" unicode="&#x40e;" horiz-adv-x="623"
d="M344 296l179.002 446h104l-251 -610c-26.667 -65.333 -56.167 -105.333 -88.5 -120s-65.5 -22 -99.5 -22c-11.333 0 -22 0.5 -32 1.5s-19.667 2.5 -29 4.5c-4 0.666992 -7.66699 1.5 -11 2.5s-7 1.5 -11 1.5v87c6.66699 -2 13.667 -3.83301 21 -5.5
s14.666 -3.16699 21.999 -4.5c4.66699 -0.666992 9.33398 -1.16699 14.001 -1.5s9 -0.5 13 -0.5h4h3c21.333 1.33301 41.666 8.83301 60.999 22.5s35.666 42.5 48.999 86.5l-282 558h121l213 -446v0zM149.002 910l79.0039 -0.000976562
c4.66699 -27.333 13.667 -46.833 27 -58.5s27.666 -19.167 42.999 -22.5c6 -1.33301 11.667 -2.16602 17 -2.49902s10.666 -0.5 15.999 -0.5c4.66699 0 9.66699 0.166992 15 0.5s10.333 0.833008 15 1.5c16.667 3.33301 32.167 10.833 46.5 22.5s23.833 31.5 28.5 59.5h78
c-0.666992 -2.66699 -1.33398 -5.16699 -2.00098 -7.5s-1.33398 -4.83301 -2.00098 -7.5c-8 -31.333 -25.333 -60 -52 -86s-69 -39 -127 -39c-54.667 0 -96.167 13 -124.5 39s-46.5 54.667 -54.5 86c-0.666992 2.66699 -1.16699 5.16699 -1.5 7.5
s-0.833008 4.83301 -1.5 7.5v0z" />
    <glyph glyph-name="slash" unicode="&#xa2;" horiz-adv-x="527"
d="M96 -195l0.00195312 68.999c14.667 -1.33301 25.334 -2.33301 32.001 -3s11.667 -1 15 -1c27.333 0 46.166 8.66699 56.499 26s19.166 37 26.499 59l1.5 3c0.333008 0.666992 0.5 1.66699 0.5 3l13 39l-234 539h112l172 -436l144 436h92l-213 -603
c-1.33301 -2.66699 -2.5 -5.66699 -3.5 -9s-2.16699 -6.66602 -3.5 -9.99902c-15.333 -39.333 -32.333 -68.5 -51 -87.5s-46.334 -28.5 -83.001 -28.5c-14 0 -27.667 0.333008 -41 1s-25.333 2 -36 4v-1zM96.002 741.999h79.001
c1.33301 -23.333 10.833 -43.166 28.5 -59.499s42.5 -24.5 74.5 -24.5s55.667 6.66699 71 20s25.333 28 30 44l2 10c0.666992 3.33301 1 6.66602 1 9.99902h78l-2 -10c-0.666992 -3.33301 -1.33398 -6.33301 -2.00098 -9c-8 -30.667 -26 -58.5 -54 -83.5
s-69.333 -37.5 -124 -37.5s-96.167 13 -124.5 39s-46.5 54.667 -54.5 86c-0.666992 2.66699 -1.16699 5.16699 -1.5 7.5s-0.833008 4.83301 -1.5 7.5v0z" />
    <glyph glyph-name="slash" unicode="&#x45e;" horiz-adv-x="527"
d="M96 -195l0.00195312 68.999c14.667 -1.33301 25.334 -2.33301 32.001 -3s11.667 -1 15 -1c27.333 0 46.166 8.66699 56.499 26s19.166 37 26.499 59l1.5 3c0.333008 0.666992 0.5 1.66699 0.5 3l13 39l-234 539h112l172 -436l144 436h92l-213 -603
c-1.33301 -2.66699 -2.5 -5.66699 -3.5 -9s-2.16699 -6.66602 -3.5 -9.99902c-15.333 -39.333 -32.333 -68.5 -51 -87.5s-46.334 -28.5 -83.001 -28.5c-14 0 -27.667 0.333008 -41 1s-25.333 2 -36 4v-1zM96.002 741.999h79.001
c1.33301 -23.333 10.833 -43.166 28.5 -59.499s42.5 -24.5 74.5 -24.5s55.667 6.66699 71 20s25.333 28 30 44l2 10c0.666992 3.33301 1 6.66602 1 9.99902h78l-2 -10c-0.666992 -3.33301 -1.33398 -6.33301 -2.00098 -9c-8 -30.667 -26 -58.5 -54 -83.5
s-69.333 -37.5 -124 -37.5s-96.167 13 -124.5 39s-46.5 54.667 -54.5 86c-0.666992 2.66699 -1.16699 5.16699 -1.5 7.5s-0.833008 4.83301 -1.5 7.5v0z" />
    <glyph glyph-name="endash" unicode="&#xa3;" horiz-adv-x="551"
d="M24 246h100c0.666992 -62.667 10.5 -108.5 29.5 -137.5s51.833 -43.5 98.5 -43.5c44 0 75.5 13.333 94.5 40s28.5 74 28.5 142v495h100v-486c0 -116 -21.833 -190.667 -65.5 -224s-96.5 -50 -158.5 -50c-12 0 -27.167 0.833008 -45.5 2.5s-37.5 6.16699 -57.5 13.5
c-30.667 10.667 -59 31.667 -85 63s-39 80.333 -39 147v38v0z" />
    <glyph glyph-name="endash" unicode="&#x408;" horiz-adv-x="551"
d="M24 246h100c0.666992 -62.667 10.5 -108.5 29.5 -137.5s51.833 -43.5 98.5 -43.5c44 0 75.5 13.333 94.5 40s28.5 74 28.5 142v495h100v-486c0 -116 -21.833 -190.667 -65.5 -224s-96.5 -50 -158.5 -50c-12 0 -27.167 0.833008 -45.5 2.5s-37.5 6.16699 -57.5 13.5
c-30.667 10.667 -59 31.667 -85 63s-39 80.333 -39 147v38v0z" />
    <glyph glyph-name="quotedblleft" unicode="&#xa4;" horiz-adv-x="875"
d="M70 56l118 118c-6 8 -11.333 16.167 -16 24.5s-9 16.833 -13 25.5c-10 22.667 -17 44.834 -21 66.501s-6 41.5 -6 59.5s2 37.833 6 59.5s11 43.834 21 66.501c4 8.66699 8.33301 17.167 13 25.5s10 16.5 16 24.5l-118 118l70 70l117 -118
c7.33301 6 14.833 11.333 22.5 16s15.167 9 22.5 13c24.667 12.667 48.834 21 72.501 25s44.5 6 62.5 6s38.833 -2 62.5 -6s47.834 -12.333 72.501 -25c7.33301 -4 14.833 -8.33301 22.5 -13s15.167 -10 22.5 -16l118 118l70 -70l-118 -118c6 -8 11.333 -16.167 16 -24.5
s9 -16.833 13 -25.5c10 -22.667 17 -44.834 21 -66.501s6 -41.5 6 -59.5s-2 -37.833 -6 -59.5s-11 -43.834 -21 -66.501c-4 -8.66699 -8.33301 -17.167 -13 -25.5s-10 -16.5 -16 -24.5l118 -118l-70 -70l-118 118c-7.33301 -6 -14.833 -11.333 -22.5 -16
s-15.167 -9 -22.5 -13c-24.667 -12.667 -48.834 -21 -72.501 -25s-44.5 -6 -62.5 -6s-38.833 2 -62.5 6s-47.834 12.333 -72.501 25c-7.33301 4 -14.833 8.33301 -22.5 13s-15.167 10 -22.5 16l-117 -118l-70 70v0zM211 350c0 -66 22.334 -119.502 67.001 -160.502
s94 -63.167 148 -66.5h5.5h5.5h9.5c3 0 6.16699 0.333008 9.5 1c52 4.66699 99.667 27.334 143 68.001s65 93.334 65 158.001c0 64 -21.667 116.5 -65 157.5s-91 63.833 -143 68.5c-3.33301 0.666992 -6.5 1 -9.5 1h-9.5c-10.667 0 -21.834 -1 -33.501 -3
s-23.167 -4.66699 -34.5 -8c-9.33301 -3.33301 -18.666 -7.16602 -27.999 -11.499s-18.333 -9.16602 -27 -14.499c-18.667 -12.667 -34.334 -26.334 -47.001 -41.001s-22.667 -29.334 -30 -44.001c-10 -19.333 -16.833 -38 -20.5 -56s-5.5 -34.333 -5.5 -49v0z" />
    <glyph glyph-name="emdash" unicode="&#xa5;" horiz-adv-x="577"
d="M190 658v-658h-100v742h378v168h87l8 -252h-373v0z" />
    <glyph glyph-name="emdash" unicode="&#x490;" horiz-adv-x="577"
d="M190 658v-658h-100v742h378v168h87l8 -252h-373v0z" />
    <glyph glyph-name="circumflex" unicode="&#xa6;"
 />
    <glyph glyph-name="scaron" unicode="&#xa7;" horiz-adv-x="614"
d="M479 590l-78 0.00195312c-1.33301 34.667 -7.66602 59.5 -18.999 74.5s-24 24.833 -38 29.5c-6.66699 2 -13.167 3.33301 -19.5 4s-12.166 1 -17.499 1c-23.333 0 -42.333 -6.5 -57 -19.5s-22 -31.833 -22 -56.5c0 -30.667 10.5 -53.5 31.5 -68.5
s46.167 -28.5 75.5 -40.5c3.33301 -1.33301 6.5 -2.66602 9.5 -3.99902s6.16699 -2.66602 9.5 -3.99902l20.5 -8.5l21.5 -9.5c37.333 -16.667 71.666 -39.5 102.999 -68.5s47 -72.167 47 -129.5c0 -47.333 -13.333 -85 -40 -113s-56.334 -46.333 -89.001 -55
c24 -8.66699 40.667 -24.334 50 -47.001s14 -46.667 14 -72c0 -54.667 -17.833 -94.167 -53.5 -118.5s-79.5 -36.5 -131.5 -36.5c-55.333 0 -95.666 12.5 -120.999 37.5s-41.666 52.833 -48.999 83.5c-3.33301 11.333 -5.5 22.666 -6.5 33.999s-1.5 22 -1.5 32l78 -1v-4v-4
v-4v-4c1.33301 -24.667 9.66602 -47.5 24.999 -68.5s40 -31.5 74 -31.5c5.33301 0 10.833 0.333008 16.5 1s11.5 1.66699 17.5 3c16 3.33301 30.5 10.833 43.5 22.5s19.5 29.834 19.5 54.501c0 28.667 -8.5 49.834 -25.5 63.501s-38.167 25.5 -63.5 35.5
c-4 2 -8 3.66699 -12 5s-8 3 -12 5l-31 12.5c-10.667 4.33301 -21.667 9.16602 -33 14.499c-36.667 16.667 -70.334 39.667 -101.001 69s-46 72.333 -46 129c0 51.333 12.5 90.166 37.5 116.499s52.5 43.166 82.5 50.499c1.33301 0 2.5 0.166992 3.5 0.5
s1.83301 0.5 2.5 0.5c-22 16 -36.833 33.833 -44.5 53.5s-11.5 43.167 -11.5 70.5c0 43.333 15.167 78.166 45.5 104.499s71.833 39.5 124.5 39.5c63.333 0 107 -15.667 131 -47s37 -66 39 -104c0.666992 -3.33301 1 -6.5 1 -9.5v-8.5v-2.5v-2.5v-2.5v-2.5v0zM352 159.002
c2.66699 0.666992 5.16992 1.5 7.50293 2.5s4.83301 1.83301 7.5 2.5c22 9.33301 42.333 24.5 61 45.5s28 49.5 28 85.5c0 39.333 -14.5 70.333 -43.5 93s-70.5 44 -124.5 64c-4.66699 1.33301 -9.33398 2.83301 -14.001 4.5l-15 5.5
c-34.667 -10 -60.334 -25.5 -77.001 -46.5s-25 -46.833 -25 -77.5c0 -38.667 10.167 -68.167 30.5 -88.5s48.166 -38.833 83.499 -55.5l38.5 -16.5l42.5 -18.5v0z" />
    <glyph glyph-name="H" unicode="&#xa8;" horiz-adv-x="650"
d="M190 425h389v-84h-389v-257h442v-84h-542v742h530v-84h-430v-233v0zM199 818v84h99v-84h-99v0zM427 818v84h99v-84h-99v0z" />
    <glyph glyph-name="H" unicode="&#x401;" horiz-adv-x="650"
d="M190 425h389v-84h-389v-257h442v-84h-542v742h530v-84h-430v-233v0zM199 818v84h99v-84h-99v0zM427 818v84h99v-84h-99v0z" />
    <glyph glyph-name="I" unicode="&#xa9;" horiz-adv-x="854"
d="M56 371c0 111.333 37.665 200.501 112.998 267.501s158.333 101.5 249 103.5h4.5h4.5h12c4 0 8.33301 -0.333008 13 -1c86 -6 165.167 -42.167 237.5 -108.5s108.5 -153.5 108.5 -261.5c0 -108.667 -36.667 -196.334 -110 -263.001s-153.666 -102.334 -240.999 -107.001
c-3.33301 -0.666992 -6.66602 -1 -9.99902 -1h-10h-1.5h-1.5c-92 0.666992 -176.333 34.834 -253 102.501s-115 157.167 -115 268.5v0zM125.998 371.001c0 -94.667 31.332 -170.833 93.999 -228.5s131.667 -86.5 207 -86.5c88 0 158.833 30.833 212.5 92.5
s82.834 129.5 87.501 203.5c0.666992 3.33301 1 6.5 1 9.5v9.5v7.5v6.5c-4 75.333 -33.167 144.333 -87.5 207s-125.5 94 -213.5 94h-1.5h-1.5c-74.667 -0.666992 -143 -29.5 -205 -86.5s-93 -133.167 -93 -228.5v0zM583.997 315.002
c-6 -41.333 -18.667 -71.3369 -38 -90.0039s-40 -31 -62 -37c-9.33301 -2 -18.5 -3.5 -27.5 -4.5s-17.5 -1.5 -25.5 -1.5c-49.333 0 -86.333 11.5 -111 34.5s-41.667 48.167 -51 75.5c-5.33301 14.667 -9 29 -11 43s-3 26.333 -3 37c0 10 0.5 20.167 1.5 30.5
s2.5 20.833 4.5 31.5c7.33301 34.667 23.333 66.167 48 94.5s64 42.5 118 42.5c43.333 0 75.333 -8.16699 96 -24.5s35 -34.166 43 -53.499c2.66699 -8 4.66699 -15.667 6 -23s2.33301 -14.333 3 -21h-66c0 2.66699 -0.333008 5.5 -1 8.5s-1.33398 6.16699 -2.00098 9.5
c-3.33301 12.667 -11 24.334 -23 35.001s-30.667 16 -56 16c-3.33301 0 -9.66602 -0.666992 -18.999 -2s-19.333 -5.66602 -30 -12.999c-12 -8 -23.333 -22.167 -34 -42.5s-16 -49.833 -16 -88.5c0 -7.33301 0.5 -15.166 1.5 -23.499s2.5 -16.833 4.5 -25.5
c5.33301 -22 15.5 -42.167 30.5 -60.5s37.5 -27.5 67.5 -27.5c22 0 39 5.5 51 16.5s20.333 22.833 25 35.5c1.33301 5.33301 2.5 10.333 3.5 15s1.83301 9 2.5 13h70v0z" />
    <glyph glyph-name="J" unicode="&#xaa;" horiz-adv-x="771"
d="M523 424l0.00683594 -83.9971h-366c2 -101.333 24.333 -171.333 67 -210s89.334 -61.334 140.001 -68.001c6.66699 -0.666992 13.5 -1.16699 20.5 -1.5s13.833 -0.5 20.5 -0.5c54 0 95.667 11.667 125 35s50.666 49 63.999 77c8 16 13.833 31.667 17.5 47
s6.16699 28.333 7.5 39h104c-1.33301 -14.667 -4.66602 -33.334 -9.99902 -56.001s-14.333 -46.334 -27 -71.001c-19.333 -38.667 -50.833 -74 -94.5 -106s-105.834 -48 -186.501 -48c-128 0 -216.833 34.5 -266.5 103.5s-78.834 144.833 -87.501 227.5l-2 36
c-0.666992 12 -1 23.667 -1 35c0 21.333 1.5 45.166 4.5 71.499s8.5 52.833 16.5 79.5c17.333 58.667 50.666 112.334 99.999 161.001s126 73 230 73c82.667 0 145.5 -15.5 188.5 -46.5s73.5 -65.167 91.5 -102.5c7.33301 -16 13.166 -31.667 17.499 -47
s7.16602 -29.333 8.49902 -42h-102c-1.33301 8.66699 -3.5 18 -6.5 28s-7.5 20.333 -13.5 31c-12.667 24 -33.334 45.833 -62.001 65.5s-70.334 29.5 -125.001 29.5c-77.333 0 -133.833 -22.667 -169.5 -68s-57.167 -95.333 -64.5 -150
c-0.666992 -6 -1.33398 -12.333 -2.00098 -19s-1 -13 -1 -19h364v0z" />
    <glyph glyph-name="J" unicode="&#x404;" horiz-adv-x="771"
d="M523 424l0.00683594 -83.9971h-366c2 -101.333 24.333 -171.333 67 -210s89.334 -61.334 140.001 -68.001c6.66699 -0.666992 13.5 -1.16699 20.5 -1.5s13.833 -0.5 20.5 -0.5c54 0 95.667 11.667 125 35s50.666 49 63.999 77c8 16 13.833 31.667 17.5 47
s6.16699 28.333 7.5 39h104c-1.33301 -14.667 -4.66602 -33.334 -9.99902 -56.001s-14.333 -46.334 -27 -71.001c-19.333 -38.667 -50.833 -74 -94.5 -106s-105.834 -48 -186.501 -48c-128 0 -216.833 34.5 -266.5 103.5s-78.834 144.833 -87.501 227.5l-2 36
c-0.666992 12 -1 23.667 -1 35c0 21.333 1.5 45.166 4.5 71.499s8.5 52.833 16.5 79.5c17.333 58.667 50.666 112.334 99.999 161.001s126 73 230 73c82.667 0 145.5 -15.5 188.5 -46.5s73.5 -65.167 91.5 -102.5c7.33301 -16 13.166 -31.667 17.499 -47
s7.16602 -29.333 8.49902 -42h-102c-1.33301 8.66699 -3.5 18 -6.5 28s-7.5 20.333 -13.5 31c-12.667 24 -33.334 45.833 -62.001 65.5s-70.334 29.5 -125.001 29.5c-77.333 0 -133.833 -22.667 -169.5 -68s-57.167 -95.333 -64.5 -150
c-0.666992 -6 -1.33398 -12.333 -2.00098 -19s-1 -13 -1 -19h364v0z" />
    <glyph glyph-name="ampersand" unicode="&#xab;" horiz-adv-x="488"
d="M252 330l156 136v-86l-110 -92l110 -97v-87l-156 140v86v0zM66 332l158 140v-88l-113 -95l113 -97v-85l-158 138v87v0z" />
    <glyph glyph-name="quotesingle" unicode="&#xac;" horiz-adv-x="644"
d="M56 399h532v-156h-60v100h-472v56v0z" />
    <glyph glyph-name="daggerdbl" unicode="&#xad;" horiz-adv-x="448"
d="M84 238v91h280v-91h-280v0z" />
    <glyph glyph-name="dagger" unicode="&#xae;" horiz-adv-x="854"
d="M56 371c0 108 36.165 195.166 108.498 261.499s151.5 102.5 237.5 108.5c4.66699 0.666992 9 1 13 1h12h4.5h4.5c90.667 -2 173.667 -36.5 249 -103.5s113 -156.167 113 -267.5s-38.333 -200.833 -115 -268.5s-161 -101.834 -253 -102.501h-1.5h-1.5h-10
c-3.33301 0 -6.66602 0.333008 -9.99902 1c-87.333 4.66699 -167.666 40.334 -240.999 107.001s-110 154.334 -110 263.001v0zM125.998 370.999l-0.000976562 -9.50098c0 -3 0.333008 -6.16699 1 -9.5c4.66699 -74 33.834 -141.833 87.501 -203.5s124.5 -92.5 212.5 -92.5
c75.333 0 144.333 28.833 207 86.5s94 133.834 94 228.501c0 95.333 -31 171.5 -93 228.5s-130.333 85.833 -205 86.5h-1.5h-1.5c-88 0 -159.167 -31.333 -213.5 -94s-83.5 -131.667 -87.5 -207v-6.5v-7.5v0zM291.997 188.998l0.000976562 371.004h164
c32.667 0 61.167 -7 85.5 -21s36.5 -40.333 36.5 -79c0 -20.667 -3.83301 -37.167 -11.5 -49.5s-16.167 -21.833 -25.5 -28.5c-4.66699 -4 -9.33398 -7 -14.001 -9l-12 -5v-1c20 -5.33301 33 -12.833 39 -22.5s9 -20.5 9 -32.5c0 -4.66699 -0.333008 -9.33398 -1 -14.001
s-1 -9.33398 -1 -14.001c-0.666992 -5.33301 -1.33398 -10.333 -2.00098 -15s-1 -9.66699 -1 -15c0.666992 -10.667 2.66699 -21.5 6 -32.5s10 -21.833 20 -32.5h-72c-2.66699 3.33301 -5.16699 6.83301 -7.5 10.5s-4.16602 7.16699 -5.49902 10.5
c-3.33301 7.33301 -5.33301 14.5 -6 21.5s-1 13.833 -1 20.5c0 4 0.166992 7.83301 0.5 11.5s0.5 7.5 0.5 11.5c0 3.33301 0.166992 6.66602 0.5 9.99902s0.5 6.66602 0.5 9.99902c0 14 -4.5 25.333 -13.5 34s-30.167 13 -63.5 13h-57v-153h-68v0zM359.998 509.002
l-0.000976562 -116h80c18.667 0 32.667 3.16699 42 9.5s16 13.5 20 21.5c2.66699 6 4.33398 11.667 5.00098 17s1 9.33301 1 12c0 23.333 -7.5 38.5 -22.5 45.5s-32.833 10.5 -53.5 10.5h-72v0z" />
    <glyph glyph-name="macron" unicode="&#xaf;" horiz-adv-x="341"
d="M121 742h99v-742h-99v742v0zM30 819v98h113v-98h-113v0zM199 819v98h112v-98h-112v0z" />
    <glyph glyph-name="macron" unicode="&#x407;" horiz-adv-x="341"
d="M121 742h99v-742h-99v742v0zM30 819v98h113v-98h-113v0zM199 819v98h112v-98h-112v0z" />
    <glyph glyph-name="zero" unicode="&#xb0;" horiz-adv-x="281"
d="M39 641c0 28.667 10 52.334 30 71.001s42 28.667 66 30h3.5h2.5c26 0 49.333 -9.33301 70 -28s31 -43 31 -73c0 -30.667 -10.5 -55.334 -31.5 -74.001s-44.167 -28 -69.5 -28c-28.667 0 -52 9.5 -70 28.5s-28.333 40.167 -31 63.5c-0.666992 1.33301 -1 2.83301 -1 4.5
v5.5v0zM88 641c0 -14.667 4.33203 -26.3311 12.999 -34.998s18.334 -14.334 29.001 -17.001c2 0 3.83301 -0.166992 5.5 -0.5s3.5 -0.5 5.5 -0.5h2.5h2.5c12 1.33301 22.833 6.66602 32.5 15.999s14.5 21.666 14.5 36.999s-5.33301 27.833 -16 37.5s-22.667 14.5 -36 14.5
h-1.5h-1.5c-12.667 -0.666992 -24.167 -5.66699 -34.5 -15s-15.5 -21.666 -15.5 -36.999v0z" />
    <glyph glyph-name="at" unicode="&#xb1;" horiz-adv-x="644"
d="M56 56v56h532v-56h-532v0zM350 175h-56v147h-238v56h238v185h56v-185h238v-56h-238v-147v0z" />
    <glyph glyph-name="P" unicode="&#xb2;" horiz-adv-x="280"
d="M90 742h100v-742h-100v742v0z" />
    <glyph glyph-name="P" unicode="&#x406;" horiz-adv-x="280"
d="M90 742h100v-742h-100v742v0z" />
    <glyph glyph-name="S" unicode="&#xb3;" horiz-adv-x="242"
d="M74 539h94v-539h-94v539v0zM74 644v98h94v-98h-94v0z" />
    <glyph glyph-name="S" unicode="&#x456;" horiz-adv-x="242"
d="M74 539h94v-539h-94v539v0zM74 644v98h94v-98h-94v0z" />
    <glyph glyph-name="T" unicode="&#xb4;" horiz-adv-x="460"
d="M171 473v-473h-95v539h283v140h78l9 -206h-275v0z" />
    <glyph glyph-name="T" unicode="&#x491;" horiz-adv-x="460"
d="M171 473v-473h-95v539h283v140h78l9 -206h-275v0z" />
    <glyph glyph-name="U" unicode="&#xb5;" horiz-adv-x="616"
d="M184 76l-0.00390625 -271.999h-94v735h94v-294c0 -8 0.5 -19.667 1.5 -35s3.83301 -31.666 8.5 -48.999c6.66699 -22.667 18.667 -43.667 36 -63s43.333 -29 78 -29c35.333 0 61.5 9.66699 78.5 29s28.833 40.333 35.5 63c4.66699 17.333 7.5 33.666 8.5 48.999
s1.5 27 1.5 35v294h94v-410v-2v-1v-6v-5c0 -12 2.33301 -22.833 7 -32.5s16 -14.5 34 -14.5h7c2.66699 0 5.33398 0.333008 8.00098 1v-69c-12 0 -21 -0.5 -27 -1.5s-11.667 -1.5 -17 -1.5h-0.5h-1.5h-9.5h-8.5c-20 1.33301 -38.5 6.66602 -55.5 15.999
s-27.167 30.333 -30.5 63c-7.33301 -13.333 -15.166 -24.5 -23.499 -33.5s-16.5 -16.5 -24.5 -22.5c-14 -10.667 -27.833 -17.334 -41.5 -20.001s-25.167 -4 -34.5 -4c-8.66699 0 -18 1 -28 3s-20.333 5.66699 -31 11c-11.333 6 -22.666 14.333 -33.999 25
s-21.666 24.334 -30.999 41.001v0z" />
    <glyph glyph-name="V" unicode="&#xb6;" horiz-adv-x="526"
d="M217 -196v588.001c-52.667 1.33301 -95 19.666 -127 54.999s-48 75.333 -48 120c0 46 16 86.333 48 121s74.333 52.667 127 54h84v-938h-84v0zM371 -195.999v938h84v-938h-84v0z" />
    <glyph glyph-name="quoteleft" unicode="&#xb8;" horiz-adv-x="609"
d="M464 156l93 0.00292969c-2 -9.33301 -5 -19.833 -9 -31.5s-9.66699 -23.5 -17 -35.5c-14.667 -26.667 -38.5 -50.834 -71.5 -72.501s-79.833 -32.5 -140.5 -32.5c-10 0 -27.5 1.16699 -52.5 3.5s-51.833 9.5 -80.5 21.5c-34.667 16 -66.667 43.5 -96 82.5
s-44 97.5 -44 175.5c0 88 21.833 158.167 65.5 210.5s109.834 78.5 198.501 78.5c14 0 30.333 -1 49 -3s38 -6.66699 58 -14c36.667 -13.333 70.167 -39.5 100.5 -78.5s45.5 -100.833 45.5 -185.5v-27h-417c0 -10 0.5 -20.167 1.5 -30.5s2.83301 -20.833 5.5 -31.5
c8 -34.667 24.667 -66.167 50 -94.5s63 -42.5 113 -42.5c41.333 0 73.166 9 95.499 27s37.833 38 46.5 60c1.33301 3.33301 2.5 6.66602 3.5 9.99902s1.83301 6.66602 2.5 9.99902v0zM146 314.003l318.001 0.00195312c-4.66699 53.333 -17.667 96.166 -39 128.499
s-58.666 48.5 -111.999 48.5c-52.667 0 -91.334 -14.333 -116.001 -43s-40.334 -60.334 -47.001 -95.001c-1.33301 -6.66699 -2.33301 -13.167 -3 -19.5s-1 -12.833 -1 -19.5v0zM141.001 644.005v98h98v-98h-98v0zM393.001 644.005v98h98v-98h-98v0z" />
    <glyph glyph-name="quoteleft" unicode="&#x451;" horiz-adv-x="609"
d="M464 156l93 0.00292969c-2 -9.33301 -5 -19.833 -9 -31.5s-9.66699 -23.5 -17 -35.5c-14.667 -26.667 -38.5 -50.834 -71.5 -72.501s-79.833 -32.5 -140.5 -32.5c-10 0 -27.5 1.16699 -52.5 3.5s-51.833 9.5 -80.5 21.5c-34.667 16 -66.667 43.5 -96 82.5
s-44 97.5 -44 175.5c0 88 21.833 158.167 65.5 210.5s109.834 78.5 198.501 78.5c14 0 30.333 -1 49 -3s38 -6.66699 58 -14c36.667 -13.333 70.167 -39.5 100.5 -78.5s45.5 -100.833 45.5 -185.5v-27h-417c0 -10 0.5 -20.167 1.5 -30.5s2.83301 -20.833 5.5 -31.5
c8 -34.667 24.667 -66.167 50 -94.5s63 -42.5 113 -42.5c41.333 0 73.166 9 95.499 27s37.833 38 46.5 60c1.33301 3.33301 2.5 6.66602 3.5 9.99902s1.83301 6.66602 2.5 9.99902v0zM146 314.003l318.001 0.00195312c-4.66699 53.333 -17.667 96.166 -39 128.499
s-58.666 48.5 -111.999 48.5c-52.667 0 -91.334 -14.333 -116.001 -43s-40.334 -60.334 -47.001 -95.001c-1.33301 -6.66699 -2.33301 -13.167 -3 -19.5s-1 -12.833 -1 -19.5v0zM141.001 644.005v98h98v-98h-98v0zM393.001 644.005v98h98v-98h-98v0z" />
    <glyph glyph-name="one" unicode="&#xb9;" horiz-adv-x="1186"
d="M190 588v-588h-100v742h110l395 -588v588h100v-742h-110l-395 588v0zM788 0v78h322v-78h-322v0zM774 363c0 7.33301 0.333984 15.002 1.00098 23.002s1.66699 16 3 24c6.66699 37.333 23.167 71.666 49.5 102.999s66.833 47 121.5 47c48.667 0 85.167 -11.667 109.5 -35
s41.5 -49 51.5 -77c5.33301 -16 9 -31.5 11 -46.5s3 -27.833 3 -38.5c0 -52.667 -10 -92.834 -30 -120.501s-42 -47.167 -66 -58.5c-15.333 -8 -30 -13.167 -44 -15.5s-25.667 -3.5 -35 -3.5c-8.66699 0 -20.334 1.33301 -35.001 4s-29.667 7.66699 -45 15
c-24 12 -45.833 31.833 -65.5 59.5s-29.5 67.5 -29.5 119.5v0zM856.001 363.002c0 -38.667 7.99805 -70.1621 23.998 -94.4951s39 -36.5 69 -36.5c26 0 45.5 8.16699 58.5 24.5s22.167 34.166 27.5 53.499c2.66699 9.33301 4.5 18.666 5.5 27.999s1.5 17.666 1.5 24.999
s-0.5 15.666 -1.5 24.999s-2.83301 18.666 -5.5 27.999c-5.33301 19.333 -14.666 37 -27.999 53s-32.666 24 -57.999 24c-30 0 -53 -12.167 -69 -36.5s-24 -55.5 -24 -93.5v0z" />
    <glyph glyph-name="one" unicode="&#x2116;" horiz-adv-x="1186"
d="M190 588v-588h-100v742h110l395 -588v588h100v-742h-110l-395 588v0zM788 0v78h322v-78h-322v0zM774 363c0 7.33301 0.333984 15.002 1.00098 23.002s1.66699 16 3 24c6.66699 37.333 23.167 71.666 49.5 102.999s66.833 47 121.5 47c48.667 0 85.167 -11.667 109.5 -35
s41.5 -49 51.5 -77c5.33301 -16 9 -31.5 11 -46.5s3 -27.833 3 -38.5c0 -52.667 -10 -92.834 -30 -120.501s-42 -47.167 -66 -58.5c-15.333 -8 -30 -13.167 -44 -15.5s-25.667 -3.5 -35 -3.5c-8.66699 0 -20.334 1.33301 -35.001 4s-29.667 7.66699 -45 15
c-24 12 -45.833 31.833 -65.5 59.5s-29.5 67.5 -29.5 119.5v0zM856.001 363.002c0 -38.667 7.99805 -70.1621 23.998 -94.4951s39 -36.5 69 -36.5c26 0 45.5 8.16699 58.5 24.5s22.167 34.166 27.5 53.499c2.66699 9.33301 4.5 18.666 5.5 27.999s1.5 17.666 1.5 24.999
s-0.5 15.666 -1.5 24.999s-2.83301 18.666 -5.5 27.999c-5.33301 19.333 -14.666 37 -27.999 53s-32.666 24 -57.999 24c-30 0 -53 -12.167 -69 -36.5s-24 -55.5 -24 -93.5v0z" />
    <glyph glyph-name="G" unicode="&#xba;" horiz-adv-x="584"
d="M388 313l-0.00195312 -66h-247c0.666992 -60.667 10.667 -104.834 30 -132.501s40.333 -46.167 63 -55.5c12 -5.33301 23.667 -8.66602 35 -9.99902s21.333 -2 30 -2c48.667 0 84.334 11.5 107.001 34.5s37.667 48.167 45 75.5c1.33301 5.33301 2.33301 10.5 3 15.5
l2 14.5l89 1c-0.666992 -11.333 -2.5 -24.5 -5.5 -39.5s-7.83301 -30.167 -14.5 -45.5c-13.333 -30.667 -37.166 -58.5 -71.499 -83.5s-85.5 -37.5 -153.5 -37.5c-13.333 0 -27.833 0.833008 -43.5 2.5s-31.5 4.5 -47.5 8.5c-40.667 11.333 -78 36.666 -112 75.999
s-51 104.666 -51 195.999c0 86.667 14.667 150.334 44 191.001s61.666 68 96.999 82c20.667 8.66699 40.834 14 60.501 16s36.167 3 49.5 3c79.333 0 136 -16 170 -48s55.667 -67 65 -105c1.33301 -6 2.5 -11.833 3.5 -17.5s1.83301 -11.167 2.5 -16.5h-87
c-2.66699 40.667 -19.667 71.167 -51 91.5s-68.666 30.5 -111.999 30.5c-8 0 -16.5 -0.666992 -25.5 -2s-18.167 -3.66602 -27.5 -6.99902c-22.667 -8.66699 -43.334 -25.667 -62.001 -51s-29 -65 -31 -119h246v0z" />
    <glyph glyph-name="G" unicode="&#x454;" horiz-adv-x="584"
d="M388 313l-0.00195312 -66h-247c0.666992 -60.667 10.667 -104.834 30 -132.501s40.333 -46.167 63 -55.5c12 -5.33301 23.667 -8.66602 35 -9.99902s21.333 -2 30 -2c48.667 0 84.334 11.5 107.001 34.5s37.667 48.167 45 75.5c1.33301 5.33301 2.33301 10.5 3 15.5
l2 14.5l89 1c-0.666992 -11.333 -2.5 -24.5 -5.5 -39.5s-7.83301 -30.167 -14.5 -45.5c-13.333 -30.667 -37.166 -58.5 -71.499 -83.5s-85.5 -37.5 -153.5 -37.5c-13.333 0 -27.833 0.833008 -43.5 2.5s-31.5 4.5 -47.5 8.5c-40.667 11.333 -78 36.666 -112 75.999
s-51 104.666 -51 195.999c0 86.667 14.667 150.334 44 191.001s61.666 68 96.999 82c20.667 8.66699 40.834 14 60.501 16s36.167 3 49.5 3c79.333 0 136 -16 170 -48s55.667 -67 65 -105c1.33301 -6 2.5 -11.833 3.5 -17.5s1.83301 -11.167 2.5 -16.5h-87
c-2.66699 40.667 -19.667 71.167 -51 91.5s-68.666 30.5 -111.999 30.5c-8 0 -16.5 -0.666992 -25.5 -2s-18.167 -3.66602 -27.5 -6.99902c-22.667 -8.66699 -43.334 -25.667 -62.001 -51s-29 -65 -31 -119h246v0z" />
    <glyph glyph-name="bracketleft" unicode="&#xbb;" horiz-adv-x="488"
d="M235 329v-86l-155 -139v86l109 96l-109 93v87l155 -137v0zM422 332v-87l-159 -138v85l113 96l-113 96v89l159 -141v0z" />
    <glyph glyph-name="w" unicode="&#xbc;" horiz-adv-x="248"
d="M77 539h94.002v-589c0 -50.667 -9.83301 -88.167 -29.5 -112.5s-52.5 -36.5 -98.5 -36.5c-1.33301 0 -6.83301 0.166992 -16.5 0.5s-23.834 1.5 -42.501 3.5l-1 68h11h9c28.667 0 47.667 6.66699 57 20s14.666 28.333 15.999 45c0.666992 4 1 8.16699 1 12.5v12.5v576v0z
M73.002 644v98h101v-98h-101v0z" />
    <glyph glyph-name="w" unicode="&#x458;" horiz-adv-x="248"
d="M77 539h94.002v-589c0 -50.667 -9.83301 -88.167 -29.5 -112.5s-52.5 -36.5 -98.5 -36.5c-1.33301 0 -6.83301 0.166992 -16.5 0.5s-23.834 1.5 -42.501 3.5l-1 68h11h9c28.667 0 47.667 6.66699 57 20s14.666 28.333 15.999 45c0.666992 4 1 8.16699 1 12.5v12.5v576v0z
M73.002 644v98h101v-98h-101v0z" />
    <glyph glyph-name="bracketright" unicode="&#xbd;" horiz-adv-x="696"
d="M48 235l101.997 0.00390625c0 -43.333 16.333 -82.5 49 -117.5s86 -52.5 160 -52.5c53.333 0 92.833 8.16699 118.5 24.5s43.167 34.5 52.5 54.5c4.66699 10 7.83398 19.833 9.50098 29.5s2.5 18.167 2.5 25.5c0 35.333 -10.333 61.666 -31 78.999s-43.667 30.333 -69 39
c-8.66699 2.66699 -17.167 5 -25.5 7l-24.5 6l-20 4l-20 4c-2.66699 0.666992 -5.16699 1.33398 -7.5 2.00098s-4.83301 1 -7.5 1c-66.667 13.333 -127.167 32.166 -181.5 56.499s-81.5 75.5 -81.5 153.5c0 53.333 20.333 102.333 61 147s113.667 67 219 67
c89.333 0 154.333 -19.833 195 -59.5s65 -83.5 73 -131.5l2 -12.5c0.666992 -4.33301 1 -8.5 1 -12.5h-96c-0.666992 6 -1.5 12 -2.5 18s-2.83301 12.333 -5.5 19c-8 23.333 -24.667 45 -50 65s-65.333 30 -120 30c-57.333 0 -100.833 -12.167 -130.5 -36.5
s-44.5 -53.833 -44.5 -88.5c0 -42.667 17.5 -71.334 52.5 -86.001s73.833 -26 116.5 -34c0.666992 -0.666992 1.5 -1 2.5 -1h2.5c2 -0.666992 4.16699 -1.16699 6.5 -1.5s4.5 -0.833008 6.5 -1.5c14.667 -2.66699 30 -5.66699 46 -9s32 -7 48 -11
c48 -12.667 91.833 -33.834 131.5 -63.501s59.5 -78.834 59.5 -147.501c0 -12 -1.16699 -25.667 -3.5 -41s-6.83301 -31 -13.5 -47c-14.667 -33.333 -42.5 -63.5 -83.5 -90.5s-105.5 -40.5 -193.5 -40.5c-16 0 -36.167 1 -60.5 3s-49.5 7 -75.5 15
c-41.333 12 -79.166 35.5 -113.499 70.5s-53.166 89.833 -56.499 164.5v0z" />
    <glyph glyph-name="bracketright" unicode="&#x405;" horiz-adv-x="696"
d="M48 235l101.997 0.00390625c0 -43.333 16.333 -82.5 49 -117.5s86 -52.5 160 -52.5c53.333 0 92.833 8.16699 118.5 24.5s43.167 34.5 52.5 54.5c4.66699 10 7.83398 19.833 9.50098 29.5s2.5 18.167 2.5 25.5c0 35.333 -10.333 61.666 -31 78.999s-43.667 30.333 -69 39
c-8.66699 2.66699 -17.167 5 -25.5 7l-24.5 6l-20 4l-20 4c-2.66699 0.666992 -5.16699 1.33398 -7.5 2.00098s-4.83301 1 -7.5 1c-66.667 13.333 -127.167 32.166 -181.5 56.499s-81.5 75.5 -81.5 153.5c0 53.333 20.333 102.333 61 147s113.667 67 219 67
c89.333 0 154.333 -19.833 195 -59.5s65 -83.5 73 -131.5l2 -12.5c0.666992 -4.33301 1 -8.5 1 -12.5h-96c-0.666992 6 -1.5 12 -2.5 18s-2.83301 12.333 -5.5 19c-8 23.333 -24.667 45 -50 65s-65.333 30 -120 30c-57.333 0 -100.833 -12.167 -130.5 -36.5
s-44.5 -53.833 -44.5 -88.5c0 -42.667 17.5 -71.334 52.5 -86.001s73.833 -26 116.5 -34c0.666992 -0.666992 1.5 -1 2.5 -1h2.5c2 -0.666992 4.16699 -1.16699 6.5 -1.5s4.5 -0.833008 6.5 -1.5c14.667 -2.66699 30 -5.66699 46 -9s32 -7 48 -11
c48 -12.667 91.833 -33.834 131.5 -63.501s59.5 -78.834 59.5 -147.501c0 -12 -1.16699 -25.667 -3.5 -41s-6.83301 -31 -13.5 -47c-14.667 -33.333 -42.5 -63.5 -83.5 -90.5s-105.5 -40.5 -193.5 -40.5c-16 0 -36.167 1 -60.5 3s-49.5 7 -75.5 15
c-41.333 12 -79.166 35.5 -113.499 70.5s-53.166 89.833 -56.499 164.5v0z" />
    <glyph glyph-name="R" unicode="&#xbe;" horiz-adv-x="536"
d="M38 160l92.9971 -0.00292969c2.66699 -30.667 15.667 -56.667 39 -78s59.333 -32 108 -32c43.333 0 74.833 9.33301 94.5 28s29.5 41.334 29.5 68.001c0 29.333 -11.167 50 -33.5 62s-49.166 21.333 -80.499 28c-5.33301 1.33301 -10.666 2.5 -15.999 3.5
s-10.666 2.16699 -15.999 3.5h-2c-0.666992 0 -1.33398 0.333008 -2.00098 1c-48.667 9.33301 -93 23.333 -133 42s-60 58.334 -60 119.001c0 46.667 15 80.834 45 102.501s63 35.834 99 42.501c10.667 2 21.334 3.33301 32.001 4s21 1 31 1c72 0 123 -13 153 -39
s49 -54.333 57 -85c1.33301 -6 2.33301 -11.833 3 -17.5l2 -16.5h-86c-0.666992 4.66699 -1.66699 10.667 -3 18s-4.33301 14.666 -9 21.999c-6.66699 13.333 -18.667 25.333 -36 36s-43.333 16 -78 16c-3.33301 0 -10.666 -0.333008 -21.999 -1s-23.333 -3 -36 -7
c-14.667 -4.66699 -28.167 -12.5 -40.5 -23.5s-18.5 -27.167 -18.5 -48.5c0 -33.333 11.833 -55.666 35.5 -66.999s52.5 -20.333 86.5 -27c4.66699 -0.666992 9.5 -1.5 14.5 -2.5s10.167 -2.16699 15.5 -3.5c60 -12.667 107.333 -28.834 142 -48.501s52 -55.5 52 -107.5
s-19.333 -92.833 -58 -122.5s-93 -44.5 -163 -44.5c-72.667 0 -130.334 16 -173.001 48s-64.667 74 -66 126v0z" />
    <glyph glyph-name="R" unicode="&#x455;" horiz-adv-x="536"
d="M38 160l92.9971 -0.00292969c2.66699 -30.667 15.667 -56.667 39 -78s59.333 -32 108 -32c43.333 0 74.833 9.33301 94.5 28s29.5 41.334 29.5 68.001c0 29.333 -11.167 50 -33.5 62s-49.166 21.333 -80.499 28c-5.33301 1.33301 -10.666 2.5 -15.999 3.5
s-10.666 2.16699 -15.999 3.5h-2c-0.666992 0 -1.33398 0.333008 -2.00098 1c-48.667 9.33301 -93 23.333 -133 42s-60 58.334 -60 119.001c0 46.667 15 80.834 45 102.501s63 35.834 99 42.501c10.667 2 21.334 3.33301 32.001 4s21 1 31 1c72 0 123 -13 153 -39
s49 -54.333 57 -85c1.33301 -6 2.33301 -11.833 3 -17.5l2 -16.5h-86c-0.666992 4.66699 -1.66699 10.667 -3 18s-4.33301 14.666 -9 21.999c-6.66699 13.333 -18.667 25.333 -36 36s-43.333 16 -78 16c-3.33301 0 -10.666 -0.333008 -21.999 -1s-23.333 -3 -36 -7
c-14.667 -4.66699 -28.167 -12.5 -40.5 -23.5s-18.5 -27.167 -18.5 -48.5c0 -33.333 11.833 -55.666 35.5 -66.999s52.5 -20.333 86.5 -27c4.66699 -0.666992 9.5 -1.5 14.5 -2.5s10.167 -2.16699 15.5 -3.5c60 -12.667 107.333 -28.834 142 -48.501s52 -55.5 52 -107.5
s-19.333 -92.833 -58 -122.5s-93 -44.5 -163 -44.5c-72.667 0 -130.334 16 -173.001 48s-64.667 74 -66 126v0z" />
    <glyph glyph-name="underscore" unicode="&#xbf;" horiz-adv-x="307"
d="M106 539h95v-539h-95v539v0zM30 644v98h98v-98h-98v0zM179 644v98h98v-98h-98v0z" />
    <glyph glyph-name="underscore" unicode="&#x457;" horiz-adv-x="307"
d="M106 539h95v-539h-95v539v0zM30 644v98h98v-98h-98v0zM179 644v98h98v-98h-98v0z" />
    <glyph glyph-name="grave" unicode="&#xc0;" horiz-adv-x="661"
d="M173 192l-70 -192h-107l281 742h107l281 -742h-107l-71 192h-314v0zM200 276h260l-130 365l-130 -365v0z" />
    <glyph glyph-name="grave" unicode="&#x410;" horiz-adv-x="661"
d="M173 192l-70 -192h-107l281 742h107l281 -742h-107l-71 192h-314v0zM200 276h260l-130 365l-130 -365v0z" />
    <glyph glyph-name="a" unicode="&#xc1;" horiz-adv-x="710"
d="M190 658l0.000976562 -222h228c89.333 0 151.333 -18.333 186 -55s55 -77 61 -121c1.33301 -7.33301 2.16602 -14.833 2.49902 -22.5s0.5 -15.167 0.5 -22.5c0 -10.667 -0.666992 -22.167 -2 -34.5s-4 -24.5 -8 -36.5c-10.667 -36.667 -33.667 -70 -69 -100
s-92 -44.667 -170 -44h-329v742h527v-84h-427v0zM190.001 352v-268h208c45.333 0 84.333 9 117 27s49 52.333 49 103c0 41.333 -9.83301 71.5 -29.5 90.5s-41.167 31.833 -64.5 38.5c-13.333 4 -26.333 6.5 -39 7.5s-23.667 1.5 -33 1.5h-208v0z" />
    <glyph glyph-name="a" unicode="&#x411;" horiz-adv-x="710"
d="M190 658l0.000976562 -222h228c89.333 0 151.333 -18.333 186 -55s55 -77 61 -121c1.33301 -7.33301 2.16602 -14.833 2.49902 -22.5s0.5 -15.167 0.5 -22.5c0 -10.667 -0.666992 -22.167 -2 -34.5s-4 -24.5 -8 -36.5c-10.667 -36.667 -33.667 -70 -69 -100
s-92 -44.667 -170 -44h-329v742h527v-84h-427v0zM190.001 352v-268h208c45.333 0 84.333 9 117 27s49 52.333 49 103c0 41.333 -9.83301 71.5 -29.5 90.5s-41.167 31.833 -64.5 38.5c-13.333 4 -26.333 6.5 -39 7.5s-23.667 1.5 -33 1.5h-208v0z" />
    <glyph glyph-name="b" unicode="&#xc2;" horiz-adv-x="733"
d="M90 742l326 0.00195312c71.333 0 122.5 -13.167 153.5 -39.5s50.833 -55.5 59.5 -87.5c3.33301 -10.667 5.5 -21.334 6.5 -32.001s1.5 -20.667 1.5 -30c0 -44.667 -12.667 -80.5 -38 -107.5s-54 -44.167 -86 -51.5v-3l12 -2c4 -0.666992 8 -1.66699 12 -3
c33.333 -8.66699 64 -27 92 -55s42 -69.333 42 -124c0 -66.667 -17.667 -114.334 -53 -143.001s-74.333 -47 -117 -55c-17.333 -4 -34.333 -6.5 -51 -7.5s-32 -1.5 -46 -1.5h-314v742v0zM190 343.002l-0.000976562 -259.001h206h8.5h9.5c38 1.33301 73 10.333 105 27
s48 51.334 48 104.001c0 45.333 -14.167 78 -42.5 98s-71.166 30 -128.499 30h-206v0zM189.999 658.001l0.00195312 -231h200c52.667 0 89.167 10.5 109.5 31.5s31.833 44.167 34.5 69.5c0.666992 2.66699 1 5.16699 1 7.5v7.5c0 6.66699 -0.5 14.167 -1.5 22.5
s-3.5 17.166 -7.5 26.499c-6.66699 16.667 -19.834 31.834 -39.501 45.501s-50.834 20.5 -93.501 20.5h-203v0z" />
    <glyph glyph-name="b" unicode="&#x412;" horiz-adv-x="733"
d="M90 742l326 0.00195312c71.333 0 122.5 -13.167 153.5 -39.5s50.833 -55.5 59.5 -87.5c3.33301 -10.667 5.5 -21.334 6.5 -32.001s1.5 -20.667 1.5 -30c0 -44.667 -12.667 -80.5 -38 -107.5s-54 -44.167 -86 -51.5v-3l12 -2c4 -0.666992 8 -1.66699 12 -3
c33.333 -8.66699 64 -27 92 -55s42 -69.333 42 -124c0 -66.667 -17.667 -114.334 -53 -143.001s-74.333 -47 -117 -55c-17.333 -4 -34.333 -6.5 -51 -7.5s-32 -1.5 -46 -1.5h-314v742v0zM190 343.002l-0.000976562 -259.001h206h8.5h9.5c38 1.33301 73 10.333 105 27
s48 51.334 48 104.001c0 45.333 -14.167 78 -42.5 98s-71.166 30 -128.499 30h-206v0zM189.999 658.001l0.00195312 -231h200c52.667 0 89.167 10.5 109.5 31.5s31.833 44.167 34.5 69.5c0.666992 2.66699 1 5.16699 1 7.5v7.5c0 6.66699 -0.5 14.167 -1.5 22.5
s-3.5 17.166 -7.5 26.499c-6.66699 16.667 -19.834 31.834 -39.501 45.501s-50.834 20.5 -93.501 20.5h-203v0z" />
    <glyph glyph-name="c" unicode="&#xc3;" horiz-adv-x="577"
d="M190 658v-658h-100v742h473v-84h-373v0z" />
    <glyph glyph-name="c" unicode="&#x413;" horiz-adv-x="577"
d="M190 658v-658h-100v742h473v-84h-373v0z" />
    <glyph glyph-name="d" unicode="&#xc4;" horiz-adv-x="782"
d="M661 84l106.999 0.000976562l-9 -252h-87v168h-577v-168h-87l-8 252h67c55.333 71.333 91.333 149.166 108 233.499s26.334 174.833 29.001 271.5l4 153h453v-658v0zM560.999 658.001l-254.001 0.000976562l-3 -92v-9c0 -3.33301 -0.333008 -6.33301 -1 -9
c-1.33301 -58.667 -6.66602 -126.167 -15.999 -202.5s-37.666 -154.5 -84.999 -234.5c-2.66699 -4 -5.33398 -8.33301 -8.00098 -13s-5.66699 -9.33398 -9 -14.001h376v574v0z" />
    <glyph glyph-name="d" unicode="&#x414;" horiz-adv-x="782"
d="M661 84l106.999 0.000976562l-9 -252h-87v168h-577v-168h-87l-8 252h67c55.333 71.333 91.333 149.166 108 233.499s26.334 174.833 29.001 271.5l4 153h453v-658v0zM560.999 658.001l-254.001 0.000976562l-3 -92v-9c0 -3.33301 -0.333008 -6.33301 -1 -9
c-1.33301 -58.667 -6.66602 -126.167 -15.999 -202.5s-37.666 -154.5 -84.999 -234.5c-2.66699 -4 -5.33398 -8.33301 -8.00098 -13s-5.66699 -9.33398 -9 -14.001h376v574v0z" />
    <glyph glyph-name="e" unicode="&#xc5;" horiz-adv-x="649"
d="M190 425h389v-84h-389v-257h441v-84h-541v742h529v-84h-429v-233v0z" />
    <glyph glyph-name="e" unicode="&#x415;" horiz-adv-x="649"
d="M190 425h389v-84h-389v-257h441v-84h-541v742h529v-84h-429v-233v0z" />
    <glyph glyph-name="f" unicode="&#xc6;" horiz-adv-x="963"
d="M431 0v370l-314 -370h-121l342 398l-328 344h119l302 -326v326h100v-326l302 326h119l-328 -344l343 -398h-122l-314 370v-370h-100v0z" />
    <glyph glyph-name="f" unicode="&#x416;" horiz-adv-x="963"
d="M431 0v370l-314 -370h-121l342 398l-328 344h119l302 -326v326h100v-326l302 326h119l-328 -344l343 -398h-122l-314 370v-370h-100v0z" />
    <glyph glyph-name="g" unicode="&#xc7;" horiz-adv-x="712"
d="M48 228l98.9971 -0.00292969c0.666992 -8.66699 1.83398 -18.167 3.50098 -28.5s4.5 -20.833 8.5 -31.5c10.667 -26 30.834 -50 60.501 -72s75.834 -33 138.501 -33c52.667 0 92 8.66699 118 26s44 36.333 54 57c6 12 9.83301 23.5 11.5 34.5s2.5 20.5 2.5 28.5
c0 7.33301 -0.5 15 -1.5 23s-2.5 16.333 -4.5 25c-7.33301 22.667 -22.833 43.5 -46.5 62.5s-62.834 28.5 -117.501 28.5h-97v84h88c8 0 17.5 0.5 28.5 1.5s22.167 3.16699 33.5 6.5c22 6 42 17.167 60 33.5s27 41.833 27 76.5c0 37.333 -14.333 67.666 -43 90.999
s-71.334 35 -128.001 35c-56 0 -96.833 -9.5 -122.5 -28.5s-42.834 -39.833 -51.501 -62.5c-3.33301 -8.66699 -5.66602 -17.167 -6.99902 -25.5s-2 -16.166 -2 -23.499h-98c3.33301 63.333 20.5 110.5 51.5 141.5s64.833 52.5 101.5 64.5
c27.333 8.66699 53.5 13.834 78.5 15.501s44.167 2.5 57.5 2.5c14 0 31.833 -1 53.5 -3s44.167 -6.66699 67.5 -14c36.667 -10.667 70.167 -30.167 100.5 -58.5s45.5 -70.833 45.5 -127.5c0 -44 -10 -77.833 -30 -101.5s-42 -40.5 -66 -50.5
c-5.33301 -2.66699 -10.666 -4.66699 -15.999 -6l-16 -4v-2c46 -9.33301 80.333 -25.166 103 -47.499s38 -46.166 46 -71.499c4.66699 -13.333 7.66699 -26.5 9 -39.5s2 -24.833 2 -35.5c0 -12 -1 -24.667 -3 -38s-5.66699 -27 -11 -41
c-13.333 -35.333 -40.166 -67.5 -80.499 -96.5s-103.833 -43.5 -190.5 -43.5c-118.667 0 -200.667 24.667 -246 74s-69 107.333 -71 174v0z" />
    <glyph glyph-name="g" unicode="&#x417;" horiz-adv-x="712"
d="M48 228l98.9971 -0.00292969c0.666992 -8.66699 1.83398 -18.167 3.50098 -28.5s4.5 -20.833 8.5 -31.5c10.667 -26 30.834 -50 60.501 -72s75.834 -33 138.501 -33c52.667 0 92 8.66699 118 26s44 36.333 54 57c6 12 9.83301 23.5 11.5 34.5s2.5 20.5 2.5 28.5
c0 7.33301 -0.5 15 -1.5 23s-2.5 16.333 -4.5 25c-7.33301 22.667 -22.833 43.5 -46.5 62.5s-62.834 28.5 -117.501 28.5h-97v84h88c8 0 17.5 0.5 28.5 1.5s22.167 3.16699 33.5 6.5c22 6 42 17.167 60 33.5s27 41.833 27 76.5c0 37.333 -14.333 67.666 -43 90.999
s-71.334 35 -128.001 35c-56 0 -96.833 -9.5 -122.5 -28.5s-42.834 -39.833 -51.501 -62.5c-3.33301 -8.66699 -5.66602 -17.167 -6.99902 -25.5s-2 -16.166 -2 -23.499h-98c3.33301 63.333 20.5 110.5 51.5 141.5s64.833 52.5 101.5 64.5
c27.333 8.66699 53.5 13.834 78.5 15.501s44.167 2.5 57.5 2.5c14 0 31.833 -1 53.5 -3s44.167 -6.66699 67.5 -14c36.667 -10.667 70.167 -30.167 100.5 -58.5s45.5 -70.833 45.5 -127.5c0 -44 -10 -77.833 -30 -101.5s-42 -40.5 -66 -50.5
c-5.33301 -2.66699 -10.666 -4.66699 -15.999 -6l-16 -4v-2c46 -9.33301 80.333 -25.166 103 -47.499s38 -46.166 46 -71.499c4.66699 -13.333 7.66699 -26.5 9 -39.5s2 -24.833 2 -35.5c0 -12 -1 -24.667 -3 -38s-5.66699 -27 -11 -41
c-13.333 -35.333 -40.166 -67.5 -80.499 -96.5s-103.833 -43.5 -190.5 -43.5c-118.667 0 -200.667 24.667 -246 74s-69 107.333 -71 174v0z" />
    <glyph glyph-name="h" unicode="&#xc8;" horiz-adv-x="775"
d="M190 145l395 597h100v-742h-100v601l-395 -601h-100v742h100v-597v0z" />
    <glyph glyph-name="h" unicode="&#x418;" horiz-adv-x="775"
d="M190 145l395 597h100v-742h-100v601l-395 -601h-100v742h100v-597v0z" />
    <glyph glyph-name="i" unicode="&#xc9;" horiz-adv-x="775"
d="M190 145l395 597h100v-742h-100v601l-395 -601h-100v742h100v-597v0zM206 910h78.002c4.66699 -28.667 15.167 -49.834 31.5 -63.501s40.5 -20.5 72.5 -20.5c30.667 0 53.5 6.33301 68.5 19s25.167 26.667 30.5 42c1.33301 4 2.33301 8 3 12s1 7.66699 1 11h79
c-0.666992 -2.66699 -1.33398 -5.16699 -2.00098 -7.5s-1.33398 -4.83301 -2.00098 -7.5c-8 -31.333 -25.333 -60 -52 -86s-68.667 -39 -126 -39c-47.333 0 -83.5 8.66699 -108.5 26s-43.167 36.333 -54.5 57c-6 10.667 -10.333 20.834 -13 30.501s-4.66699 18.5 -6 26.5v0z
" />
    <glyph glyph-name="i" unicode="&#x419;" horiz-adv-x="775"
d="M190 145l395 597h100v-742h-100v601l-395 -601h-100v742h100v-597v0zM206 910h78.002c4.66699 -28.667 15.167 -49.834 31.5 -63.501s40.5 -20.5 72.5 -20.5c30.667 0 53.5 6.33301 68.5 19s25.167 26.667 30.5 42c1.33301 4 2.33301 8 3 12s1 7.66699 1 11h79
c-0.666992 -2.66699 -1.33398 -5.16699 -2.00098 -7.5s-1.33398 -4.83301 -2.00098 -7.5c-8 -31.333 -25.333 -60 -52 -86s-68.667 -39 -126 -39c-47.333 0 -83.5 8.66699 -108.5 26s-43.167 36.333 -54.5 57c-6 10.667 -10.333 20.834 -13 30.501s-4.66699 18.5 -6 26.5v0z
" />
    <glyph glyph-name="j" unicode="&#xca;" horiz-adv-x="665"
d="M190 404l334 338h122l-353 -343l376 -399h-131l-348 387v-387h-100v742h100v-338v0z" />
    <glyph glyph-name="j" unicode="&#x41a;" horiz-adv-x="665"
d="M190 404l334 338h122l-353 -343l376 -399h-131l-348 387v-387h-100v742h100v-338v0z" />
    <glyph glyph-name="k" unicode="&#xcb;" horiz-adv-x="751"
d="M14 0l0.000976562 87.001c5.33301 -0.666992 10.166 -1.33398 14.499 -2.00098s8.83301 -1 13.5 -1c56.667 0.666992 94.334 32.5 113.001 95.5s29.667 132.167 33 207.5c0 6 0.166992 12 0.5 18s0.5 12 0.5 18l7 319h465v-742h-100v658h-266l-7 -256
c-0.666992 -22 -1.66699 -46.333 -3 -73s-4.33301 -54 -9 -82c-9.33301 -62.667 -29.333 -120 -60 -172s-83 -78 -157 -78c-6.66699 0 -13.834 0.333008 -21.501 1l-23.5 2v0z" />
    <glyph glyph-name="k" unicode="&#x41b;" horiz-adv-x="751"
d="M14 0l0.000976562 87.001c5.33301 -0.666992 10.166 -1.33398 14.499 -2.00098s8.83301 -1 13.5 -1c56.667 0.666992 94.334 32.5 113.001 95.5s29.667 132.167 33 207.5c0 6 0.166992 12 0.5 18s0.5 12 0.5 18l7 319h465v-742h-100v658h-266l-7 -256
c-0.666992 -22 -1.66699 -46.333 -3 -73s-4.33301 -54 -9 -82c-9.33301 -62.667 -29.333 -120 -60 -172s-83 -78 -157 -78c-6.66699 0 -13.834 0.333008 -21.501 1l-23.5 2v0z" />
    <glyph glyph-name="l" unicode="&#xcc;" horiz-adv-x="942"
d="M431 0l-241 623h-2l2 -28v-595h-100v742h149l232 -611l232 611h149v-742h-100v595l3 28h-3l-241 -623h-80v0z" />
    <glyph glyph-name="l" unicode="&#x41c;" horiz-adv-x="942"
d="M431 0l-241 623h-2l2 -28v-595h-100v742h149l232 -611l232 611h149v-742h-100v595l3 28h-3l-241 -623h-80v0z" />
    <glyph glyph-name="m" unicode="&#xcd;" horiz-adv-x="753"
d="M190 349v-349h-100v742h100v-309h373v309h100v-742h-100v349h-373v0z" />
    <glyph glyph-name="m" unicode="&#x41d;" horiz-adv-x="753"
d="M190 349v-349h-100v742h100v-309h373v309h100v-742h-100v349h-373v0z" />
    <glyph glyph-name="n" unicode="&#xce;" horiz-adv-x="804"
d="M402 -22c-114.667 0.666992 -202.333 36.167 -263 106.5s-91 165.833 -91 286.5c0 119.333 30.833 214.666 92.5 285.999s148.834 107 261.501 107c113.333 0 200.666 -35.667 261.999 -107s92 -166.666 92 -285.999c0 -120.667 -30.5 -216.167 -91.5 -286.5
s-148.5 -105.5 -262.5 -105.5v-1zM402.001 62c84.667 0 147.166 28.832 187.499 86.499s60.5 131.834 60.5 222.501c0 97.333 -17.5 168 -52.5 212s-73.833 72.667 -116.5 86c-13.333 4 -26.833 6.83301 -40.5 8.5s-26.5 2.5 -38.5 2.5c-12.667 0 -29.167 -1.5 -49.5 -4.5
s-41.5 -9.83301 -63.5 -20.5c-34 -16 -65 -45.5 -93 -88.5s-42 -108.167 -42 -195.5c0 -8.66699 0.166992 -17.5 0.5 -26.5s0.833008 -17.833 1.5 -26.5c6 -64 26.833 -122.667 62.5 -176s96.834 -80 183.501 -80v0z" />
    <glyph glyph-name="n" unicode="&#x41e;" horiz-adv-x="804"
d="M402 -22c-114.667 0.666992 -202.333 36.167 -263 106.5s-91 165.833 -91 286.5c0 119.333 30.833 214.666 92.5 285.999s148.834 107 261.501 107c113.333 0 200.666 -35.667 261.999 -107s92 -166.666 92 -285.999c0 -120.667 -30.5 -216.167 -91.5 -286.5
s-148.5 -105.5 -262.5 -105.5v-1zM402.001 62c84.667 0 147.166 28.832 187.499 86.499s60.5 131.834 60.5 222.501c0 97.333 -17.5 168 -52.5 212s-73.833 72.667 -116.5 86c-13.333 4 -26.833 6.83301 -40.5 8.5s-26.5 2.5 -38.5 2.5c-12.667 0 -29.167 -1.5 -49.5 -4.5
s-41.5 -9.83301 -63.5 -20.5c-34 -16 -65 -45.5 -93 -88.5s-42 -108.167 -42 -195.5c0 -8.66699 0.166992 -17.5 0.5 -26.5s0.833008 -17.833 1.5 -26.5c6 -64 26.833 -122.667 62.5 -176s96.834 -80 183.501 -80v0z" />
    <glyph glyph-name="o" unicode="&#xcf;" horiz-adv-x="756"
d="M190 658v-658h-100v742h576v-742h-100v658h-376v0z" />
    <glyph glyph-name="o" unicode="&#x41f;" horiz-adv-x="756"
d="M190 658v-658h-100v742h576v-742h-100v658h-376v0z" />
    <glyph glyph-name="p" unicode="&#xd0;" horiz-adv-x="678"
d="M90 742l302.001 -0.000976562c83.333 0 146.166 -17.667 188.499 -53s63.5 -88.666 63.5 -159.999c0 -62.667 -18 -117.167 -54 -163.5s-105 -69.5 -207 -69.5h-193v-296h-100v742v0zM190.001 657.999v-277.999h182c66.667 0 111.667 14.167 135 42.5
s35 63.166 35 104.499c0 49.333 -15.333 83.5 -46 102.5s-72 28.5 -124 28.5h-182v0z" />
    <glyph glyph-name="p" unicode="&#x420;" horiz-adv-x="678"
d="M90 742l302.001 -0.000976562c83.333 0 146.166 -17.667 188.499 -53s63.5 -88.666 63.5 -159.999c0 -62.667 -18 -117.167 -54 -163.5s-105 -69.5 -207 -69.5h-193v-296h-100v742v0zM190.001 657.999v-277.999h182c66.667 0 111.667 14.167 135 42.5
s35 63.166 35 104.499c0 49.333 -15.333 83.5 -46 102.5s-72 28.5 -124 28.5h-182v0z" />
    <glyph glyph-name="q" unicode="&#xd1;" horiz-adv-x="758"
d="M615 246l103.002 0.000976562c-1.33301 -14.667 -4.33301 -31.334 -9 -50.001s-11.667 -37.667 -21 -57c-18.667 -40 -50 -76.5 -94 -109.5s-108.333 -49.5 -193 -49.5c-10.667 0 -32.834 1.66699 -66.501 5s-69.167 14 -106.5 32
c-45.333 21.333 -86.666 58 -123.999 110s-56 129 -56 231c0 13.333 1.33301 39 4 77s12 78.333 28 121c20 52 54 99.5 102 142.5s120 64.5 216 64.5c91.333 0 158.833 -17.167 202.5 -51.5s73.167 -72.5 88.5 -114.5c5.33301 -14.667 9.33301 -29.167 12 -43.5
s4.66699 -27.833 6 -40.5h-102c-0.666992 8 -1.83398 16.333 -3.50098 25s-4.16699 17.334 -7.5 26.001c-10.667 28.667 -31 55 -61 79s-75 36 -135 36c-86.667 0 -149 -30 -187 -90s-57 -135.667 -57 -227c0 -76 20.667 -144.833 62 -206.5s104.333 -92.5 189 -92.5
c65.333 0 115.666 18.667 150.999 56s55 79.666 59 126.999v0z" />
    <glyph glyph-name="q" unicode="&#x421;" horiz-adv-x="758"
d="M615 246l103.002 0.000976562c-1.33301 -14.667 -4.33301 -31.334 -9 -50.001s-11.667 -37.667 -21 -57c-18.667 -40 -50 -76.5 -94 -109.5s-108.333 -49.5 -193 -49.5c-10.667 0 -32.834 1.66699 -66.501 5s-69.167 14 -106.5 32
c-45.333 21.333 -86.666 58 -123.999 110s-56 129 -56 231c0 13.333 1.33301 39 4 77s12 78.333 28 121c20 52 54 99.5 102 142.5s120 64.5 216 64.5c91.333 0 158.833 -17.167 202.5 -51.5s73.167 -72.5 88.5 -114.5c5.33301 -14.667 9.33301 -29.167 12 -43.5
s4.66699 -27.833 6 -40.5h-102c-0.666992 8 -1.83398 16.333 -3.50098 25s-4.16699 17.334 -7.5 26.001c-10.667 28.667 -31 55 -61 79s-75 36 -135 36c-86.667 0 -149 -30 -187 -90s-57 -135.667 -57 -227c0 -76 20.667 -144.833 62 -206.5s104.333 -92.5 189 -92.5
c65.333 0 115.666 18.667 150.999 56s55 79.666 59 126.999v0z" />
    <glyph glyph-name="Scaron" unicode="&#xd2;" horiz-adv-x="610"
d="M255 658h-241v84h582v-84h-241v-658h-100v658v0z" />
    <glyph glyph-name="Scaron" unicode="&#x422;" horiz-adv-x="610"
d="M255 658h-241v84h582v-84h-241v-658h-100v658v0z" />
    <glyph glyph-name="r" unicode="&#xd3;" horiz-adv-x="623"
d="M344 296l179.002 446h104l-251 -610c-26.667 -65.333 -56.167 -105.333 -88.5 -120s-65.5 -22 -99.5 -22c-11.333 0 -22 0.5 -32 1.5s-19.667 2.5 -29 4.5c-4 0.666992 -7.66699 1.5 -11 2.5s-7 1.5 -11 1.5v87c6.66699 -2 13.667 -3.83301 21 -5.5
s14.666 -3.16699 21.999 -4.5c4.66699 -0.666992 9.33398 -1.16699 14.001 -1.5s9 -0.5 13 -0.5h4h3c21.333 1.33301 41.666 8.83301 60.999 22.5s35.666 42.5 48.999 86.5l-282 558h121l213 -446v0z" />
    <glyph glyph-name="r" unicode="&#x423;" horiz-adv-x="623"
d="M344 296l179.002 446h104l-251 -610c-26.667 -65.333 -56.167 -105.333 -88.5 -120s-65.5 -22 -99.5 -22c-11.333 0 -22 0.5 -32 1.5s-19.667 2.5 -29 4.5c-4 0.666992 -7.66699 1.5 -11 2.5s-7 1.5 -11 1.5v87c6.66699 -2 13.667 -3.83301 21 -5.5
s14.666 -3.16699 21.999 -4.5c4.66699 -0.666992 9.33398 -1.16699 14.001 -1.5s9 -0.5 13 -0.5h4h3c21.333 1.33301 41.666 8.83301 60.999 22.5s35.666 42.5 48.999 86.5l-282 558h121l213 -446v0z" />
    <glyph glyph-name="t" unicode="&#xd4;" horiz-adv-x="944"
d="M422 -28l-0.00390625 112h-41c-18.667 0 -40.667 1.5 -66 4.5s-51.666 8.83301 -78.999 17.5c-47.333 15.333 -91 43.5 -131 84.5s-60 103.5 -60 187.5c0 84.667 20 147.5 60 188.5s84.333 69.167 133 84.5c26.667 8.66699 52.5 14.334 77.5 17.001s46.833 4 65.5 4h41
v112h100v-112h41c18.667 0 40.334 -1.33301 65.001 -4s50 -8 76 -16c48.667 -14.667 93.334 -42.5 134.001 -83.5s61 -104.5 61 -190.5c0 -80 -18.5 -140.333 -55.5 -181s-77.5 -69.334 -121.5 -86.001c-32 -12 -62.667 -19.5 -92 -22.5s-51.666 -4.5 -66.999 -4.5h-41v-112
h-100v0zM421.996 162l-0.000976562 432h-28c-75.333 0 -130 -13.5 -164 -40.5s-56.667 -56.5 -68 -88.5c-5.33301 -16 -8.83301 -31.5 -10.5 -46.5s-2.5 -28.5 -2.5 -40.5s0.666992 -25 2 -39s4.33301 -28.333 9 -43c10 -33.333 31.833 -64 65.5 -92s89.834 -42 168.501 -42
h28v0zM521.995 162l27.9971 -0.000976562c13.333 0 28.333 0.666992 45 2s33.667 4 51 8c37.333 9.33301 71.5 28.833 102.5 58.5s46.5 78.834 46.5 147.501c0 68 -15.667 117 -47 147s-65.666 49.667 -102.999 59c-17.333 4 -34.166 6.66699 -50.499 8s-31.166 2 -44.499 2
h-28v-432v0z" />
    <glyph glyph-name="t" unicode="&#x424;" horiz-adv-x="944"
d="M422 -28l-0.00390625 112h-41c-18.667 0 -40.667 1.5 -66 4.5s-51.666 8.83301 -78.999 17.5c-47.333 15.333 -91 43.5 -131 84.5s-60 103.5 -60 187.5c0 84.667 20 147.5 60 188.5s84.333 69.167 133 84.5c26.667 8.66699 52.5 14.334 77.5 17.001s46.833 4 65.5 4h41
v112h100v-112h41c18.667 0 40.334 -1.33301 65.001 -4s50 -8 76 -16c48.667 -14.667 93.334 -42.5 134.001 -83.5s61 -104.5 61 -190.5c0 -80 -18.5 -140.333 -55.5 -181s-77.5 -69.334 -121.5 -86.001c-32 -12 -62.667 -19.5 -92 -22.5s-51.666 -4.5 -66.999 -4.5h-41v-112
h-100v0zM421.996 162l-0.000976562 432h-28c-75.333 0 -130 -13.5 -164 -40.5s-56.667 -56.5 -68 -88.5c-5.33301 -16 -8.83301 -31.5 -10.5 -46.5s-2.5 -28.5 -2.5 -40.5s0.666992 -25 2 -39s4.33301 -28.333 9 -43c10 -33.333 31.833 -64 65.5 -92s89.834 -42 168.501 -42
h28v0zM521.995 162l27.9971 -0.000976562c13.333 0 28.333 0.666992 45 2s33.667 4 51 8c37.333 9.33301 71.5 28.833 102.5 58.5s46.5 78.834 46.5 147.501c0 68 -15.667 117 -47 147s-65.666 49.667 -102.999 59c-17.333 4 -34.166 6.66699 -50.499 8s-31.166 2 -44.499 2
h-28v-432v0z" />
    <glyph glyph-name="u" unicode="&#xd5;" horiz-adv-x="643"
d="M323 308l-195 -308h-128l260 380l-246 362h124l186 -291l189 291h115l-244 -360l259 -382h-126l-194 308v0z" />
    <glyph glyph-name="u" unicode="&#x425;" horiz-adv-x="643"
d="M323 308l-195 -308h-128l260 380l-246 362h124l186 -291l189 291h115l-244 -360l259 -382h-126l-194 308v0z" />
    <glyph glyph-name="zero" unicode="&#xd6;" horiz-adv-x="784"
d="M190 84h376v658h100v-658h104l-8 -252h-87v168h-585v742h100v-658v0z" />
    <glyph glyph-name="zero" unicode="&#x426;" horiz-adv-x="784"
d="M190 84h376v658h100v-658h104l-8 -252h-87v168h-585v742h100v-658v0z" />
    <glyph glyph-name="parenright" unicode="&#xd7;" horiz-adv-x="674"
d="M62 742l99.9971 0.000976562v-217c0 -54.667 13.5 -89.334 40.5 -104.001s72.833 -22 137.5 -22c10 0 21.167 0.166992 33.5 0.5s24.833 0.833008 37.5 1.5c8 0.666992 16 1.16699 24 1.5s15.667 0.833008 23 1.5c4.66699 0.666992 9.16699 1.16699 13.5 1.5
s8.5 0.5 12.5 0.5v336h100v-742h-100v322c-6.66699 -0.666992 -14.667 -1.16699 -24 -1.5s-19.666 -0.833008 -30.999 -1.5c-5.33301 0 -10.666 -0.166992 -15.999 -0.5s-10.666 -0.833008 -15.999 -1.5c-14 -0.666992 -27.667 -1.16699 -41 -1.5s-25 -0.5 -35 -0.5
c-84.667 0 -149 11.333 -193 34s-66 76 -66 160v233v0z" />
    <glyph glyph-name="parenright" unicode="&#x427;" horiz-adv-x="674"
d="M62 742l99.9971 0.000976562v-217c0 -54.667 13.5 -89.334 40.5 -104.001s72.833 -22 137.5 -22c10 0 21.167 0.166992 33.5 0.5s24.833 0.833008 37.5 1.5c8 0.666992 16 1.16699 24 1.5s15.667 0.833008 23 1.5c4.66699 0.666992 9.16699 1.16699 13.5 1.5
s8.5 0.5 12.5 0.5v336h100v-742h-100v322c-6.66699 -0.666992 -14.667 -1.16699 -24 -1.5s-19.666 -0.833008 -30.999 -1.5c-5.33301 0 -10.666 -0.166992 -15.999 -0.5s-10.666 -0.833008 -15.999 -1.5c-14 -0.666992 -27.667 -1.16699 -41 -1.5s-25 -0.5 -35 -0.5
c-84.667 0 -149 11.333 -193 34s-66 76 -66 160v233v0z" />
    <glyph glyph-name="x" unicode="&#xd8;" horiz-adv-x="1080"
d="M190 84h300v658h100v-658h300v658h100v-742h-900v742h100v-658v0z" />
    <glyph glyph-name="x" unicode="&#x428;" horiz-adv-x="1080"
d="M190 84h300v658h100v-658h300v658h100v-742h-900v742h100v-658v0z" />
    <glyph glyph-name="y" unicode="&#xd9;" horiz-adv-x="1114"
d="M190 84h300v658h100v-658h300v658h100v-658h110l-9 -252h-87v168h-914v742h100v-658v0z" />
    <glyph glyph-name="y" unicode="&#x429;" horiz-adv-x="1114"
d="M190 84h300v658h100v-658h300v658h100v-658h110l-9 -252h-87v168h-914v742h100v-658v0z" />
    <glyph glyph-name="z" unicode="&#xda;" horiz-adv-x="868"
d="M351 742l-0.000976562 -302h213c13.333 0 29.333 -1.16699 48 -3.5s38 -6.83301 58 -13.5c34 -12 65.167 -33.5 93.5 -64.5s42.5 -78.167 42.5 -141.5c0 -61.333 -13.667 -107 -41 -137s-57.333 -50.667 -90 -62c-21.333 -8 -42.166 -13 -62.499 -15s-36.5 -3 -48.5 -3
h-313v658h-161v84h261v0zM350.999 356v-271.999h201c8 0 18 0.666992 30 2s24.333 4.66602 37 9.99902c20.667 7.33301 39.667 20.5 57 39.5s26 47.167 26 84.5c0 36.667 -11.333 68.5 -34 95.5s-65.667 40.5 -129 40.5h-188v0z" />
    <glyph glyph-name="z" unicode="&#x42a;" horiz-adv-x="868"
d="M351 742l-0.000976562 -302h213c13.333 0 29.333 -1.16699 48 -3.5s38 -6.83301 58 -13.5c34 -12 65.167 -33.5 93.5 -64.5s42.5 -78.167 42.5 -141.5c0 -61.333 -13.667 -107 -41 -137s-57.333 -50.667 -90 -62c-21.333 -8 -42.166 -13 -62.499 -15s-36.5 -3 -48.5 -3
h-313v658h-161v84h261v0zM350.999 356v-271.999h201c8 0 18 0.666992 30 2s24.333 4.66602 37 9.99902c20.667 7.33301 39.667 20.5 57 39.5s26 47.167 26 84.5c0 36.667 -11.333 68.5 -34 95.5s-65.667 40.5 -129 40.5h-188v0z" />
    <glyph glyph-name="braceleft" unicode="&#xdb;" horiz-adv-x="910"
d="M190 742l0.000976562 -301.999h214v0v0c6.66699 0 21.5 -1 44.5 -3s47.833 -8.66699 74.5 -20c30.667 -12.667 58.667 -34.334 84 -65.001s38 -75.667 38 -135c0 -69.333 -17.5 -119.5 -52.5 -150.5s-73.167 -50.833 -114.5 -59.5
c-12.667 -2.66699 -25.334 -4.5 -38.001 -5.5s-24.667 -1.5 -36 -1.5h-314v742h100v0zM190.001 356.001v-272h200c6.66699 0 13.5 0.333008 20.5 1s14.167 1.66699 21.5 3c27.333 5.33301 52.333 18 75 38s34 51.333 34 94c0 36.667 -11.833 68.5 -35.5 95.5
s-66.167 40.5 -127.5 40.5h-188v0zM720.001 742.001h100v-742h-100v742v0z" />
    <glyph glyph-name="braceleft" unicode="&#x42b;" horiz-adv-x="910"
d="M190 742l0.000976562 -301.999h214v0v0c6.66699 0 21.5 -1 44.5 -3s47.833 -8.66699 74.5 -20c30.667 -12.667 58.667 -34.334 84 -65.001s38 -75.667 38 -135c0 -69.333 -17.5 -119.5 -52.5 -150.5s-73.167 -50.833 -114.5 -59.5
c-12.667 -2.66699 -25.334 -4.5 -38.001 -5.5s-24.667 -1.5 -36 -1.5h-314v742h100v0zM190.001 356.001v-272h200c6.66699 0 13.5 0.333008 20.5 1s14.167 1.66699 21.5 3c27.333 5.33301 52.333 18 75 38s34 51.333 34 94c0 36.667 -11.833 68.5 -35.5 95.5
s-66.167 40.5 -127.5 40.5h-188v0zM720.001 742.001h100v-742h-100v742v0z" />
    <glyph glyph-name="bar" unicode="&#xdc;" horiz-adv-x="679"
d="M190 742l-0.000976562 -302h213c13.333 0 29.333 -1.16699 48 -3.5s38 -6.83301 58 -13.5c34 -12 65.167 -33.5 93.5 -64.5s42.5 -78.167 42.5 -141.5c0 -61.333 -13.667 -107 -41 -137s-57.333 -50.667 -90 -62c-21.333 -8 -42.166 -13 -62.499 -15s-36.5 -3 -48.5 -3
h-313v742h100v0zM189.999 356v-271.999h201c8 0 18 0.666992 30 2s24.333 4.66602 37 9.99902c20.667 7.33301 39.667 20.5 57 39.5s26 47.167 26 84.5c0 36.667 -11.333 68.5 -34 95.5s-65.667 40.5 -129 40.5h-188v0z" />
    <glyph glyph-name="bar" unicode="&#x42c;" horiz-adv-x="679"
d="M190 742l-0.000976562 -302h213c13.333 0 29.333 -1.16699 48 -3.5s38 -6.83301 58 -13.5c34 -12 65.167 -33.5 93.5 -64.5s42.5 -78.167 42.5 -141.5c0 -61.333 -13.667 -107 -41 -137s-57.333 -50.667 -90 -62c-21.333 -8 -42.166 -13 -62.499 -15s-36.5 -3 -48.5 -3
h-313v742h100v0zM189.999 356v-271.999h201c8 0 18 0.666992 30 2s24.333 4.66602 37 9.99902c20.667 7.33301 39.667 20.5 57 39.5s26 47.167 26 84.5c0 36.667 -11.333 68.5 -34 95.5s-65.667 40.5 -129 40.5h-188v0z" />
    <glyph glyph-name="braceright" unicode="&#xdd;" horiz-adv-x="766"
d="M161 526l-101.997 -0.00195312c0.666992 10 2.16699 20.167 4.5 30.5s5.16602 20.833 8.49902 31.5c15.333 44 45.666 84.333 90.999 121s112.333 55 201 55c103.333 0 179.833 -24 229.5 -72s83.5 -100.667 101.5 -158c9.33301 -28 15.5 -55.5 18.5 -82.5
s4.5 -51.167 4.5 -72.5c0 -22 -1.33301 -48.167 -4 -78.5s-8.66699 -61.166 -18 -92.499c-17.333 -58 -50.333 -111 -99 -159s-125 -72 -229 -72c-84 0 -148.333 17.5 -193 52.5s-77 73.833 -97 116.5c-9.33301 20 -16.333 39.833 -21 59.5s-7.66699 37.167 -9 52.5h103
c0.666992 -8 2 -16 4 -24s4.33301 -16 7 -24c11.333 -37.333 33.5 -71.666 66.5 -102.999s80.833 -47 143.5 -47c72.667 0 126.167 18 160.5 54s57.166 75.667 68.499 119c4 15.333 6.83301 30.833 8.5 46.5s2.5 30.5 2.5 44.5v9v8h-350v84h350
c-6 77.333 -23.5 133.833 -52.5 169.5s-60.167 59.5 -93.5 71.5c-16.667 6 -33 9.83301 -49 11.5s-30.667 2.5 -44 2.5c-60 0 -109 -14.167 -147 -42.5s-59.667 -65.5 -65 -111.5v0z" />
    <glyph glyph-name="braceright" unicode="&#x42d;" horiz-adv-x="766"
d="M161 526l-101.997 -0.00195312c0.666992 10 2.16699 20.167 4.5 30.5s5.16602 20.833 8.49902 31.5c15.333 44 45.666 84.333 90.999 121s112.333 55 201 55c103.333 0 179.833 -24 229.5 -72s83.5 -100.667 101.5 -158c9.33301 -28 15.5 -55.5 18.5 -82.5
s4.5 -51.167 4.5 -72.5c0 -22 -1.33301 -48.167 -4 -78.5s-8.66699 -61.166 -18 -92.499c-17.333 -58 -50.333 -111 -99 -159s-125 -72 -229 -72c-84 0 -148.333 17.5 -193 52.5s-77 73.833 -97 116.5c-9.33301 20 -16.333 39.833 -21 59.5s-7.66699 37.167 -9 52.5h103
c0.666992 -8 2 -16 4 -24s4.33301 -16 7 -24c11.333 -37.333 33.5 -71.666 66.5 -102.999s80.833 -47 143.5 -47c72.667 0 126.167 18 160.5 54s57.166 75.667 68.499 119c4 15.333 6.83301 30.833 8.5 46.5s2.5 30.5 2.5 44.5v9v8h-350v84h350
c-6 77.333 -23.5 133.833 -52.5 169.5s-60.167 59.5 -93.5 71.5c-16.667 6 -33 9.83301 -49 11.5s-30.667 2.5 -44 2.5c-60 0 -109 -14.167 -147 -42.5s-59.667 -65.5 -65 -111.5v0z" />
    <glyph glyph-name="asciitilde" unicode="&#xde;" horiz-adv-x="1053"
d="M190 432l111.001 -0.00195312c0.666992 13.333 2.16699 27 4.5 41s5.16602 28 8.49902 42c17.333 62 52.333 119 105 171s129.667 78 231 78c125.333 0 214.833 -38.333 268.5 -115s82.167 -161 85.5 -253c0.666992 -4 1 -8.16699 1 -12.5v-12.5
c0 -16 -1.66699 -41.667 -5 -77s-12.666 -72.666 -27.999 -111.999c-20 -51.333 -54.5 -98 -103.5 -140s-121.833 -63 -218.5 -63c-106.667 0 -185 25.667 -235 77s-83.333 108 -100 170c-6 21.333 -10.333 42.333 -13 63s-4.33398 40.334 -5.00098 59.001h-107v-348h-100
v742h100v-310v0zM651.001 61.998c86.667 0 147.834 26.668 183.501 80.001s56.5 112 62.5 176c0.666992 8.66699 1.16699 17.5 1.5 26.5s0.5 17.833 0.5 26.5c0 98 -17.833 169 -53.5 213s-74.834 72.333 -117.501 85c-13.333 4 -26.5 6.83301 -39.5 8.5
s-25.5 2.5 -37.5 2.5s-28.5 -1.5 -49.5 -4.5s-42.833 -10.167 -65.5 -21.5c-33.333 -16.667 -63.833 -46.5 -91.5 -89.5s-41.5 -107.5 -41.5 -193.5c0 -90.667 20.167 -164.834 60.5 -222.501s102.833 -86.5 187.5 -86.5v0z" />
    <glyph glyph-name="asciitilde" unicode="&#x42e;" horiz-adv-x="1053"
d="M190 432l111.001 -0.00195312c0.666992 13.333 2.16699 27 4.5 41s5.16602 28 8.49902 42c17.333 62 52.333 119 105 171s129.667 78 231 78c125.333 0 214.833 -38.333 268.5 -115s82.167 -161 85.5 -253c0.666992 -4 1 -8.16699 1 -12.5v-12.5
c0 -16 -1.66699 -41.667 -5 -77s-12.666 -72.666 -27.999 -111.999c-20 -51.333 -54.5 -98 -103.5 -140s-121.833 -63 -218.5 -63c-106.667 0 -185 25.667 -235 77s-83.333 108 -100 170c-6 21.333 -10.333 42.333 -13 63s-4.33398 40.334 -5.00098 59.001h-107v-348h-100
v742h100v-310v0zM651.001 61.998c86.667 0 147.834 26.668 183.501 80.001s56.5 112 62.5 176c0.666992 8.66699 1.16699 17.5 1.5 26.5s0.5 17.833 0.5 26.5c0 98 -17.833 169 -53.5 213s-74.834 72.333 -117.501 85c-13.333 4 -26.5 6.83301 -39.5 8.5
s-25.5 2.5 -37.5 2.5s-28.5 -1.5 -49.5 -4.5s-42.833 -10.167 -65.5 -21.5c-33.333 -16.667 -63.833 -46.5 -91.5 -89.5s-41.5 -107.5 -41.5 -193.5c0 -90.667 20.167 -164.834 60.5 -222.501s102.833 -86.5 187.5 -86.5v0z" />
    <glyph glyph-name="quotedblleft" unicode="&#xdf;" horiz-adv-x="725"
d="M563 295l-169.003 -0.000976562l-181 -295h-123l201 305c-10.667 0.666992 -24.167 2.83398 -40.5 6.50098s-33.166 9.83398 -50.499 18.501c-27.333 12.667 -52.5 33.667 -75.5 63s-34.5 71.666 -34.5 126.999v8v8c2.66699 51.333 21.834 98.5 57.501 141.5
s101.834 64.5 198.501 64.5h317v-742h-100v295v0zM562.997 657.999l-209.001 -0.00195312c-49.333 0 -85.333 -9 -108 -27s-37.667 -37.667 -45 -59c-3.33301 -9.33301 -5.66602 -18.666 -6.99902 -27.999s-2 -17.666 -2 -24.999c0 -36 11.833 -68.333 35.5 -97
s70.5 -43 140.5 -43h195v279v0z" />
    <glyph glyph-name="quotedblleft" unicode="&#x42f;" horiz-adv-x="725"
d="M563 295l-169.003 -0.000976562l-181 -295h-123l201 305c-10.667 0.666992 -24.167 2.83398 -40.5 6.50098s-33.166 9.83398 -50.499 18.501c-27.333 12.667 -52.5 33.667 -75.5 63s-34.5 71.666 -34.5 126.999v8v8c2.66699 51.333 21.834 98.5 57.501 141.5
s101.834 64.5 198.501 64.5h317v-742h-100v295v0zM562.997 657.999l-209.001 -0.00195312c-49.333 0 -85.333 -9 -108 -27s-37.667 -37.667 -45 -59c-3.33301 -9.33301 -5.66602 -18.666 -6.99902 -27.999s-2 -17.666 -2 -24.999c0 -36 11.833 -68.333 35.5 -97
s70.5 -43 140.5 -43h195v279v0z" />
    <glyph glyph-name="equal" unicode="&#xe0;" horiz-adv-x="586"
d="M147 380l-89.002 -0.000976562c0 9.33301 1 20 3 32s5.66699 24 11 36c10.667 26.667 32 50.834 64 72.501s82.333 32.5 151 32.5c67.333 0 116 -11 146 -33s49.333 -46 58 -72c4.66699 -12.667 7.5 -25 8.5 -37s1.5 -23 1.5 -33l-5 -249v-6v-6
c0 -12.667 2.33301 -24.167 7 -34.5s16 -15.166 34 -14.499h7c2.66699 0 5.33398 0.333008 8.00098 1v-69c-8.66699 -0.666992 -16.5 -1.33398 -23.5 -2.00098s-13.167 -1 -18.5 -1c-28 0 -50 5 -66 15s-26.333 30.667 -31 62c-18.667 -30.667 -44.5 -53 -77.5 -67
s-68.5 -21 -106.5 -21c-61.333 0 -108.333 13.167 -141 39.5s-49 64.833 -49 115.5c0 61.333 23.667 103.166 71 125.499s111.666 37.5 192.999 45.5c5.33301 0.666992 10.5 1.16699 15.5 1.5s9.83301 0.833008 14.5 1.5c24.667 1.33301 43.334 5.5 56.001 12.5
s19 26.5 19 58.5c0 35.333 -11 61.166 -33 77.499s-51.333 24.5 -88 24.5c-40 0 -69.667 -6 -89 -18s-32.666 -25 -39.999 -39c-4.66699 -9.33301 -7.66699 -18.166 -9 -26.499s-2 -15.166 -2 -20.499v-2v-2v0zM405.998 229.999l2.00195 46.001
c-5.33301 -5.33301 -11.833 -9.33301 -19.5 -12s-20.167 -5 -37.5 -7c-2 -0.666992 -4.16699 -1.16699 -6.5 -1.5s-4.83301 -0.5 -7.5 -0.5c-4 -0.666992 -8 -1.16699 -12 -1.5s-7.66699 -0.833008 -11 -1.5c-53.333 -5.33301 -96.833 -14 -130.5 -26
s-50.5 -39.333 -50.5 -82c0 -4.66699 0.5 -10 1.5 -16s2.5 -12 4.5 -18c5.33301 -14.667 15.666 -28.167 30.999 -40.5s38.666 -18.5 69.999 -18.5c8.66699 0 17.667 0.666992 27 2s19 3.33301 29 6c26 8 50.167 24.667 72.5 50s34.833 65.666 37.5 120.999v0z" />
    <glyph glyph-name="equal" unicode="&#x430;" horiz-adv-x="586"
d="M147 380l-89.002 -0.000976562c0 9.33301 1 20 3 32s5.66699 24 11 36c10.667 26.667 32 50.834 64 72.501s82.333 32.5 151 32.5c67.333 0 116 -11 146 -33s49.333 -46 58 -72c4.66699 -12.667 7.5 -25 8.5 -37s1.5 -23 1.5 -33l-5 -249v-6v-6
c0 -12.667 2.33301 -24.167 7 -34.5s16 -15.166 34 -14.499h7c2.66699 0 5.33398 0.333008 8.00098 1v-69c-8.66699 -0.666992 -16.5 -1.33398 -23.5 -2.00098s-13.167 -1 -18.5 -1c-28 0 -50 5 -66 15s-26.333 30.667 -31 62c-18.667 -30.667 -44.5 -53 -77.5 -67
s-68.5 -21 -106.5 -21c-61.333 0 -108.333 13.167 -141 39.5s-49 64.833 -49 115.5c0 61.333 23.667 103.166 71 125.499s111.666 37.5 192.999 45.5c5.33301 0.666992 10.5 1.16699 15.5 1.5s9.83301 0.833008 14.5 1.5c24.667 1.33301 43.334 5.5 56.001 12.5
s19 26.5 19 58.5c0 35.333 -11 61.166 -33 77.499s-51.333 24.5 -88 24.5c-40 0 -69.667 -6 -89 -18s-32.666 -25 -39.999 -39c-4.66699 -9.33301 -7.66699 -18.166 -9 -26.499s-2 -15.166 -2 -20.499v-2v-2v0zM405.998 229.999l2.00195 46.001
c-5.33301 -5.33301 -11.833 -9.33301 -19.5 -12s-20.167 -5 -37.5 -7c-2 -0.666992 -4.16699 -1.16699 -6.5 -1.5s-4.83301 -0.5 -7.5 -0.5c-4 -0.666992 -8 -1.16699 -12 -1.5s-7.66699 -0.833008 -11 -1.5c-53.333 -5.33301 -96.833 -14 -130.5 -26
s-50.5 -39.333 -50.5 -82c0 -4.66699 0.5 -10 1.5 -16s2.5 -12 4.5 -18c5.33301 -14.667 15.666 -28.167 30.999 -40.5s38.666 -18.5 69.999 -18.5c8.66699 0 17.667 0.666992 27 2s19 3.33301 29 6c26 8 50.167 24.667 72.5 50s34.833 65.666 37.5 120.999v0z" />
    <glyph glyph-name="K" unicode="&#xe1;" horiz-adv-x="647"
d="M475 777l78.999 0.000976562c-1.33301 -37.333 -13.833 -64.166 -37.5 -80.499s-49.167 -27.5 -76.5 -33.5c-12 -2 -23.667 -3.66699 -35 -5s-22 -2.66602 -32 -3.99902c-59.333 -6.66699 -113.5 -22.167 -162.5 -46.5s-76.167 -87.166 -81.5 -188.499h3
c1.33301 2.66699 2.66602 5.5 3.99902 8.5s3 5.83301 5 8.5c14.667 25.333 37.5 48.666 68.5 69.999s74.5 32 130.5 32c85.333 0 149.5 -25.667 192.5 -77s64.5 -118 64.5 -200c0 -14.667 -1 -30.334 -3 -47.001s-5.33301 -33.334 -10 -50.001
c-13.333 -46 -39.166 -87.833 -77.499 -125.5s-96.166 -56.5 -173.499 -56.5c-14.667 0 -32.667 1.5 -54 4.5s-43.333 9.5 -66 19.5c-38 18 -72.667 52 -104 102s-47 128 -47 234c0 178 31.333 285.833 94 323.5s139.667 61.5 231 71.5c1.33301 0 2.83301 0.166992 4.5 0.5
s3.16699 0.5 4.5 0.5c29.333 3.33301 49 8.16602 59 14.499s16.667 14.5 20 24.5v0zM161.999 259.001c0 -12 0.832031 -25.502 2.49902 -40.502s4.5 -30.167 8.5 -45.5c9.33301 -31.333 25.833 -60.166 49.5 -86.499s59.834 -39.5 108.501 -39.5
c64.667 0 108.667 21.333 132 64s35.333 89.334 36 140.001v1.5v1.5c0 12 -0.5 24.833 -1.5 38.5s-3.16699 27.5 -6.5 41.5c-7.33301 34.667 -22.833 66.334 -46.5 95.001s-61.5 43 -113.5 43c-61.333 0 -104.833 -20.833 -130.5 -62.5s-38.5 -91.834 -38.5 -150.501v0z" />
    <glyph glyph-name="K" unicode="&#x431;" horiz-adv-x="647"
d="M475 777l78.999 0.000976562c-1.33301 -37.333 -13.833 -64.166 -37.5 -80.499s-49.167 -27.5 -76.5 -33.5c-12 -2 -23.667 -3.66699 -35 -5s-22 -2.66602 -32 -3.99902c-59.333 -6.66699 -113.5 -22.167 -162.5 -46.5s-76.167 -87.166 -81.5 -188.499h3
c1.33301 2.66699 2.66602 5.5 3.99902 8.5s3 5.83301 5 8.5c14.667 25.333 37.5 48.666 68.5 69.999s74.5 32 130.5 32c85.333 0 149.5 -25.667 192.5 -77s64.5 -118 64.5 -200c0 -14.667 -1 -30.334 -3 -47.001s-5.33301 -33.334 -10 -50.001
c-13.333 -46 -39.166 -87.833 -77.499 -125.5s-96.166 -56.5 -173.499 -56.5c-14.667 0 -32.667 1.5 -54 4.5s-43.333 9.5 -66 19.5c-38 18 -72.667 52 -104 102s-47 128 -47 234c0 178 31.333 285.833 94 323.5s139.667 61.5 231 71.5c1.33301 0 2.83301 0.166992 4.5 0.5
s3.16699 0.5 4.5 0.5c29.333 3.33301 49 8.16602 59 14.499s16.667 14.5 20 24.5v0zM161.999 259.001c0 -12 0.832031 -25.502 2.49902 -40.502s4.5 -30.167 8.5 -45.5c9.33301 -31.333 25.833 -60.166 49.5 -86.499s59.834 -39.5 108.501 -39.5
c64.667 0 108.667 21.333 132 64s35.333 89.334 36 140.001v1.5v1.5c0 12 -0.5 24.833 -1.5 38.5s-3.16699 27.5 -6.5 41.5c-7.33301 34.667 -22.833 66.334 -46.5 95.001s-61.5 43 -113.5 43c-61.333 0 -104.833 -20.833 -130.5 -62.5s-38.5 -91.834 -38.5 -150.501v0z" />
    <glyph glyph-name="quotedbl" unicode="&#xe2;" horiz-adv-x="572"
d="M76 539l257.003 0.00488281c9.33301 0 20 -0.333008 32 -1s24.333 -2.33398 37 -5.00098c25.333 -6 48.5 -17.833 69.5 -35.5s31.5 -46.834 31.5 -87.501c0 -33.333 -8.33301 -59.833 -25 -79.5s-35.334 -33.5 -56.001 -41.5
c-2.66699 -0.666992 -5.33398 -1.5 -8.00098 -2.5s-5.33398 -1.83301 -8.00098 -2.5v-3c2.66699 -0.666992 5.16699 -1.33398 7.5 -2.00098s4.83301 -1.33398 7.5 -2.00098c26 -7.33301 49.667 -21.333 71 -42s32 -52.334 32 -95.001c0 -44 -11.667 -75.667 -35 -95
s-49.333 -32 -78 -38c-14.667 -3.33301 -29.167 -5.33301 -43.5 -6s-26.833 -1 -37.5 -1h-254v539v0zM170.003 248.005l-0.000976562 -181.998h136c6.66699 0 14.667 0.166992 24 0.5s19 1.83301 29 4.5c17.333 3.33301 33 10.666 47 21.999s21 29.666 21 54.999
c0 29.333 -7 51 -21 65s-29.333 23.333 -46 28c-11.333 3.33301 -22.166 5.33301 -32.499 6s-18.5 1 -24.5 1h-133v0zM170.002 473.007l0.00195312 -158.999h129c5.33301 0 12.666 0.333008 21.999 1s19 2.66699 29 6c14.667 4 28.167 11.667 40.5 23
s18.5 28.666 18.5 51.999c0 24 -6.16699 41.167 -18.5 51.5s-25.833 17.5 -40.5 21.5c-8.66699 2 -17.334 3.16699 -26.001 3.5s-15.667 0.5 -21 0.5h-133v0z" />
    <glyph glyph-name="quotedbl" unicode="&#x432;" horiz-adv-x="572"
d="M76 539l257.003 0.00488281c9.33301 0 20 -0.333008 32 -1s24.333 -2.33398 37 -5.00098c25.333 -6 48.5 -17.833 69.5 -35.5s31.5 -46.834 31.5 -87.501c0 -33.333 -8.33301 -59.833 -25 -79.5s-35.334 -33.5 -56.001 -41.5
c-2.66699 -0.666992 -5.33398 -1.5 -8.00098 -2.5s-5.33398 -1.83301 -8.00098 -2.5v-3c2.66699 -0.666992 5.16699 -1.33398 7.5 -2.00098s4.83301 -1.33398 7.5 -2.00098c26 -7.33301 49.667 -21.333 71 -42s32 -52.334 32 -95.001c0 -44 -11.667 -75.667 -35 -95
s-49.333 -32 -78 -38c-14.667 -3.33301 -29.167 -5.33301 -43.5 -6s-26.833 -1 -37.5 -1h-254v539v0zM170.003 248.005l-0.000976562 -181.998h136c6.66699 0 14.667 0.166992 24 0.5s19 1.83301 29 4.5c17.333 3.33301 33 10.666 47 21.999s21 29.666 21 54.999
c0 29.333 -7 51 -21 65s-29.333 23.333 -46 28c-11.333 3.33301 -22.166 5.33301 -32.499 6s-18.5 1 -24.5 1h-133v0zM170.002 473.007l0.00195312 -158.999h129c5.33301 0 12.666 0.333008 21.999 1s19 2.66699 29 6c14.667 4 28.167 11.667 40.5 23
s18.5 28.666 18.5 51.999c0 24 -6.16699 41.167 -18.5 51.5s-25.833 17.5 -40.5 21.5c-8.66699 2 -17.334 3.16699 -26.001 3.5s-15.667 0.5 -21 0.5h-133v0z" />
    <glyph glyph-name="atilde" unicode="&#xe3;" horiz-adv-x="459"
d="M170 473v-473h-94v539h369v-66h-275v0z" />
    <glyph glyph-name="atilde" unicode="&#x433;" horiz-adv-x="459"
d="M170 473v-473h-94v539h369v-66h-275v0z" />
    <glyph glyph-name="adieresis" unicode="&#xe4;" horiz-adv-x="639"
d="M0 66l67.999 0.00195312l13 20c4.66699 7.33301 9.33398 15.666 14.001 24.999c15.333 31.333 29.5 74.166 42.5 128.499s19.167 123.833 18.5 208.5l-1 91h387v-473h93l-8 -206h-78v140h-462v-140h-79l-8 206v0zM447.999 473.002l-205 -0.000976562l-1 -75
c-0.666992 -63.333 -5.16699 -116.333 -13.5 -159s-17.5 -77 -27.5 -103c-6.66699 -18.667 -13.167 -33.667 -19.5 -45s-11.5 -19.666 -15.5 -24.999h282v407v0z" />
    <glyph glyph-name="adieresis" unicode="&#x434;" horiz-adv-x="639"
d="M0 66l67.999 0.00195312l13 20c4.66699 7.33301 9.33398 15.666 14.001 24.999c15.333 31.333 29.5 74.166 42.5 128.499s19.167 123.833 18.5 208.5l-1 91h387v-473h93l-8 -206h-78v140h-462v-140h-79l-8 206v0zM447.999 473.002l-205 -0.000976562l-1 -75
c-0.666992 -63.333 -5.16699 -116.333 -13.5 -159s-17.5 -77 -27.5 -103c-6.66699 -18.667 -13.167 -33.667 -19.5 -45s-11.5 -19.666 -15.5 -24.999h282v407v0z" />
    <glyph glyph-name="yright" unicode="&#xe5;" horiz-adv-x="609"
d="M463 156l93 0.000976562c0 -1.33301 -0.166992 -2.66602 -0.5 -3.99902s-0.833008 -2.66602 -1.5 -3.99902c-8.66699 -41.333 -31.5 -79 -68.5 -113s-92.5 -51 -166.5 -51c-10.667 0 -28.334 1.16699 -53.001 3.5s-51 9.16602 -79 20.499
c-35.333 15.333 -67.666 42.666 -96.999 81.999s-44 98.333 -44 177c0 84 15.5 146 46.5 186s65.167 67.667 102.5 83c21.333 8 42.166 13.333 62.499 16s37.5 4 51.5 4c79.333 0 137 -18.833 173 -56.5s59.333 -79.167 70 -124.5c4 -16.667 6.83301 -33.167 8.5 -49.5
s2.5 -31.833 2.5 -46.5v-16c0 -5.33301 -0.333008 -10.333 -1 -15h-417c0.666992 -10.667 1.83398 -22.834 3.50098 -36.501s4.5 -27.5 8.5 -41.5c9.33301 -30 26 -57.667 50 -83s60.333 -38 109 -38c39.333 0 72.5 10.167 99.5 30.5s42.833 45.833 47.5 76.5v0z
M146 314.001h316.998c0 10 -0.833008 21.167 -2.5 33.5s-4.5 24.833 -8.5 37.5c-7.33301 26.667 -21.5 51 -42.5 73s-53.5 33 -97.5 33c-52.667 0 -91.667 -14.667 -117 -44s-40.666 -61.333 -45.999 -96c-1.33301 -6.66699 -2.16602 -13 -2.49902 -19s-0.5 -12 -0.5 -18v0z
" />
    <glyph glyph-name="yright" unicode="&#x435;" horiz-adv-x="609"
d="M463 156l93 0.000976562c0 -1.33301 -0.166992 -2.66602 -0.5 -3.99902s-0.833008 -2.66602 -1.5 -3.99902c-8.66699 -41.333 -31.5 -79 -68.5 -113s-92.5 -51 -166.5 -51c-10.667 0 -28.334 1.16699 -53.001 3.5s-51 9.16602 -79 20.499
c-35.333 15.333 -67.666 42.666 -96.999 81.999s-44 98.333 -44 177c0 84 15.5 146 46.5 186s65.167 67.667 102.5 83c21.333 8 42.166 13.333 62.499 16s37.5 4 51.5 4c79.333 0 137 -18.833 173 -56.5s59.333 -79.167 70 -124.5c4 -16.667 6.83301 -33.167 8.5 -49.5
s2.5 -31.833 2.5 -46.5v-16c0 -5.33301 -0.333008 -10.333 -1 -15h-417c0.666992 -10.667 1.83398 -22.834 3.50098 -36.501s4.5 -27.5 8.5 -41.5c9.33301 -30 26 -57.667 50 -83s60.333 -38 109 -38c39.333 0 72.5 10.167 99.5 30.5s42.833 45.833 47.5 76.5v0z
M146 314.001h316.998c0 10 -0.833008 21.167 -2.5 33.5s-4.5 24.833 -8.5 37.5c-7.33301 26.667 -21.5 51 -42.5 73s-53.5 33 -97.5 33c-52.667 0 -91.667 -14.667 -117 -44s-40.666 -61.333 -45.999 -96c-1.33301 -6.66699 -2.16602 -13 -2.49902 -19s-0.5 -12 -0.5 -18v0z
" />
    <glyph glyph-name="guilsinglright" unicode="&#xe6;" horiz-adv-x="742"
d="M324 0l2 266l-215 -266h-115l247 283l-233 256h110l206 -244l-2 244h94l-2 -244l206 244h110l-233 -256l247 -283h-115l-215 266l2 -266h-94v0z" />
    <glyph glyph-name="guilsinglright" unicode="&#x436;" horiz-adv-x="742"
d="M324 0l2 266l-215 -266h-115l247 283l-233 256h110l206 -244l-2 244h94l-2 -244l206 244h110l-233 -256l247 -283h-115l-215 266l2 -266h-94v0z" />
    <glyph glyph-name="florin" unicode="&#xe7;" horiz-adv-x="549"
d="M34 165l88.001 0.000976562c0.666992 -32.667 13.667 -60.334 39 -83.001s60.333 -34 105 -34c45.333 0 80 9.16699 104 27.5s36 43.166 36 74.499c0 28 -6.83301 48.667 -20.5 62s-28.5 22.666 -44.5 27.999c-11.333 3.33301 -22.166 5.33301 -32.499 6s-18.5 1 -24.5 1
h-79v66h68c5.33301 0 10.833 0.166992 16.5 0.5s11.5 0.833008 17.5 1.5c20 2.66699 38.5 9.5 55.5 20.5s25.5 31.167 25.5 60.5c0 4.66699 -0.5 10 -1.5 16s-2.83301 12 -5.5 18c-6 14.667 -17.833 28 -35.5 40s-44.834 18 -81.501 18c-42 0 -73.833 -9.33301 -95.5 -28
s-32.834 -41.667 -33.501 -69l-87 -1c0 4 0.333008 8 1 12l2 12c5.33301 35.333 23.5 67.5 54.5 96.5s85.5 43.5 163.5 43.5c68.667 0 118.167 -11.167 148.5 -33.5s49.5 -46.833 57.5 -73.5c2 -7.33301 3.5 -14.833 4.5 -22.5s1.5 -14.834 1.5 -21.501
c0 -34.667 -9.33301 -61.667 -28 -81s-40 -31.666 -64 -36.999v-3c4 -0.666992 8.16699 -1.5 12.5 -2.5s8.5 -2.5 12.5 -4.5c22 -7.33301 42.333 -21.166 61 -41.499s28 -50.166 28 -89.499c0 -40.667 -15.833 -77.667 -47.5 -111s-92.167 -50 -181.5 -50
c-74.667 0 -129.167 13.5 -163.5 40.5s-56.833 56.833 -67.5 89.5c-2.66699 8.66699 -4.66699 17.5 -6 26.5s-2.33301 17.5 -3 25.5v0z" />
    <glyph glyph-name="florin" unicode="&#x437;" horiz-adv-x="549"
d="M34 165l88.001 0.000976562c0.666992 -32.667 13.667 -60.334 39 -83.001s60.333 -34 105 -34c45.333 0 80 9.16699 104 27.5s36 43.166 36 74.499c0 28 -6.83301 48.667 -20.5 62s-28.5 22.666 -44.5 27.999c-11.333 3.33301 -22.166 5.33301 -32.499 6s-18.5 1 -24.5 1
h-79v66h68c5.33301 0 10.833 0.166992 16.5 0.5s11.5 0.833008 17.5 1.5c20 2.66699 38.5 9.5 55.5 20.5s25.5 31.167 25.5 60.5c0 4.66699 -0.5 10 -1.5 16s-2.83301 12 -5.5 18c-6 14.667 -17.833 28 -35.5 40s-44.834 18 -81.501 18c-42 0 -73.833 -9.33301 -95.5 -28
s-32.834 -41.667 -33.501 -69l-87 -1c0 4 0.333008 8 1 12l2 12c5.33301 35.333 23.5 67.5 54.5 96.5s85.5 43.5 163.5 43.5c68.667 0 118.167 -11.167 148.5 -33.5s49.5 -46.833 57.5 -73.5c2 -7.33301 3.5 -14.833 4.5 -22.5s1.5 -14.834 1.5 -21.501
c0 -34.667 -9.33301 -61.667 -28 -81s-40 -31.666 -64 -36.999v-3c4 -0.666992 8.16699 -1.5 12.5 -2.5s8.5 -2.5 12.5 -4.5c22 -7.33301 42.333 -21.166 61 -41.499s28 -50.166 28 -89.499c0 -40.667 -15.833 -77.667 -47.5 -111s-92.167 -50 -181.5 -50
c-74.667 0 -129.167 13.5 -163.5 40.5s-56.833 56.833 -67.5 89.5c-2.66699 8.66699 -4.66699 17.5 -6 26.5s-2.33301 17.5 -3 25.5v0z" />
    <glyph glyph-name="comma" unicode="&#xe8;" horiz-adv-x="631"
d="M170 109l280 430h105v-539h-94v430l-280 -430h-105v539h94v-430v0z" />
    <glyph glyph-name="comma" unicode="&#x438;" horiz-adv-x="631"
d="M170 109l280 430h105v-539h-94v430l-280 -430h-105v539h94v-430v0z" />
    <glyph glyph-name="L" unicode="&#xe9;" horiz-adv-x="631"
d="M170 109l280 430h105v-539h-94v430l-280 -430h-105v539h94v-430v0zM131 742h78.001c4.66699 -27.333 14 -46.833 28 -58.5s28.667 -19.167 44 -22.5c6 -1.33301 11.667 -2.16602 17 -2.49902s10.333 -0.5 15 -0.5c31.333 0 54.666 6.66699 69.999 20s25.333 28 30 44
l2 10c0.666992 3.33301 1 6.66602 1 9.99902h79c-0.666992 -2.66699 -1.16699 -5.16699 -1.5 -7.5s-0.833008 -4.83301 -1.5 -7.5c-7.33301 -31.333 -25 -60 -53 -86s-70 -39 -126 -39s-98 13 -126 39s-45.667 54.667 -53 86c-0.666992 2.66699 -1.16699 5.16699 -1.5 7.5
s-0.833008 4.83301 -1.5 7.5v0z" />
    <glyph glyph-name="L" unicode="&#x439;" horiz-adv-x="631"
d="M170 109l280 430h105v-539h-94v430l-280 -430h-105v539h94v-430v0zM131 742h78.001c4.66699 -27.333 14 -46.833 28 -58.5s28.667 -19.167 44 -22.5c6 -1.33301 11.667 -2.16602 17 -2.49902s10.333 -0.5 15 -0.5c31.333 0 54.666 6.66699 69.999 20s25.333 28 30 44
l2 10c0.666992 3.33301 1 6.66602 1 9.99902h79c-0.666992 -2.66699 -1.16699 -5.16699 -1.5 -7.5s-0.833008 -4.83301 -1.5 -7.5c-7.33301 -31.333 -25 -60 -53 -86s-70 -39 -126 -39s-98 13 -126 39s-45.667 54.667 -53 86c-0.666992 2.66699 -1.16699 5.16699 -1.5 7.5
s-0.833008 4.83301 -1.5 7.5v0z" />
    <glyph glyph-name="asterisk" unicode="&#xea;" horiz-adv-x="519"
d="M169 296l231 243h109l-253 -251l267 -288h-112l-242 269l1 -269h-94v539h94l-1 -243v0z" />
    <glyph glyph-name="asterisk" unicode="&#x43a;" horiz-adv-x="519"
d="M169 296l231 243h109l-253 -251l267 -288h-112l-242 269l1 -269h-94v539h94l-1 -243v0z" />
    <glyph glyph-name="edieresis" unicode="&#xeb;" horiz-adv-x="599"
d="M14 0v69.002l13.5 -2c4.33301 -0.666992 8.5 -1 12.5 -1c47.333 0.666992 75.833 27 85.5 79s15.5 111.667 17.5 179v6v6l5 203h375v-539h-94v473h-193l-4 -137v-9.5c0 -3 -0.333008 -5.83301 -1 -8.5c0 -8.66699 -0.166992 -17.334 -0.5 -26.001
s-0.5 -17.334 -0.5 -26.001c-3.33301 -68 -14.5 -130 -33.5 -186s-64.167 -83.667 -135.5 -83c-6.66699 0 -14 0.333008 -22 1l-25 2v0z" />
    <glyph glyph-name="edieresis" unicode="&#x43b;" horiz-adv-x="599"
d="M14 0v69.002l13.5 -2c4.33301 -0.666992 8.5 -1 12.5 -1c47.333 0.666992 75.833 27 85.5 79s15.5 111.667 17.5 179v6v6l5 203h375v-539h-94v473h-193l-4 -137v-9.5c0 -3 -0.333008 -5.83301 -1 -8.5c0 -8.66699 -0.166992 -17.334 -0.5 -26.001
s-0.5 -17.334 -0.5 -26.001c-3.33301 -68 -14.5 -130 -33.5 -186s-64.167 -83.667 -135.5 -83c-6.66699 0 -14 0.333008 -22 1l-25 2v0z" />
    <glyph glyph-name="igrave" unicode="&#xec;" horiz-adv-x="761"
d="M344 0l-182 432h-2l2 -28v-404h-86v539h121l184 -438l183 438h121v-539h-86v404l3 28h-3l-182 -432h-73v0z" />
    <glyph glyph-name="igrave" unicode="&#x43c;" horiz-adv-x="761"
d="M344 0l-182 432h-2l2 -28v-404h-86v539h121l184 -438l183 438h121v-539h-86v404l3 28h-3l-182 -432h-73v0z" />
    <glyph glyph-name="ellipsis" unicode="&#xed;" horiz-adv-x="606"
d="M170 251v-251h-94v539h94v-222h266v222h94v-539h-94v251h-266v0z" />
    <glyph glyph-name="ellipsis" unicode="&#x43d;" horiz-adv-x="606"
d="M170 251v-251h-94v539h94v-222h266v222h94v-539h-94v251h-266v0z" />
    <glyph glyph-name="percent" unicode="&#xee;" horiz-adv-x="620"
d="M46 270c0 91.333 23.333 162.666 70 213.999s111.334 77 194.001 77s147.334 -25.667 194.001 -77s70 -122.666 70 -213.999c0 -90.667 -23.333 -161.667 -70 -213s-111.334 -77 -194.001 -77s-147.334 25.667 -194.001 77s-70 122.333 -70 213v0zM144 270
c0 -7.33301 0.166992 -15 0.5 -23s0.833008 -16 1.5 -24c4.66699 -44 18.834 -84.5 42.501 -121.5s64.167 -55.5 121.5 -55.5c58 0 98.667 18.5 122 55.5s37.333 77.5 42 121.5c0.666992 8 1.16699 16 1.5 24s0.5 15.667 0.5 23s-0.166992 15 -0.5 23s-0.833008 16 -1.5 24
c-4.66699 44 -18.667 84.5 -42 121.5s-64 55.5 -122 55.5c-57.333 0 -97.833 -18.5 -121.5 -55.5s-37.834 -77.5 -42.501 -121.5c-0.666992 -8 -1.16699 -16 -1.5 -24s-0.5 -15.667 -0.5 -23v0z" />
    <glyph glyph-name="percent" unicode="&#x43e;" horiz-adv-x="620"
d="M46 270c0 91.333 23.333 162.666 70 213.999s111.334 77 194.001 77s147.334 -25.667 194.001 -77s70 -122.666 70 -213.999c0 -90.667 -23.333 -161.667 -70 -213s-111.334 -77 -194.001 -77s-147.334 25.667 -194.001 77s-70 122.333 -70 213v0zM144 270
c0 -7.33301 0.166992 -15 0.5 -23s0.833008 -16 1.5 -24c4.66699 -44 18.834 -84.5 42.501 -121.5s64.167 -55.5 121.5 -55.5c58 0 98.667 18.5 122 55.5s37.333 77.5 42 121.5c0.666992 8 1.16699 16 1.5 24s0.5 15.667 0.5 23s-0.166992 15 -0.5 23s-0.833008 16 -1.5 24
c-4.66699 44 -18.667 84.5 -42 121.5s-64 55.5 -122 55.5c-57.333 0 -97.833 -18.5 -121.5 -55.5s-37.834 -77.5 -42.501 -121.5c-0.666992 -8 -1.16699 -16 -1.5 -24s-0.5 -15.667 -0.5 -23v0z" />
    <glyph glyph-name="C" unicode="&#xef;"
d="M170 473v-473h-94v539h460v-539h-94v473h-272v0z" />
    <glyph glyph-name="C" unicode="&#x43f;"
d="M170 473v-473h-94v539h460v-539h-94v473h-272v0z" />
    <glyph glyph-name="exclam" unicode="&#xf0;" horiz-adv-x="633"
d="M76 539l88.999 0.000976562l-1 -74h2c23.333 33.333 50.166 57.666 80.499 72.999s62.833 23 97.5 23c74 0 133 -25.5 177 -76.5s66 -122.833 66 -215.5c0 -96 -22.667 -167.833 -68 -215.5s-102.666 -71.5 -171.999 -71.5c-43.333 0 -79.666 8.83301 -108.999 26.5
s-52 40.5 -68 68.5v-273h-94v735v0zM162.999 267.001c0 -63.333 11.166 -110.834 33.499 -142.501s46.833 -53.167 73.5 -64.5c10.667 -4.66699 21.167 -8 31.5 -10s19.833 -3 28.5 -3c7.33301 0 14.833 0.5 22.5 1.5s15.167 2.83301 22.5 5.5
c28.667 8.66699 54.834 28.834 78.501 60.501s35.5 83.167 35.5 154.5c0 74.667 -15.5 130.667 -46.5 168s-70.5 56 -118.5 56c-6 0 -12 -0.333008 -18 -1s-12 -1.66699 -18 -3c-31.333 -7.33301 -60 -27.5 -86 -60.5s-39 -86.833 -39 -161.5v0z" />
    <glyph glyph-name="exclam" unicode="&#x440;" horiz-adv-x="633"
d="M76 539l88.999 0.000976562l-1 -74h2c23.333 33.333 50.166 57.666 80.499 72.999s62.833 23 97.5 23c74 0 133 -25.5 177 -76.5s66 -122.833 66 -215.5c0 -96 -22.667 -167.833 -68 -215.5s-102.666 -71.5 -171.999 -71.5c-43.333 0 -79.666 8.83301 -108.999 26.5
s-52 40.5 -68 68.5v-273h-94v735v0zM162.999 267.001c0 -63.333 11.166 -110.834 33.499 -142.501s46.833 -53.167 73.5 -64.5c10.667 -4.66699 21.167 -8 31.5 -10s19.833 -3 28.5 -3c7.33301 0 14.833 0.5 22.5 1.5s15.167 2.83301 22.5 5.5
c28.667 8.66699 54.834 28.834 78.501 60.501s35.5 83.167 35.5 154.5c0 74.667 -15.5 130.667 -46.5 168s-70.5 56 -118.5 56c-6 0 -12 -0.333008 -18 -1s-12 -1.66699 -18 -3c-31.333 -7.33301 -60 -27.5 -86 -60.5s-39 -86.833 -39 -161.5v0z" />
    <glyph glyph-name="quotedblleft" unicode="&#xf1;" horiz-adv-x="582"
d="M454 192l90.0029 0.00195312c-1.33301 -10.667 -3.33301 -22 -6 -34s-6.33398 -24.333 -11.001 -37c-12.667 -34.667 -35.667 -66.5 -69 -95.5s-83.333 -43.5 -150 -43.5c-95.333 0 -161.833 27.333 -199.5 82s-58.167 115 -61.5 181c-0.666992 5.33301 -1 10.333 -1 15
v14c0 12.667 1.16699 31.5 3.5 56.5s8.5 51.167 18.5 78.5c14 37.333 38.833 71.5 74.5 102.5s89.167 46.5 160.5 46.5c76.667 0 133 -18.5 169 -55.5s57.333 -77.5 64 -121.5c0 -2 0.166992 -3.83301 0.5 -5.5s0.5 -3.5 0.5 -5.5h-88
c-0.666992 6.66699 -2.33398 14.834 -5.00098 24.501s-7 19.5 -13 29.5c-8.66699 17.333 -23 33.166 -43 47.499s-48 21.5 -84 21.5c-48.667 0 -84.167 -14 -106.5 -42s-37.166 -58.667 -44.499 -92c-4 -15.333 -6.5 -30.333 -7.5 -45s-1.5 -28 -1.5 -40
c0 -66.667 14.167 -121.167 42.5 -163.5s69.833 -63.5 124.5 -63.5c34.667 0 61.667 7.66699 81 23s33.666 32.333 42.999 51c7.33301 15.333 12.166 29.666 14.499 42.999s3.83301 22.666 4.5 27.999v0z" />
    <glyph glyph-name="quotedblleft" unicode="&#x441;" horiz-adv-x="582"
d="M454 192l90.0029 0.00195312c-1.33301 -10.667 -3.33301 -22 -6 -34s-6.33398 -24.333 -11.001 -37c-12.667 -34.667 -35.667 -66.5 -69 -95.5s-83.333 -43.5 -150 -43.5c-95.333 0 -161.833 27.333 -199.5 82s-58.167 115 -61.5 181c-0.666992 5.33301 -1 10.333 -1 15
v14c0 12.667 1.16699 31.5 3.5 56.5s8.5 51.167 18.5 78.5c14 37.333 38.833 71.5 74.5 102.5s89.167 46.5 160.5 46.5c76.667 0 133 -18.5 169 -55.5s57.333 -77.5 64 -121.5c0 -2 0.166992 -3.83301 0.5 -5.5s0.5 -3.5 0.5 -5.5h-88
c-0.666992 6.66699 -2.33398 14.834 -5.00098 24.501s-7 19.5 -13 29.5c-8.66699 17.333 -23 33.166 -43 47.499s-48 21.5 -84 21.5c-48.667 0 -84.167 -14 -106.5 -42s-37.166 -58.667 -44.499 -92c-4 -15.333 -6.5 -30.333 -7.5 -45s-1.5 -28 -1.5 -40
c0 -66.667 14.167 -121.167 42.5 -163.5s69.833 -63.5 124.5 -63.5c34.667 0 61.667 7.66699 81 23s33.666 32.333 42.999 51c7.33301 15.333 12.166 29.666 14.499 42.999s3.83301 22.666 4.5 27.999v0z" />
    <glyph glyph-name="two" unicode="&#xf2;" horiz-adv-x="493"
d="M199 473h-185v66h465v-66h-185v-473h-95v473v0z" />
    <glyph glyph-name="two" unicode="&#x442;" horiz-adv-x="493"
d="M199 473h-185v66h465v-66h-185v-473h-95v473v0z" />
    <glyph glyph-name="three" unicode="&#xf3;" horiz-adv-x="527"
d="M96 -195l0.00195312 68.999c14.667 -1.33301 25.334 -2.33301 32.001 -3s11.667 -1 15 -1c27.333 0 46.166 8.66699 56.499 26s19.166 37 26.499 59l1.5 3c0.333008 0.666992 0.5 1.66699 0.5 3l13 39l-234 539h112l172 -436l144 436h92l-213 -603
c-1.33301 -2.66699 -2.5 -5.66699 -3.5 -9s-2.16699 -6.66602 -3.5 -9.99902c-15.333 -39.333 -32.333 -68.5 -51 -87.5s-46.334 -28.5 -83.001 -28.5c-14 0 -27.667 0.333008 -41 1s-25.333 2 -36 4v-1z" />
    <glyph glyph-name="three" unicode="&#x443;" horiz-adv-x="527"
d="M96 -195l0.00195312 68.999c14.667 -1.33301 25.334 -2.33301 32.001 -3s11.667 -1 15 -1c27.333 0 46.166 8.66699 56.499 26s19.166 37 26.499 59l1.5 3c0.333008 0.666992 0.5 1.66699 0.5 3l13 39l-234 539h112l172 -436l144 436h92l-213 -603
c-1.33301 -2.66699 -2.5 -5.66699 -3.5 -9s-2.16699 -6.66602 -3.5 -9.99902c-15.333 -39.333 -32.333 -68.5 -51 -87.5s-46.334 -28.5 -83.001 -28.5c-14 0 -27.667 0.333008 -41 1s-25.333 2 -36 4v-1z" />
    <glyph glyph-name="hyphen" unicode="&#xf4;" horiz-adv-x="840"
d="M373 -196v182c-101.333 2.66699 -174.833 22.667 -220.5 60s-75.834 78.333 -90.501 123c-6 18 -10.167 35.833 -12.5 53.5s-3.5 34.167 -3.5 49.5c0 84.667 20.167 146.667 60.5 186s84.5 65.666 132.5 78.999c21.333 6 42.333 10 63 12s39.667 3 57 3h7.5h6.5v190h94
v-190h7.5h7.5c17.333 0 36.5 -1.16699 57.5 -3.5s42.5 -6.5 64.5 -12.5c47.333 -14 90.833 -40.667 130.5 -80s59.5 -100.666 59.5 -183.999c0 -72 -22.667 -137 -68 -195s-131.666 -88 -258.999 -90v-183h-94v0zM377 52l-0.00195312 434h-8h-9
c-10.667 0 -22 -0.666992 -34 -2s-24.333 -3.33301 -37 -6c-36 -9.33301 -69.167 -29 -99.5 -59s-45.5 -78.333 -45.5 -145c0 -12 0.833008 -25.5 2.5 -40.5s5.16699 -30.167 10.5 -45.5c10.667 -34 32.334 -65.333 65.001 -94s84.334 -42.667 155.001 -42v0zM462.998 486
l-0.00195312 -434c70.667 -0.666992 122.334 13.333 155.001 42s54.334 60 65.001 94c5.33301 15.333 8.83301 30.5 10.5 45.5s2.5 28.5 2.5 40.5c0 66.667 -15.167 115.167 -45.5 145.5s-63.5 49.833 -99.5 58.5c-12.667 3.33301 -25.167 5.5 -37.5 6.5
s-23.833 1.5 -34.5 1.5h-8h-8v0z" />
    <glyph glyph-name="hyphen" unicode="&#x444;" horiz-adv-x="840"
d="M373 -196v182c-101.333 2.66699 -174.833 22.667 -220.5 60s-75.834 78.333 -90.501 123c-6 18 -10.167 35.833 -12.5 53.5s-3.5 34.167 -3.5 49.5c0 84.667 20.167 146.667 60.5 186s84.5 65.666 132.5 78.999c21.333 6 42.333 10 63 12s39.667 3 57 3h7.5h6.5v190h94
v-190h7.5h7.5c17.333 0 36.5 -1.16699 57.5 -3.5s42.5 -6.5 64.5 -12.5c47.333 -14 90.833 -40.667 130.5 -80s59.5 -100.666 59.5 -183.999c0 -72 -22.667 -137 -68 -195s-131.666 -88 -258.999 -90v-183h-94v0zM377 52l-0.00195312 434h-8h-9
c-10.667 0 -22 -0.666992 -34 -2s-24.333 -3.33301 -37 -6c-36 -9.33301 -69.167 -29 -99.5 -59s-45.5 -78.333 -45.5 -145c0 -12 0.833008 -25.5 2.5 -40.5s5.16699 -30.167 10.5 -45.5c10.667 -34 32.334 -65.333 65.001 -94s84.334 -42.667 155.001 -42v0zM462.998 486
l-0.00195312 -434c70.667 -0.666992 122.334 13.333 155.001 42s54.334 60 65.001 94c5.33301 15.333 8.83301 30.5 10.5 45.5s2.5 28.5 2.5 40.5c0 66.667 -15.167 115.167 -45.5 145.5s-63.5 49.833 -99.5 58.5c-12.667 3.33301 -25.167 5.5 -37.5 6.5
s-23.833 1.5 -34.5 1.5h-8h-8v0z" />
    <glyph glyph-name="period" unicode="&#xf5;" horiz-adv-x="513"
d="M256 339l138 200h104l-189 -258l204 -281h-105l-152 222l-152 -222h-104l203 281l-191 258h108l136 -200v0z" />
    <glyph glyph-name="period" unicode="&#x445;" horiz-adv-x="513"
d="M256 339l138 200h104l-189 -258l204 -281h-105l-152 222l-152 -222h-104l203 281l-191 258h108l136 -200v0z" />
    <glyph glyph-name="odieresis" unicode="&#xf6;" horiz-adv-x="633"
d="M170 66h270v473h94v-473h95l-9 -206h-78v140h-466v539h94v-473v0z" />
    <glyph glyph-name="odieresis" unicode="&#x446;" horiz-adv-x="633"
d="M170 66h270v473h94v-473h95l-9 -206h-78v140h-466v539h94v-473v0z" />
    <glyph glyph-name="divide" unicode="&#xf7;" horiz-adv-x="539"
d="M48 539l94.0029 0.000976562v-166v-3.5v-3.5c0 -24.667 5 -44.334 15 -59.001s45.333 -22 106 -22c7.33301 0 18.166 0.333008 32.499 1s38.833 1.66699 73.5 3v250h94v-539h-94v223c-41.333 -1.33301 -70.5 -2.33301 -87.5 -3s-29.5 -1 -37.5 -1
c-90.667 0 -145.834 12.667 -165.501 38s-29.834 53.333 -30.501 84v7v8v1.5v0.5v181v0z" />
    <glyph glyph-name="divide" unicode="&#x447;" horiz-adv-x="539"
d="M48 539l94.0029 0.000976562v-166v-3.5v-3.5c0 -24.667 5 -44.334 15 -59.001s45.333 -22 106 -22c7.33301 0 18.166 0.333008 32.499 1s38.833 1.66699 73.5 3v250h94v-539h-94v223c-41.333 -1.33301 -70.5 -2.33301 -87.5 -3s-29.5 -1 -37.5 -1
c-90.667 0 -145.834 12.667 -165.501 38s-29.834 53.333 -30.501 84v7v8v1.5v0.5v181v0z" />
    <glyph glyph-name="oslash" unicode="&#xf8;" horiz-adv-x="882"
d="M170 66h224v473h94v-473h224v473h94v-539h-730v539h94v-473v0z" />
    <glyph glyph-name="oslash" unicode="&#x448;" horiz-adv-x="882"
d="M170 66h224v473h94v-473h224v473h94v-539h-730v539h94v-473v0z" />
    <glyph glyph-name="question" unicode="&#xf9;" horiz-adv-x="901"
d="M170 66h224v473h94v-473h224v473h94v-473h91l-9 -206h-78v140h-734v539h94v-473v0z" />
    <glyph glyph-name="question" unicode="&#x449;" horiz-adv-x="901"
d="M170 66h224v473h94v-473h224v473h94v-473h91l-9 -206h-78v140h-734v539h94v-473v0z" />
    <glyph glyph-name="A" unicode="&#xfa;" horiz-adv-x="626"
d="M14 473v66.001h233v-214h135h0.5h0.5c12 0 26.333 -0.333008 43 -1s33.667 -3 51 -7c30.667 -7.33301 58.5 -22.333 83.5 -45s37.5 -59.667 37.5 -111c0 -52.667 -12.833 -90.167 -38.5 -112.5s-53.834 -36.5 -84.501 -42.5
c-10.667 -2.66699 -21.167 -4.33398 -31.5 -5.00098s-20.166 -1 -29.499 -1h-261v473h-139v0zM247 259.001l0.000976562 -193h130c6.66699 0 14.5 0.333008 23.5 1s18.167 2 27.5 4c18 4.66699 34.667 14 50 28s23 37 23 69c0 33.333 -9.33301 56 -28 68
s-39.334 19 -62.001 21c-8 1.33301 -16 2 -24 2h-22h-2.5h-2.5h-113v0z" />
    <glyph glyph-name="A" unicode="&#x44a;" horiz-adv-x="626"
d="M14 473v66.001h233v-214h135h0.5h0.5c12 0 26.333 -0.333008 43 -1s33.667 -3 51 -7c30.667 -7.33301 58.5 -22.333 83.5 -45s37.5 -59.667 37.5 -111c0 -52.667 -12.833 -90.167 -38.5 -112.5s-53.834 -36.5 -84.501 -42.5
c-10.667 -2.66699 -21.167 -4.33398 -31.5 -5.00098s-20.166 -1 -29.499 -1h-261v473h-139v0zM247 259.001l0.000976562 -193h130c6.66699 0 14.5 0.333008 23.5 1s18.167 2 27.5 4c18 4.66699 34.667 14 50 28s23 37 23 69c0 33.333 -9.33301 56 -28 68
s-39.334 19 -62.001 21c-8 1.33301 -16 2 -24 2h-22h-2.5h-2.5h-113v0z" />
    <glyph glyph-name="slash" unicode="&#xfb;" horiz-adv-x="757"
d="M76 539l93.999 0.00292969v-214h135h0.5h0.5c12 0 26 -0.333008 42 -1s32.667 -2.66699 50 -6c30.667 -6.66699 58.834 -21.334 84.501 -44.001s38.5 -60.334 38.5 -113.001s-12.833 -90.167 -38.5 -112.5s-53.834 -36.5 -84.501 -42.5
c-10.667 -2.66699 -21.167 -4.33398 -31.5 -5.00098s-20.166 -1 -29.499 -1h-261v539v0zM169.999 259.003l0.000976562 -193.001h130c6.66699 0 14.667 0.333008 24 1s19 2.33398 29 5.00098c18 4.66699 34.5 14 49.5 28s22.5 36.667 22.5 68c0 32 -9 54.167 -27 66.5
s-38 19.833 -60 22.5c-8.66699 0.666992 -17.334 1.16699 -26.001 1.5s-16.667 0.5 -24 0.5h-3h-2h-113v0zM587 539.002h94v-539h-94v539v0z" />
    <glyph glyph-name="slash" unicode="&#x44b;" horiz-adv-x="757"
d="M76 539l93.999 0.00292969v-214h135h0.5h0.5c12 0 26 -0.333008 42 -1s32.667 -2.66699 50 -6c30.667 -6.66699 58.834 -21.334 84.501 -44.001s38.5 -60.334 38.5 -113.001s-12.833 -90.167 -38.5 -112.5s-53.834 -36.5 -84.501 -42.5
c-10.667 -2.66699 -21.167 -4.33398 -31.5 -5.00098s-20.166 -1 -29.499 -1h-261v539v0zM169.999 259.003l0.000976562 -193.001h130c6.66699 0 14.667 0.333008 24 1s19 2.33398 29 5.00098c18 4.66699 34.5 14 49.5 28s22.5 36.667 22.5 68c0 32 -9 54.167 -27 66.5
s-38 19.833 -60 22.5c-8.66699 0.666992 -17.334 1.16699 -26.001 1.5s-16.667 0.5 -24 0.5h-3h-2h-113v0zM587 539.002h94v-539h-94v539v0z" />
    <glyph glyph-name="udieresis" unicode="&#xfc;" horiz-adv-x="545"
d="M76 539h94.002v-214h134h0.5h0.5c12 0 26.167 -0.333008 42.5 -1s33.5 -3 51.5 -7c30.667 -6.66699 58.667 -21.334 84 -44.001s38 -60 38 -112c0 -46.667 -10.333 -81 -31 -103s-43.334 -37.333 -68.001 -46c-17.333 -5.33301 -33.833 -8.66602 -49.5 -9.99902
s-27.834 -2 -36.501 -2h-260v539v0zM170.002 259l-0.00195312 -193.002h129c6.66699 0 14.834 0.333008 24.501 1s19.5 2.33398 29.5 5.00098c17.333 5.33301 33.5 15 48.5 29s22.5 36.333 22.5 67c0 34.667 -10 57.834 -30 69.501s-42 18.5 -66 20.5
c-7.33301 0.666992 -14.666 1 -21.999 1h-21h-1.5h-0.5h-113v0z" />
    <glyph glyph-name="udieresis" unicode="&#x44c;" horiz-adv-x="545"
d="M76 539h94.002v-214h134h0.5h0.5c12 0 26.167 -0.333008 42.5 -1s33.5 -3 51.5 -7c30.667 -6.66699 58.667 -21.334 84 -44.001s38 -60 38 -112c0 -46.667 -10.333 -81 -31 -103s-43.334 -37.333 -68.001 -46c-17.333 -5.33301 -33.833 -8.66602 -49.5 -9.99902
s-27.834 -2 -36.501 -2h-260v539v0zM170.002 259l-0.00195312 -193.002h129c6.66699 0 14.834 0.333008 24.501 1s19.5 2.33398 29.5 5.00098c17.333 5.33301 33.5 15 48.5 29s22.5 36.333 22.5 67c0 34.667 -10 57.834 -30 69.501s-42 18.5 -66 20.5
c-7.33301 0.666992 -14.666 1 -21.999 1h-21h-1.5h-0.5h-113v0z" />
    <glyph glyph-name="period" unicode="&#xfd;" horiz-adv-x="584"
d="M210 247l-0.00390625 66h232c-1.33301 54 -11.833 93.5 -31.5 118.5s-41.167 41.833 -64.5 50.5c-10 4 -20 6.66699 -30 8s-19 2 -27 2c-42.667 0 -78.667 -10.5 -108 -31.5s-45.333 -51.167 -48 -90.5h-87c6.66699 56 24.167 97.167 52.5 123.5s58.833 43.833 91.5 52.5
c16 4.66699 31.833 7.66699 47.5 9s29.834 2 42.501 2c14 0 30.833 -1 50.5 -3s39.834 -7 60.501 -15c36.667 -14 70.334 -41.167 101.001 -81.5s46 -104.5 46 -192.5c0 -90 -16.5 -154.667 -49.5 -194s-69.5 -64.666 -109.5 -75.999
c-16.667 -5.33301 -33 -8.83301 -49 -10.5s-31 -2.5 -45 -2.5c-12 0 -24.833 0.5 -38.5 1.5s-27.5 2.83301 -41.5 5.5c-36.667 7.33301 -71.167 25.166 -103.5 53.499s-53.166 76.5 -62.499 144.5h89c0.666992 -4 1.16699 -7.83301 1.5 -11.5s1.16602 -7.5 2.49902 -11.5
c6 -29.333 20.333 -56.166 43 -80.499s59.334 -36.5 110.001 -36.5c43.333 0 76 10.833 98 32.5s37.333 45.167 46 70.5c6 18 9.83301 35.167 11.5 51.5s2.5 29.166 2.5 38.499v4v3h-233v0z" />
    <glyph glyph-name="period" unicode="&#x44d;" horiz-adv-x="584"
d="M210 247l-0.00390625 66h232c-1.33301 54 -11.833 93.5 -31.5 118.5s-41.167 41.833 -64.5 50.5c-10 4 -20 6.66699 -30 8s-19 2 -27 2c-42.667 0 -78.667 -10.5 -108 -31.5s-45.333 -51.167 -48 -90.5h-87c6.66699 56 24.167 97.167 52.5 123.5s58.833 43.833 91.5 52.5
c16 4.66699 31.833 7.66699 47.5 9s29.834 2 42.501 2c14 0 30.833 -1 50.5 -3s39.834 -7 60.501 -15c36.667 -14 70.334 -41.167 101.001 -81.5s46 -104.5 46 -192.5c0 -90 -16.5 -154.667 -49.5 -194s-69.5 -64.666 -109.5 -75.999
c-16.667 -5.33301 -33 -8.83301 -49 -10.5s-31 -2.5 -45 -2.5c-12 0 -24.833 0.5 -38.5 1.5s-27.5 2.83301 -41.5 5.5c-36.667 7.33301 -71.167 25.166 -103.5 53.499s-53.166 76.5 -62.499 144.5h89c0.666992 -4 1.16699 -7.83301 1.5 -11.5s1.16602 -7.5 2.49902 -11.5
c6 -29.333 20.333 -56.166 43 -80.499s59.334 -36.5 110.001 -36.5c43.333 0 76 10.833 98 32.5s37.333 45.167 46 70.5c6 18 9.83301 35.167 11.5 51.5s2.5 29.166 2.5 38.499v4v3h-233v0z" />
    <glyph glyph-name="thorn" unicode="&#xfe;" horiz-adv-x="827"
d="M170 316h87.999c0.666992 11.333 2.16699 23 4.5 35s5.5 24 9.5 36c14 43.333 40 83 78 119s94 54 168 54c8 0 24.5 -1.33301 49.5 -4s51.5 -11 79.5 -25c33.333 -17.333 64 -45.833 92 -85.5s42 -98.167 42 -175.5c0 -90.667 -23.333 -161.667 -70 -213
s-111 -77 -193 -77c-76 0 -132.833 18.167 -170.5 54.5s-63.167 76.5 -76.5 120.5c-5.33301 16.667 -9.16602 33.167 -11.499 49.5s-3.5 31.833 -3.5 46.5h-86v-251h-94v539h94v-223v0zM351.999 270c0 -12.667 0.666016 -27.334 1.99902 -44.001s4.33301 -34 9 -52
c8 -32 23.5 -61.5 46.5 -88.5s59.167 -40.5 108.5 -40.5c58.667 0 100.834 21.333 126.501 64s38.5 96.334 38.5 161.001c0 12 -0.666992 26.5 -2 43.5s-4.33301 34.5 -9 52.5c-8.66699 32 -24.5 61.333 -47.5 88s-58.5 40 -106.5 40c-48.667 0 -84.667 -13.333 -108 -40
s-39 -56 -47 -88c-4.66699 -18 -7.66699 -35.5 -9 -52.5s-2 -31.5 -2 -43.5v0z" />
    <glyph glyph-name="thorn" unicode="&#x44e;" horiz-adv-x="827"
d="M170 316h87.999c0.666992 11.333 2.16699 23 4.5 35s5.5 24 9.5 36c14 43.333 40 83 78 119s94 54 168 54c8 0 24.5 -1.33301 49.5 -4s51.5 -11 79.5 -25c33.333 -17.333 64 -45.833 92 -85.5s42 -98.167 42 -175.5c0 -90.667 -23.333 -161.667 -70 -213
s-111 -77 -193 -77c-76 0 -132.833 18.167 -170.5 54.5s-63.167 76.5 -76.5 120.5c-5.33301 16.667 -9.16602 33.167 -11.499 49.5s-3.5 31.833 -3.5 46.5h-86v-251h-94v539h94v-223v0zM351.999 270c0 -12.667 0.666016 -27.334 1.99902 -44.001s4.33301 -34 9 -52
c8 -32 23.5 -61.5 46.5 -88.5s59.167 -40.5 108.5 -40.5c58.667 0 100.834 21.333 126.501 64s38.5 96.334 38.5 161.001c0 12 -0.666992 26.5 -2 43.5s-4.33301 34.5 -9 52.5c-8.66699 32 -24.5 61.333 -47.5 88s-58.5 40 -106.5 40c-48.667 0 -84.667 -13.333 -108 -40
s-39 -56 -47 -88c-4.66699 -18 -7.66699 -35.5 -9 -52.5s-2 -31.5 -2 -43.5v0z" />
    <glyph glyph-name="space" unicode="&#xff;" horiz-adv-x="563"
d="M283 212l-141 -212.001h-103l146 213c-6.66699 0.666992 -13.5 1.66699 -20.5 3s-13.833 3.33301 -20.5 6c-26 8 -49.833 23.333 -71.5 46s-32.5 56.334 -32.5 101.001c0 6 0.666992 16.833 2 32.5s6.33301 32.5 15 50.5c10 22 27.167 42 51.5 60s60.833 27 109.5 27h269
v-539h-94v212h-110v0zM393 472.999h-133.998c-6.66699 0 -13.5 -0.166992 -20.5 -0.5s-14.167 -1.16602 -21.5 -2.49902c-20.667 -3.33301 -39.667 -11.833 -57 -25.5s-26 -37.834 -26 -72.501c0 -34 10 -57.5 30 -70.5s42 -20.5 66 -22.5
c5.33301 -0.666992 10.666 -1.16699 15.999 -1.5s10.666 -0.5 15.999 -0.5h131v196v0z" />
    <glyph glyph-name="space" unicode="&#x44f;" horiz-adv-x="563"
d="M283 212l-141 -212.001h-103l146 213c-6.66699 0.666992 -13.5 1.66699 -20.5 3s-13.833 3.33301 -20.5 6c-26 8 -49.833 23.333 -71.5 46s-32.5 56.334 -32.5 101.001c0 6 0.666992 16.833 2 32.5s6.33301 32.5 15 50.5c10 22 27.167 42 51.5 60s60.833 27 109.5 27h269
v-539h-94v212h-110v0zM393 472.999h-133.998c-6.66699 0 -13.5 -0.166992 -20.5 -0.5s-14.167 -1.16602 -21.5 -2.49902c-20.667 -3.33301 -39.667 -11.833 -57 -25.5s-26 -37.834 -26 -72.501c0 -34 10 -57.5 30 -70.5s42 -20.5 66 -22.5
c5.33301 -0.666992 10.666 -1.16699 15.999 -1.5s10.666 -0.5 15.999 -0.5h131v196v0z" />
    <glyph glyph-name="amacron" unicode="&#x101;"
 />
    <glyph glyph-name="OE" unicode="&#x152;" horiz-adv-x="1152"
d="M190 356l-0.00292969 -355.999h-100v742h100v-302h373v302h100v-302h213c12.667 0 28.834 -1.33301 48.501 -4s40.167 -8 61.5 -16c32.667 -12.667 62.834 -34.5 90.501 -65.5s41.5 -76.833 41.5 -137.5c0 -11.333 -0.833008 -23.833 -2.5 -37.5
s-4.83398 -27.5 -9.50098 -41.5c-11.333 -34.667 -34.166 -66.334 -68.499 -95.001s-88.166 -43 -161.499 -43h-313v356h-373v0zM662.997 356.001v-271.999h201c8 0 18 0.666992 30 2s24.333 4.66602 37 9.99902c20.667 7.33301 39.667 20.5 57 39.5s26 47.167 26 84.5
c0 36.667 -11.333 68.5 -34 95.5s-65.667 40.5 -129 40.5h-188v0z" />
    <glyph glyph-name="glyph258" unicode="&#x153;" horiz-adv-x="905"
d="M170 259l-0.000976562 -258.998h-94v539h94v-214h266v214h94v-214h135h0.5h0.5c12 0 26 -0.333008 42 -1s32.667 -2.66699 50 -6c30.667 -6.66699 58.834 -21.334 84.501 -44.001s38.5 -60.334 38.5 -113.001c0 -47.333 -10.333 -82 -31 -104
s-43.334 -37.333 -68.001 -46c-16.667 -5.33301 -32.667 -8.5 -48 -9.5s-27.666 -1.5 -36.999 -1.5h-261v259h-266v0zM529.999 259.002v-193.001h130c6.66699 0 14.667 0.333008 24 1s19 2.33398 29 5.00098c18 4.66699 34.5 14 49.5 28s22.5 36.667 22.5 68
c0 32 -8.83301 54 -26.5 66s-37.167 19.667 -58.5 23c-9.33301 0.666992 -18.333 1.16699 -27 1.5s-16.667 0.5 -24 0.5h-3h-2h-114v0z" />
    <glyph glyph-name="perthousand" unicode="&#x160;" horiz-adv-x="1206"
d="M14 0v87.001c5.33301 -0.666992 10.166 -1.33398 14.499 -2.00098s8.83301 -1 13.5 -1c56.667 0.666992 94.334 32.5 113.001 95.5s29.667 132.167 33 207.5c0 6 0.166992 12 0.5 18s0.5 12 0.5 18l7 319h465v-302h213c13.333 0 29.333 -1.16699 48 -3.5
s38 -6.83301 58 -13.5c34 -12 65.167 -33.5 93.5 -64.5s42.5 -78.167 42.5 -141.5c0 -61.333 -13.667 -107 -41 -137s-57.333 -50.667 -90 -62c-21.333 -8 -42.166 -13 -62.499 -15s-36.5 -3 -48.5 -3h-313v658h-266l-7 -256c-0.666992 -22 -1.66699 -46.333 -3 -73
s-4.33301 -54 -9 -82c-9.33301 -62.667 -29.333 -120 -60 -172s-83 -78 -157 -78c-6.66699 0 -13.834 0.333008 -21.501 1l-23.5 2v0zM661 356.001v-271.999h201c8 0 18 0.666992 30 2s24.333 4.66602 37 9.99902c20.667 7.33301 39.667 20.5 57 39.5s26 47.167 26 84.5
c0 36.667 -11.333 68.5 -34 95.5s-65.667 40.5 -129 40.5h-188v0z" />
    <glyph glyph-name="eight" unicode="&#x161;" horiz-adv-x="898"
d="M14 0v69.002l13.5 -2c4.33301 -0.666992 8.5 -1 12.5 -1c47.333 0.666992 75.833 27 85.5 79s15.5 111.667 17.5 179v6v6l5 203h375v-212h135c12 0 26 -0.333008 42 -1s32.333 -3 49 -7c31.333 -6.66699 60 -21.5 86 -44.5s39 -60.833 39 -113.5
c0 -46.667 -10.333 -81.167 -31 -103.5s-43.334 -37.5 -68.001 -45.5c-16.667 -6 -32.667 -9.5 -48 -10.5s-27.666 -1.5 -36.999 -1.5h-261v473h-193l-4 -137v-9.5c0 -3 -0.333008 -5.83301 -1 -8.5c0 -8.66699 -0.166992 -17.334 -0.5 -26.001s-0.5 -17.334 -0.5 -26.001
c-3.33301 -68 -14.5 -130 -33.5 -186s-64.167 -83.667 -135.5 -83c-6.66699 0 -14 0.333008 -22 1l-25 2v0zM523 262.002l-0.000976562 -195.999h130c6.66699 0 14.834 0.333008 24.501 1s19.5 2.66699 29.5 6c18 4.66699 34.333 14 49 28s22 36.333 22 67
c0 32 -9.33301 54.333 -28 67s-39 20.667 -61 24c-9.33301 1.33301 -18.5 2.16602 -27.5 2.49902s-17.167 0.5 -24.5 0.5h-114v0z" />
    <glyph glyph-name="greater" unicode="&#x192;"
 />
    <glyph glyph-name="glyph237" unicode="&#x2c6;"
 />
    <glyph glyph-name="seven" unicode="&#x2dc;"
 />
    <glyph glyph-name="dollar" unicode="&#x2013;" horiz-adv-x="644"
d="M56 399h532v-56h-532v56v0z" />
    <glyph glyph-name="numbersign" unicode="&#x2014;" horiz-adv-x="882"
d="M-28 249v66h938v-66h-938v0z" />
    <glyph glyph-name="four" unicode="&#x2018;" horiz-adv-x="329"
d="M217 606v-116.003h-105v121v17c0 6 0.333008 11.667 1 17c2.66699 24.667 10.667 47.834 24 69.501s40 37.834 80 48.501v-58c-22.667 -5.33301 -37 -15.666 -43 -30.999s-9.33301 -32 -10 -50v-6.5v-6.5v-5h53v0z" />
    <glyph glyph-name="quoteright" unicode="&#x2019;" horiz-adv-x="329"
d="M112 626l0.000976562 116h105v-152c0 -29.333 -9.83301 -55.5 -29.5 -78.5s-44.834 -37.167 -75.501 -42.5v57c15.333 4 28 12.333 38 25s15 26.667 15 42v33h-53v0z" />
    <glyph glyph-name="parenleft" unicode="&#x201a;" horiz-adv-x="329"
d="M112 0l-0.000976562 116h105v-152c0 -6 -0.666992 -12.833 -2 -20.5s-3.66602 -15.5 -6.99902 -23.5c-6 -16 -16.5 -31 -31.5 -45s-36.5 -24.333 -64.5 -31v57c15.333 3.33301 28 11.5 38 24.5s15 27.167 15 42.5v32h-53v0z" />
    <glyph glyph-name="oe" unicode="&#x201c;" horiz-adv-x="448"
d="M189 606v-116.003h-105v121v17c0 6 0.333008 11.667 1 17c2.66699 24.667 10.667 47.834 24 69.501s40 37.834 80 48.501v-58c-22.667 -5.33301 -37 -15.666 -43 -30.999s-9.33301 -32 -10 -50v-6.5v-6.5v-5h53v0zM364 605.997v-116.003h-105v121v17
c0 6 0.333008 11.667 1 17c2.66699 24.667 10.667 47.834 24 69.501s40 37.834 80 48.501v-58c-22.667 -5.33301 -37 -15.666 -43 -30.999s-9.33301 -32 -10 -50v-6.5v-6.5v-5h53v0z" />
    <glyph glyph-name="B" unicode="&#x201d;" horiz-adv-x="448"
d="M84 626l0.000976562 116h105v-152c0 -29.333 -9.83301 -55.5 -29.5 -78.5s-44.834 -37.167 -75.501 -42.5v57c15.333 4 28 12.333 38 25s15 26.667 15 42v33h-53v0zM259.001 626l0.000976562 116h105v-152c0 -29.333 -9.83301 -55.5 -29.5 -78.5
s-44.834 -37.167 -75.501 -42.5v57c15.333 4 28 12.333 38 25s15 26.667 15 42v33h-53v0z" />
    <glyph glyph-name="quotedblbase" unicode="&#x201e;" horiz-adv-x="448"
d="M84 0l-0.000976562 116h105v-152c0 -6 -0.666992 -12.833 -2 -20.5s-3.66602 -15.5 -6.99902 -23.5c-6 -16 -16.5 -31 -31.5 -45s-36.5 -24.333 -64.5 -31v57c15.333 3.33301 28 11.5 38 24.5s15 27.167 15 42.5v32h-53v0zM258.999 0l-0.000976562 116h105v-152
c0 -6 -0.666992 -12.833 -2 -20.5s-3.66602 -15.5 -6.99902 -23.5c-6 -16 -16.5 -31 -31.5 -45s-36.5 -24.333 -64.5 -31v57c15.333 3.33301 28 11.5 38 24.5s15 27.167 15 42.5v32h-53v0z" />
    <glyph glyph-name="glyph233" unicode="&#x2020;" horiz-adv-x="530"
d="M223 742h84v-203h196v-73h-196v-662h-84v662h-196v73h196v203v0z" />
    <glyph glyph-name="glyph236" unicode="&#x2021;"
 />
    <glyph glyph-name="glyph257" unicode="&#x2022;" horiz-adv-x="742"
d="M280 371l0.000976562 1.49902v1.5c0.666992 22 9.16699 42.167 25.5 60.5s38.166 27.5 65.499 27.5h4h4c20.667 -2 39.667 -11 57 -27s26 -37.333 26 -64c0 -27.333 -9.16699 -49.166 -27.5 -65.499s-38.5 -24.833 -60.5 -25.5h-1.5h-1.5c-26.667 0 -48 8.66699 -64 26
s-25 36.333 -27 57v4v4v0z" />
    <glyph glyph-name="glyph232" unicode="&#x2026;" horiz-adv-x="987"
d="M112 0v116h105v-116h-105v0zM441 0v116h105v-116h-105v0zM770 0v116h105v-116h-105v0z" />
    <glyph glyph-name="v" unicode="&#x2030;" horiz-adv-x="1376"
d="M562 204c0 11.333 0.833008 23.6689 2.5 37.002s4.16699 27 7.5 41c9.33301 33.333 26.5 63.833 51.5 91.5s62.5 41.5 112.5 41.5c57.333 0 100.666 -20.333 129.999 -61s44 -90.667 44 -150c0 -56.667 -10 -99.834 -30 -129.501s-42 -50.5 -66 -62.5
c-14.667 -8 -29 -13.167 -43 -15.5s-25.667 -3.5 -35 -3.5s-20.166 1.16699 -32.499 3.5s-24.833 6.16602 -37.5 11.499c-26 12 -49.833 33.167 -71.5 63.5s-32.5 74.5 -32.5 132.5v0zM630 204.003c0 -54.667 10.668 -94.335 32.001 -119.002s46 -37 74 -37
c27.333 0 51.833 12.333 73.5 37s32.5 64.334 32.5 119.001v8.5c0 3 -0.333008 6.16699 -1 9.5c-2 34 -10.833 65.333 -26.5 94s-41.834 43 -78.501 43c-28 0 -49.333 -8.33301 -64 -25s-25 -35 -31 -55c-5.33301 -16 -8.5 -31.167 -9.5 -45.5s-1.5 -24.166 -1.5 -29.499v0z
M972.001 204.002c0 11.333 0.833008 23.6689 2.5 37.002s4.16699 27 7.5 41c9.33301 33.333 26.5 63.833 51.5 91.5s62.5 41.5 112.5 41.5c57.333 0 100.666 -20.333 129.999 -61s44 -90.667 44 -150c0 -56.667 -10 -99.834 -30 -129.501s-42 -50.5 -66 -62.5
c-14.667 -8 -29 -13.167 -43 -15.5s-25.667 -3.5 -35 -3.5s-20.166 1.16699 -32.499 3.5s-24.833 6.16602 -37.5 11.499c-26 12 -49.833 33.167 -71.5 63.5s-32.5 74.5 -32.5 132.5v0zM1040 204.005c0 -54.667 10.668 -94.335 32.001 -119.002s46 -37 74 -37
c27.333 0 51.833 12.333 73.5 37s32.5 64.334 32.5 119.001v8.5c0 3 -0.333008 6.16699 -1 9.5c-2 34 -10.833 65.333 -26.5 94s-41.834 43 -78.501 43c-28 0 -49.333 -8.33301 -64 -25s-25 -35 -31 -55c-5.33301 -16 -8.5 -31.167 -9.5 -45.5s-1.5 -24.166 -1.5 -29.499v0z
M208.002 0.00390625l481 742h75l-481 -742h-75v0zM56.002 538.004c0 62 12.502 108.667 37.502 140s52.5 52.333 82.5 63c9.33301 3.33301 18.666 5.66602 27.999 6.99902s18.333 2 27 2c9.33301 0 20.166 -1.16699 32.499 -3.5s24.833 -6.5 37.5 -12.5
c26 -12 49.833 -33.167 71.5 -63.5s32.5 -74.5 32.5 -132.5c0 -11.333 -0.833008 -23.666 -2.5 -36.999s-4.16699 -27 -7.5 -41c-9.33301 -33.333 -26.5 -63.833 -51.5 -91.5s-62.5 -41.5 -112.5 -41.5c-54.667 0 -95.167 16.667 -121.5 50s-42.833 70.333 -49.5 111
c-1.33301 8 -2.33301 16.333 -3 25s-1 17 -1 25v0zM124.004 538.004c0 -8.66699 0.5 -18.499 1.5 -29.499s3.16699 -22.167 6.5 -33.5c6 -22.667 16.5 -43.667 31.5 -63s37.5 -29 67.5 -29c28 0 49.333 8.33301 64 25s25 35 31 55c5.33301 16 8.5 31.167 9.5 45.5
s1.5 24.166 1.5 29.499c0 54 -10.667 93.5 -32 118.5s-46 37.5 -74 37.5c-26.667 0 -51.167 -12.5 -73.5 -37.5s-33.5 -64.5 -33.5 -118.5v0z" />
    <glyph glyph-name="glyph243" unicode="&#x2039;" horiz-adv-x="304"
d="M66 332l158 140v-88l-113 -95l113 -97v-85l-158 138v87v0z" />
    <glyph glyph-name="less" unicode="&#x203a;" horiz-adv-x="304"
d="M238 332v-87l-158 -138v85l113 96l-113 96v89l158 -141v0z" />
    <glyph glyph-name="six" unicode="&#x2122;" horiz-adv-x="912"
d="M141 684h-120v58h319v-58h-120v-313h-79v313v0zM612 371l-108 284h-6l4 -48v-236h-79v371h106l100 -255l9 -38h4l9 38l99 255h106v-371h-79v236l4 48h-5l-109 -284h-55v0z" />
    <glyph glyph-name="periodcentered" unicode="&#x2219;" horiz-adv-x="329"
d="M112 226v116h105v-116h-105v0z" />
    <glyph glyph-name="glyph1" horiz-adv-x="0"
 />
    <glyph glyph-name="glyph2" horiz-adv-x="351"
 />
    <glyph glyph-name="s"
 />
    <glyph glyph-name="backslash"
 />
    <glyph glyph-name="nine"
 />
    <glyph glyph-name="colon"
 />
    <glyph glyph-name="Y"
 />
    <glyph glyph-name="X"
 />
    <glyph glyph-name="asciicircum"
 />
    <glyph glyph-name="semicolon"
 />
    <glyph glyph-name="equal"
 />
    <glyph glyph-name="exclam"
 />
    <glyph glyph-name="five"
 />
    <glyph glyph-name="Q"
 />
    <glyph glyph-name="quotedblright"
 />
    <glyph glyph-name="hyphen"
 />
    <glyph glyph-name="space"
 />
    <glyph glyph-name="E"
 />
    <glyph glyph-name="M"
 />
    <glyph glyph-name="plus"
 />
    <glyph glyph-name="glyph229"
 />
    <glyph glyph-name="glyph230"
 />
    <glyph glyph-name="glyph231"
 />
    <glyph glyph-name="glyph234"
 />
    <glyph glyph-name="glyph235"
 />
    <glyph glyph-name="glyph238"
 />
    <glyph glyph-name="glyph239"
 />
    <glyph glyph-name="glyph240"
 />
    <glyph glyph-name="glyph241"
 />
    <glyph glyph-name="glyph242"
 />
    <glyph glyph-name="glyph244"
 />
    <glyph glyph-name="glyph245"
 />
    <glyph glyph-name="glyph246"
 />
    <glyph glyph-name="glyph247"
 />
    <glyph glyph-name="glyph248"
 />
    <glyph glyph-name="glyph249"
 />
    <glyph glyph-name="glyph250"
 />
    <glyph glyph-name="glyph251"
 />
    <glyph glyph-name="glyph252"
 />
    <glyph glyph-name="glyph253"
 />
    <glyph glyph-name="glyph254"
 />
    <glyph glyph-name="glyph255"
 />
    <glyph glyph-name="glyph256"
 />
    <glyph glyph-name="glyph267"
 />
    <glyph glyph-name="glyph268"
 />
    <glyph glyph-name="glyph269"
 />
    <glyph glyph-name="glyph270"
 />
    <glyph glyph-name="glyph271"
 />
    <glyph glyph-name="glyph272"
 />
    <glyph glyph-name="glyph273"
 />
    <glyph glyph-name="glyph274"
 />
    <glyph glyph-name="glyph275"
 />
    <glyph glyph-name="glyph276"
 />
    <glyph glyph-name="glyph277"
 />
    <glyph glyph-name="glyph278"
 />
    <glyph glyph-name="glyph279"
 />
    <glyph glyph-name="glyph280"
 />
    <glyph glyph-name="glyph281"
 />
    <glyph glyph-name="glyph282"
 />
    <glyph glyph-name="glyph283"
 />
    <glyph glyph-name="glyph284"
 />
    <glyph glyph-name="glyph285"
 />
    <glyph glyph-name="glyph286"
 />
    <glyph glyph-name="glyph287"
 />
    <glyph glyph-name="glyph288"
 />
    <glyph glyph-name="glyph289"
 />
    <glyph glyph-name="glyph290"
 />
    <glyph glyph-name="glyph291"
 />
    <glyph glyph-name="glyph292"
 />
    <glyph glyph-name="glyph293"
 />
    <glyph glyph-name="glyph294"
 />
    <glyph glyph-name="glyph295"
 />
    <glyph glyph-name="glyph296"
 />
    <glyph glyph-name="glyph297"
 />
    <glyph glyph-name="glyph298"
 />
    <glyph glyph-name="glyph299"
 />
    <glyph glyph-name="glyph300"
 />
    <glyph glyph-name="glyph301"
 />
    <glyph glyph-name="glyph302"
 />
    <glyph glyph-name="glyph303"
 />
    <glyph glyph-name="glyph304"
 />
    <glyph glyph-name="glyph305"
 />
    <glyph glyph-name="glyph306"
 />
    <glyph glyph-name="glyph307"
 />
    <glyph glyph-name="glyph308"
 />
    <glyph glyph-name="glyph309"
 />
    <glyph glyph-name="glyph310"
 />
    <glyph glyph-name="glyph311"
 />
    <glyph glyph-name="glyph312"
 />
    <glyph glyph-name="glyph313"
 />
    <glyph glyph-name="glyph314"
 />
    <glyph glyph-name="glyph315"
 />
    <glyph glyph-name="glyph316"
 />
    <glyph glyph-name="glyph317"
 />
    <glyph glyph-name="glyph318"
 />
    <glyph glyph-name="glyph319"
 />
    <glyph glyph-name="glyph320"
 />
    <glyph glyph-name="glyph321"
 />
    <glyph glyph-name="glyph322"
 />
    <glyph glyph-name="glyph323"
 />
    <glyph glyph-name="glyph324"
 />
    <glyph glyph-name="glyph325"
 />
    <glyph glyph-name="glyph326"
 />
    <glyph glyph-name="glyph327"
 />
    <glyph glyph-name="glyph328"
 />
    <glyph glyph-name="glyph329"
 />
    <glyph glyph-name="glyph330"
 />
    <glyph glyph-name="glyph331"
 />
    <glyph glyph-name="glyph332"
 />
    <glyph glyph-name="glyph333"
 />
    <glyph glyph-name="glyph334"
 />
    <glyph glyph-name="glyph335"
 />
    <glyph glyph-name="glyph336"
 />
    <glyph glyph-name="glyph337"
 />
    <glyph glyph-name="glyph338"
 />
    <glyph glyph-name="glyph339"
 />
    <glyph glyph-name="glyph340"
 />
    <glyph glyph-name="glyph341"
 />
    <glyph glyph-name="glyph342"
 />
    <glyph glyph-name="glyph343"
 />
    <glyph glyph-name="glyph344"
 />
    <glyph glyph-name="glyph345"
 />
    <glyph glyph-name="glyph346"
 />
    <glyph glyph-name="glyph347"
 />
    <glyph glyph-name="glyph348"
 />
    <glyph glyph-name="glyph349"
 />
    <glyph glyph-name="glyph350"
 />
    <glyph glyph-name="glyph351"
 />
    <glyph glyph-name="glyph352"
 />
    <glyph glyph-name="glyph353"
 />
    <glyph glyph-name="glyph354"
 />
    <glyph glyph-name="glyph355"
 />
    <glyph glyph-name="glyph356"
 />
    <glyph glyph-name="glyph357"
 />
    <glyph glyph-name="glyph358"
 />
    <glyph glyph-name="glyph359"
 />
    <glyph glyph-name="glyph360"
 />
    <glyph glyph-name="glyph361"
 />
    <glyph glyph-name="glyph362"
 />
    <glyph glyph-name="glyph363"
 />
    <glyph glyph-name="glyph364"
 />
    <glyph glyph-name="glyph365"
 />
    <glyph glyph-name="glyph366"
 />
    <glyph glyph-name="glyph367"
 />
    <glyph glyph-name="glyph368"
 />
    <glyph glyph-name="glyph369"
 />
    <glyph glyph-name="glyph370"
 />
    <glyph glyph-name="glyph371"
 />
    <glyph glyph-name="glyph372"
 />
    <glyph glyph-name="glyph373"
 />
    <glyph glyph-name="glyph374"
 />
    <glyph glyph-name="glyph375"
 />
    <glyph glyph-name="glyph376"
 />
    <glyph glyph-name="glyph377"
 />
    <glyph glyph-name="glyph378"
 />
    <glyph glyph-name="glyph379"
 />
    <glyph glyph-name="glyph380"
 />
    <glyph glyph-name="glyph381"
 />
    <glyph glyph-name="glyph382"
 />
    <glyph glyph-name="glyph383"
 />
    <glyph glyph-name="glyph384"
 />
    <glyph glyph-name="glyph385"
 />
    <glyph glyph-name="glyph386"
 />
    <glyph glyph-name="glyph387"
 />
    <glyph glyph-name="glyph388"
 />
    <glyph glyph-name="glyph389"
 />
    <glyph glyph-name="glyph390"
 />
    <glyph glyph-name="glyph391"
 />
    <glyph glyph-name="glyph392"
 />
    <glyph glyph-name="glyph393"
 />
    <glyph glyph-name="glyph394"
 />
    <glyph glyph-name="glyph395"
 />
    <glyph glyph-name="glyph396"
 />
    <glyph glyph-name="glyph397"
 />
    <glyph glyph-name="glyph398"
 />
    <glyph glyph-name="glyph399"
 />
    <glyph glyph-name="glyph400"
 />
    <glyph glyph-name="glyph401"
 />
    <glyph glyph-name="glyph402"
 />
    <glyph glyph-name="glyph403"
 />
    <glyph glyph-name="glyph404"
 />
    <glyph glyph-name="glyph405"
 />
    <glyph glyph-name="glyph406"
 />
    <glyph glyph-name="glyph407"
 />
    <glyph glyph-name="glyph408"
 />
    <glyph glyph-name="glyph409"
 />
    <glyph glyph-name="glyph410"
 />
    <glyph glyph-name="glyph411"
 />
    <glyph glyph-name="glyph412"
 />
    <glyph glyph-name="glyph413"
 />
    <glyph glyph-name="glyph414"
 />
    <glyph glyph-name="glyph415"
 />
    <glyph glyph-name="glyph416"
 />
    <glyph glyph-name="glyph417"
 />
    <glyph glyph-name="glyph418"
 />
    <glyph glyph-name="glyph419"
 />
    <glyph glyph-name="glyph420"
 />
    <glyph glyph-name="glyph421"
 />
    <glyph glyph-name="glyph422"
 />
    <glyph glyph-name="glyph423"
 />
    <glyph glyph-name="glyph424"
 />
    <glyph glyph-name="glyph425"
 />
    <glyph glyph-name="glyph426"
 />
    <glyph glyph-name="glyph427"
 />
    <glyph glyph-name="glyph428"
 />
    <glyph glyph-name="glyph429"
 />
    <glyph glyph-name="glyph430"
 />
    <glyph glyph-name="glyph431"
 />
    <glyph glyph-name="glyph432"
 />
    <glyph glyph-name="glyph433"
 />
    <glyph glyph-name="glyph434"
 />
    <glyph glyph-name="glyph435"
 />
    <glyph glyph-name="glyph436"
 />
    <glyph glyph-name="glyph437"
 />
    <glyph glyph-name="glyph438"
 />
    <glyph glyph-name="glyph439"
 />
    <glyph glyph-name="glyph440"
 />
    <glyph glyph-name="glyph441"
 />
    </font>
</defs>
</svg>
